<svg width="1920" height="1136" fill="none" xmlns="http://www.w3.org/2000/svg"><g clip-path="url(#clip0_4515_659)"><g opacity=".7" filter="url(#filter0_f_4515_659)"><circle cx="1792" cy="848" r="287" fill="url(#paint0_linear_4515_659)"/></g><g opacity=".55" filter="url(#filter1_f_4515_659)"><path d="M420.543 418.729C709.38 626.191 852.015 794.806 821.448 837.362c-30.567 42.556-316.237-78.999-605.074-286.462C-72.463 343.438-267.309 120.537-251.265 98.201c16.043-22.336 382.971 113.065 671.808 320.528z" fill="url(#paint1_linear_4515_659)"/></g><mask id="mask0_4515_659" style="mask-type:alpha" maskUnits="userSpaceOnUse" x="0" y="-9" width="1920" height="1048"><path fill="url(#paint2_linear_4515_659)" d="M0-9h1920v1048H0z"/></mask></g><defs><linearGradient id="paint0_linear_4515_659" x1="2079" y1="561" x2="1403.71" y2="729.823" gradientUnits="userSpaceOnUse"><stop stop-color="#478BF9"/><stop offset="1" stop-color="#9DADF2"/></linearGradient><linearGradient id="paint1_linear_4515_659" x1="-240.556" y1="83.291" x2="817.309" y2="843.124" gradientUnits="userSpaceOnUse"><stop stop-color="#478BF9"/><stop offset="1" stop-color="#478BF9" stop-opacity=".4"/></linearGradient><linearGradient id="paint2_linear_4515_659" x1="960" y1="-9" x2="960" y2="1039" gradientUnits="userSpaceOnUse"><stop offset=".636" stop-color="#fff"/><stop offset=".954" stop-color="#fff" stop-opacity="0"/></linearGradient><filter id="filter0_f_4515_659" x="855" y="-89" width="1874" height="1874" filterUnits="userSpaceOnUse" color-interpolation-filters="sRGB"><feFlood flood-opacity="0" result="BackgroundImageFix"/><feBlend in="SourceGraphic" in2="BackgroundImageFix" result="shape"/><feGaussianBlur stdDeviation="325" result="effect1_foregroundBlur_4515_659"/></filter><filter id="filter1_f_4515_659" x="-552.187" y="-204.202" width="1677.7" height="1350.02" filterUnits="userSpaceOnUse" color-interpolation-filters="sRGB"><feFlood flood-opacity="0" result="BackgroundImageFix"/><feBlend in="SourceGraphic" in2="BackgroundImageFix" result="shape"/><feGaussianBlur stdDeviation="150" result="effect1_foregroundBlur_4515_659"/></filter><clipPath id="clip0_4515_659"><path fill="#fff" d="M0 0h1920v1136H0z"/></clipPath></defs></svg>