<svg width="643" height="50" fill="none" xmlns="http://www.w3.org/2000/svg"><g opacity=".4"><path d="M618.017 49.617c-6.277 0-12.548-2.387-17.328-7.167-9.555-9.554-9.555-25.098 0-34.652 4.63-4.63 10.784-7.177 17.328-7.177 6.545 0 12.699 2.546 17.329 7.177 9.555 9.554 9.555 25.098 0 34.652-4.774 4.775-11.051 7.167-17.329 7.167zm-16.042-8.453c8.844 8.844 23.235 8.844 32.08 0 8.844-8.844 8.844-23.235 0-32.08-4.286-4.286-9.982-6.642-16.043-6.642s-11.756 2.362-16.042 6.642c-8.845 8.845-8.845 23.236 0 32.08h.005z" fill="#9DADF2"/><path d="M617.693 34.29a.549.549 0 00.51.335.643.643 0 00.216-.041 12.699 12.699 0 004.548-3.247.552.552 0 00-.046-.777.552.552 0 00-.777.047 11.503 11.503 0 01-4.152 2.963.553.553 0 00-.294.72h-.005z" fill="#9DADF2"/><path d="M627.355 16.653L618.217 13a.567.567 0 00-.411 0l-9.138 3.653a.542.542 0 00-.345.51v6.544c.011 6.04 3.828 11.5 9.498 13.578a.593.593 0 00.381 0c5.67-2.084 9.487-7.538 9.498-13.578v-6.545a.542.542 0 00-.345-.509zm-.756 7.054c-.011 5.495-3.458 10.501-8.582 12.472-5.125-1.97-8.577-6.977-8.588-12.472v-6.169l8.588-3.432 8.582 3.432v6.169z" fill="#9DADF2"/><path d="M614.199 17.512a.546.546 0 00-.422 0l-2.176.87a.542.542 0 00-.345.51v2.32a.551.551 0 001.101 0v-1.945l1.827-.73a.553.553 0 00.303-.3.561.561 0 00-.293-.726h.005z" fill="#9DADF2"/><path d="M631.929 11.21c-3.715-3.72-8.659-5.763-13.917-5.763a19.565 19.565 0 00-13.918 5.762c-7.671 7.672-7.671 20.159 0 27.835 3.838 3.839 8.875 5.753 13.918 5.753 5.042 0 10.079-1.92 13.917-5.753 7.671-7.671 7.671-20.158 0-27.835zm-2.722 12.497a15.853 15.853 0 01-11.098 15.203.315.315 0 01-.195 0 15.853 15.853 0 01-11.098-15.203v-7.723c0-.129.077-.247.201-.299l10.876-4.347a.303.303 0 01.119-.02c.041 0 .082.005.118.02l10.877 4.353c.123.046.2.164.2.298v7.723-.005z" fill="#9DADF2"/><path d="M555.435 49.538c-13.506 0-24.491-10.99-24.491-24.491 0-13.5 10.99-24.49 24.491-24.49 13.5 0 24.49 10.99 24.49 24.49 0 13.5-10.99 24.49-24.49 24.49zm0-47.35c-12.606 0-22.86 10.253-22.86 22.859 0 12.605 10.254 22.86 22.86 22.86 12.605 0 22.859-10.255 22.859-22.86 0-12.606-10.254-22.86-22.859-22.86z" fill="#fff"/><path d="M563.378 9.75a.803.803 0 01-.36-.082 16.964 16.964 0 00-7.584-1.77c-2.66 0-5.212.597-7.583 1.77a.815.815 0 01-.937-.154l-4.209-4.209a.811.811 0 01-.231-.679.814.814 0 01.391-.602A24.446 24.446 0 01555.44.551c4.435 0 8.782 1.204 12.574 3.473.216.129.36.35.391.602a.827.827 0 01-.231.68l-4.209 4.208a.83.83 0 01-.581.237h-.006zm-7.944-3.483a18.6 18.6 0 017.775 1.683l3.046-3.046a22.818 22.818 0 00-10.821-2.722c-3.786 0-7.506.937-10.82 2.722l3.046 3.046a18.606 18.606 0 017.774-1.683zm-.001 43.271a24.494 24.494 0 01-12.574-3.473.814.814 0 01-.391-.602.827.827 0 01.231-.68l4.209-4.208a.815.815 0 01.936-.154 16.964 16.964 0 007.584 1.77c2.66 0 5.212-.597 7.584-1.77a.815.815 0 01.937.154l4.208 4.209c.18.18.263.427.232.679a.814.814 0 01-.391.602 24.449 24.449 0 01-12.575 3.473h.01zm-10.82-4.353a22.817 22.817 0 0010.82 2.722c3.787 0 7.507-.937 10.821-2.722l-3.046-3.046a18.609 18.609 0 01-7.775 1.682c-2.711 0-5.325-.566-7.774-1.682l-3.046 3.046zm31.14-7.172a.81.81 0 01-.576-.237l-4.209-4.209a.818.818 0 01-.154-.936 16.964 16.964 0 001.77-7.584c0-2.66-.597-5.212-1.77-7.584a.815.815 0 01.154-.936l4.209-4.209a.812.812 0 01.679-.232.813.813 0 01.602.391 24.448 24.448 0 013.473 12.575 24.45 24.45 0 01-3.473 12.575.813.813 0 01-.602.39h-.103v-.004zm-3.226-5.197l3.046 3.046a22.807 22.807 0 002.722-10.82c0-3.787-.936-7.507-2.722-10.82l-3.046 3.046a18.598 18.598 0 011.683 7.774 18.6 18.6 0 01-1.683 7.774zm-37.41 5.196c-.036 0-.067 0-.098-.005a.812.812 0 01-.602-.39 24.448 24.448 0 01-3.473-12.575c0-4.436 1.199-8.783 3.473-12.575a.813.813 0 01.602-.391.828.828 0 01.679.231l4.209 4.21a.816.816 0 01.154.936 16.965 16.965 0 00-1.77 7.583c0 2.66.597 5.212 1.77 7.584a.813.813 0 01-.154.937l-4.209 4.208a.813.813 0 01-.576.242l-.005.005zm.18-23.79a22.807 22.807 0 00-2.722 10.82c0 3.786.936 7.506 2.722 10.82l3.046-3.046a18.599 18.599 0 01-1.683-7.774 18.6 18.6 0 011.683-7.775l-3.046-3.046z" fill="#fff"/><path d="M555.435 6.268c-10.352 0-18.779 8.422-18.779 18.78 0 10.356 8.422 18.779 18.779 18.779s18.78-8.423 18.78-18.78c0-10.357-8.423-18.78-18.78-18.78zm10.568 12.61a12.084 12.084 0 011.605 4.95.18.18 0 01-.087.175 15.72 15.72 0 00-3.586 3.01.17.17 0 01-.191.051l-2.32-.756a.177.177 0 01-.123-.15 16.183 16.183 0 00-1.775-5.463.182.182 0 01.015-.19l1.435-1.977a.196.196 0 01.15-.077h.041a15.64 15.64 0 004.672.324.185.185 0 01.174.093l-.01.01zm-5.968 7.605a.187.187 0 01-.041.139 12.294 12.294 0 01-4.487 3.251.164.164 0 01-.139 0 12.402 12.402 0 01-4.486-3.251.183.183 0 01-.041-.14 14.895 14.895 0 011.718-5.288.172.172 0 01.118-.088 13.436 13.436 0 015.526 0c.052.01.093.041.119.087a15.016 15.016 0 011.718 5.29h-.005zm-.278-12.77s.062-.052.124-.052c.02 0 .046 0 .072.016a12.334 12.334 0 014.903 3.565.17.17 0 01.026.19.178.178 0 01-.165.109 14.174 14.174 0 01-3.458-.386.184.184 0 01-.113-.083 14.586 14.586 0 01-1.435-3.174.17.17 0 01.051-.185h-.005zm-6.92-.618a12.483 12.483 0 015.202 0 .184.184 0 01.138.134 15.76 15.76 0 001.755 4.342.19.19 0 01-.01.201l-1.426 1.966a.178.178 0 01-.18.072 14.652 14.652 0 00-5.757 0 .178.178 0 01-.18-.072l-1.425-1.966a.189.189 0 01-.011-.2 15.746 15.746 0 001.755-4.343.183.183 0 01.139-.134zm-6.817 4.147a12.23 12.23 0 014.903-3.566.2.2 0 01.072-.015.17.17 0 01.123.052.173.173 0 01.052.185 14.479 14.479 0 01-1.436 3.174.181.181 0 01-.113.083 14.166 14.166 0 01-3.457.386.177.177 0 01-.165-.108.171.171 0 01.026-.19h-.005zm-1.148 1.636a.183.183 0 01.16-.092h.015c1.569.123 3.144.015 4.672-.325a.174.174 0 01.185.073l1.436 1.975a.183.183 0 01.015.19 16.14 16.14 0 00-1.775 5.465.193.193 0 01-.123.149l-2.321.756a.186.186 0 01-.19-.051 15.764 15.764 0 00-3.586-3.01.192.192 0 01-.088-.175 12.074 12.074 0 011.605-4.95l-.005-.005zm.561 12.678a.18.18 0 01-.154.123c-.036 0-.119 0-.175-.082a12.21 12.21 0 01-1.873-5.768.176.176 0 01.093-.17c.03-.015.113-.051.195.01a14.31 14.31 0 012.573 2.347.18.18 0 01.041.134 14.118 14.118 0 01-.705 3.41l.005-.004zm5.083 4.697a12.144 12.144 0 01-4.203-3.066.186.186 0 01-.036-.19c.602-1.451.983-2.98 1.132-4.544a.176.176 0 01.123-.154l2.295-.746s.036-.01.057-.01c.051 0 .097.02.133.061a13.695 13.695 0 004.662 3.39.18.18 0 01.108.166v2.413a.174.174 0 01-.108.164 15.713 15.713 0 00-3.977 2.485.174.174 0 01-.191.026l.005.005zm8.094.51a.172.172 0 01-.134.144 12.372 12.372 0 01-6.071 0 .18.18 0 01-.134-.144.18.18 0 01.072-.186 14.345 14.345 0 013.03-1.723.164.164 0 01.139 0 14.63 14.63 0 013.031 1.723.19.19 0 01.072.186h-.005zm5.963-3.571a12.133 12.133 0 01-4.204 3.061.18.18 0 01-.19-.026 15.648 15.648 0 00-3.977-2.485.18.18 0 01-.108-.164v-2.413c0-.072.041-.14.108-.165a13.635 13.635 0 004.661-3.39.174.174 0 01.134-.062c.021 0 .036 0 .057.01l2.294.746c.067.02.119.082.124.154.149 1.565.53 3.088 1.132 4.544a.178.178 0 01-.036.19h.005zm1.204-1.59a.177.177 0 01-.175.082c-.036 0-.118-.025-.155-.123a14.61 14.61 0 01-.704-3.411c0-.047.01-.098.041-.134a14.45 14.45 0 012.572-2.346.178.178 0 01.103-.036c.041 0 .072.015.093.026a.167.167 0 01.092.17 12.198 12.198 0 01-1.872 5.767l.005.005z" fill="#fff"/><path d="M494.406 49.617c-6.277 0-12.548-2.387-17.328-7.167-9.555-9.554-9.555-25.098 0-34.652 4.63-4.63 10.784-7.177 17.328-7.177 6.545 0 12.699 2.546 17.329 7.177 9.555 9.554 9.555 25.098 0 34.652-4.775 4.775-11.052 7.167-17.329 7.167zm-16.042-8.453c8.844 8.844 23.235 8.844 32.08 0 8.844-8.844 8.844-23.235 0-32.08-4.286-4.286-9.982-6.642-16.043-6.642s-11.756 2.362-16.042 6.642c-8.845 8.845-8.845 23.236 0 32.08h.005z" fill="#9DADF2"/><path d="M494.082 34.295a.549.549 0 00.51.335.643.643 0 00.216-.041 12.699 12.699 0 004.548-3.247.552.552 0 00-.046-.777.552.552 0 00-.777.046 11.503 11.503 0 01-4.152 2.964.551.551 0 00-.293.72h-.006z" fill="#9DADF2"/><path d="M503.744 16.653L494.606 13a.567.567 0 00-.411 0l-9.138 3.653a.542.542 0 00-.345.51v6.544c.011 6.04 3.828 11.5 9.498 13.578a.594.594 0 00.381 0c5.67-2.084 9.488-7.538 9.498-13.578v-6.545a.542.542 0 00-.345-.509zm-.756 7.054c-.01 5.495-3.458 10.501-8.582 12.472-5.125-1.97-8.577-6.977-8.587-12.472v-6.169l8.587-3.432 8.582 3.432v6.169z" fill="#9DADF2"/><path d="M490.588 17.512a.546.546 0 00-.422 0l-2.176.87a.542.542 0 00-.345.51v2.32a.551.551 0 001.101 0v-1.945l1.827-.731a.553.553 0 00.303-.298.561.561 0 00-.293-.725h.005z" fill="#9DADF2"/><path d="M508.318 11.21c-3.715-3.72-8.659-5.763-13.918-5.763a19.565 19.565 0 00-13.917 5.762c-7.671 7.672-7.671 20.159 0 27.835 3.838 3.839 8.875 5.753 13.917 5.753 5.043 0 10.08-1.92 13.918-5.753 7.671-7.671 7.671-20.158 0-27.835zm-2.722 12.497a15.853 15.853 0 01-11.098 15.203.315.315 0 01-.195 0 15.853 15.853 0 01-11.098-15.203v-7.723c0-.129.077-.247.2-.299l10.877-4.347a.301.301 0 01.118-.02.31.31 0 01.119.02l10.877 4.353c.123.046.2.164.2.298v7.723-.005z" fill="#9DADF2"/><path d="M433.954 49.405c-13.506 0-24.491-10.99-24.491-24.491 0-13.5 10.99-24.49 24.491-24.49s24.491 10.99 24.491 24.49c0 13.5-10.99 24.49-24.491 24.49zm0-47.35c-12.605 0-22.86 10.254-22.86 22.859 0 12.605 10.255 22.86 22.86 22.86 12.606 0 22.86-10.255 22.86-22.86 0-12.606-10.254-22.86-22.86-22.86z" fill="#478BF9"/><path d="M449.931 7.442l-7.582 7.582 1.492 1.492 7.581-7.582-1.491-1.492zm-26.096 26.095l-7.582 7.582 1.491 1.492 7.582-7.582-1.491-1.492zm20.235.007l-1.491 1.492 7.581 7.582 1.492-1.492-7.582-7.581zM417.742 7.213l-1.491 1.492 7.578 7.578 1.492-1.491-7.579-7.579zm22.185 18.36a1.254 1.254 0 000-1.78l-1.049-1.045a1.254 1.254 0 00-1.78 0l-.566.566-.654-.654a1.254 1.254 0 00-1.78 0l-.566.572-.653-.659a1.256 1.256 0 00-1.781 0l-3.473 3.473c-.025.026-.025.067 0 .098a1.2 1.2 0 001.688 0l2.238-2.238a.618.618 0 01.875 0l.165.164c.03.031.03.078 0 .108l-1.868 1.868c-.026.026-.026.067 0 .098a1.198 1.198 0 001.687 0l2.146-2.146a.618.618 0 01.875 0l.164.165c.026.026.026.067 0 .098l-1.801 1.8c-.025.026-.025.067 0 .098a1.2 1.2 0 001.688 0l2.074-2.073a.617.617 0 01.874 0l.355.355a.363.363 0 010 .51l-.056.056a.364.364 0 01-.51 0l-.458-.458c-.025-.026-.067-.026-.097 0l-.793.792c-.025.026-.025.067 0 .098l.715.715a1.256 1.256 0 001.781 0l.566-.566-.006-.015z" fill="#478BF9"/><path d="M433.955 6.134c-10.373 0-18.78 8.407-18.78 18.78 0 10.372 8.407 18.78 18.78 18.78 10.372 0 18.779-8.408 18.779-18.78 0-10.373-8.407-18.78-18.779-18.78zm.766 5.799a12.957 12.957 0 017.872 3.262l-2.711 2.711a9.153 9.153 0 00-5.161-2.14v-3.833zm-1.528 0v3.833a9.117 9.117 0 00-5.16 2.14l-2.712-2.711a12.96 12.96 0 017.872-3.262zm-8.952 4.342l2.711 2.712a9.147 9.147 0 00-2.14 5.16h-3.833a12.96 12.96 0 013.262-7.872zm-3.262 9.4h3.833a9.113 9.113 0 002.14 5.16l-2.711 2.712a12.96 12.96 0 01-3.262-7.872zm12.214 12.215a12.96 12.96 0 01-7.872-3.262l2.712-2.712a9.153 9.153 0 005.16 2.14v3.834zm-7.131-12.981a7.893 7.893 0 117.893 7.893 7.894 7.894 0 01-7.893-7.893zm8.659 12.98v-3.832a9.118 9.118 0 005.161-2.14l2.711 2.71a12.957 12.957 0 01-7.872 3.263zm8.953-4.342l-2.712-2.711a9.155 9.155 0 002.141-5.16h3.833a12.96 12.96 0 01-3.262 7.871zm-.571-9.4a9.12 9.12 0 00-2.141-5.16l2.712-2.712a12.96 12.96 0 013.262 7.872h-3.833z" fill="#478BF9"/><path d="M352.143 42.167c-9.634-9.634-9.634-25.308 0-34.942 9.634-9.633 25.308-9.633 34.942 0 9.634 9.634 9.634 25.308 0 34.942s-25.308 9.634-34.942 0zM385.921 8.39c-8.992-8.992-23.621-8.992-32.611 0-8.992 8.992-8.992 23.621 0 32.61 8.992 8.993 23.621 8.993 32.611 0 8.992-8.991 8.992-23.62 0-32.61z" fill="#fff"/><path d="M386.188 19.455a.811.811 0 01-.197-.319 17.094 17.094 0 00-4.15-6.67 17.126 17.126 0 00-6.67-4.15.824.824 0 01-.56-.78V1.533a.825.825 0 011.022-.799 24.652 24.652 0 0111.447 6.492 24.676 24.676 0 016.49 11.447.82.82 0 01-.799 1.024h-6.005a.82.82 0 01-.583-.243l.005.002zm-3.182-8.153a18.773 18.773 0 014.346 6.747h4.344a23.046 23.046 0 00-5.778-9.66 23.012 23.012 0 00-9.657-5.775v4.344a18.71 18.71 0 016.747 4.346l-.002-.002zm-30.863 30.865a24.668 24.668 0 01-6.492-11.447.826.826 0 01.798-1.022h6.005c.354 0 .668.225.781.56a17.091 17.091 0 004.149 6.67 17.133 17.133 0 006.67 4.15c.335.112.56.426.56.78v6.005a.828.828 0 01-.316.649.827.827 0 01-.708.15 24.677 24.677 0 01-11.447-6.49v-.005zm-4.613-10.824a23.033 23.033 0 005.777 9.66 23.038 23.038 0 009.66 5.777v-4.343a18.748 18.748 0 01-6.748-4.344 18.787 18.787 0 01-4.346-6.748h-4.343v-.002zm27.326 17.098a.825.825 0 01-.241-.583v-6.005c0-.354.225-.668.56-.78a17.1 17.1 0 006.67-4.15 17.115 17.115 0 004.149-6.67.823.823 0 01.781-.56h6.004a.82.82 0 01.799 1.021 24.697 24.697 0 01-6.492 11.448 24.651 24.651 0 01-11.447 6.492.826.826 0 01-.705-.15c-.026-.023-.052-.044-.075-.067l-.003.004zm1.406-6.007v4.344a23.044 23.044 0 009.66-5.778 23.065 23.065 0 005.777-9.66h-4.343a18.74 18.74 0 01-4.346 6.748 18.754 18.754 0 01-6.748 4.346zm-30.396-22.979a.824.824 0 01-.215-.783 24.65 24.65 0 016.492-11.447A24.682 24.682 0 01363.59.733a.828.828 0 01.706.15.827.827 0 01.316.649v6.005a.822.822 0 01-.56.78 17.1 17.1 0 00-6.67 4.15 17.121 17.121 0 00-4.149 6.67.823.823 0 01-.781.56h-6.004a.826.826 0 01-.584-.24l.002-.002zm17.099-16.84a23.045 23.045 0 00-9.66 5.777 23.064 23.064 0 00-5.777 9.66h4.343a18.741 18.741 0 014.346-6.748 18.786 18.786 0 016.748-4.346V2.614z" fill="#fff"/><path d="M383.008 11.302c-7.385-7.385-19.404-7.387-26.789 0-7.387 7.387-7.385 19.404 0 26.789 7.385 7.385 19.402 7.387 26.789 0 7.387-7.387 7.385-19.404 0-26.789z" fill="#fff"/><path d="M376.445 31.458l-13.607.09a1.038 1.038 0 00-1.031 1.045l.003.484a1.038 1.038 0 001.045 1.032l13.607-.09a1.038 1.038 0 001.031-1.045l-.003-.485a1.038 1.038 0 00-1.045-1.031zm-11.753-8.214c-.148 0-.298-.033-.434-.098l-1.061-.514a.98.98 0 01-.48-1.246l.487-1.214a.978.978 0 011.392-.485l1.265.722a.979.979 0 01.321 1.406l-.694 1.005a.972.972 0 01-.799.422l.003.002zm9.794-.066a.98.98 0 01-.803-.412l-.687-.968c-.159-.222-.215-.503-.159-.77a.977.977 0 01.461-.64l1.305-.766a.98.98 0 011.399.466l.492 1.178a.984.984 0 01-.464 1.254l-1.11.555a.992.992 0 01-.431.103h-.003z" fill="#110A1D"/><path d="M363.623 30.638a1.413 1.413 0 01-1.338-.932l-2.27-6.249a2.437 2.437 0 01-1.02.234 2.397 2.397 0 01-.03-4.791 2.397 2.397 0 012.251 3.252c-.058.15-.131.293-.215.429l4.318 2.09 3.303-4.787a2.423 2.423 0 01-1.014-.818 2.38 2.38 0 01-.443-1.37 2.4 2.4 0 012.558-2.409 2.4 2.4 0 012.226 2.212 2.391 2.391 0 01-1.434 2.376l3.362 4.737 4.248-2.125a2.34 2.34 0 01-.276-1.104 2.394 2.394 0 114.789-.03 2.4 2.4 0 01-2.229 2.406l-.15.005a2.329 2.329 0 01-1.145-.284l-2.132 6.127a1.415 1.415 0 01-1.326.949l-12.033.08v.002z" fill="#110A1D"/><path d="M309.953 49.617c-6.277 0-12.549-2.387-17.329-7.167-9.554-9.554-9.554-25.098 0-34.652 4.631-4.63 10.784-7.177 17.329-7.177s12.698 2.546 17.329 7.177c9.554 9.554 9.554 25.098 0 34.652-4.775 4.775-11.052 7.167-17.329 7.167zm-16.042-8.453c8.844 8.844 23.235 8.844 32.079 0 8.845-8.844 8.845-23.235 0-32.08-4.286-4.286-9.981-6.642-16.042-6.642-6.061 0-11.757 2.362-16.043 6.642-8.844 8.845-8.844 23.236 0 32.08h.006z" fill="#9DADF2"/><path d="M309.629 34.29a.546.546 0 00.509.335.643.643 0 00.216-.041 12.711 12.711 0 004.549-3.247.552.552 0 00-.047-.777.552.552 0 00-.777.047 11.495 11.495 0 01-4.152 2.963.552.552 0 00-.293.72h-.005z" fill="#9DADF2"/><path d="M319.291 16.653L310.153 13a.57.57 0 00-.412 0l-9.137 3.653a.542.542 0 00-.345.51v6.544c.01 6.04 3.828 11.5 9.498 13.578a.588.588 0 00.381 0c5.67-2.084 9.487-7.538 9.498-13.578v-6.545a.542.542 0 00-.345-.509zm-.757 7.054c-.01 5.495-3.457 10.501-8.582 12.472-5.124-1.97-8.576-6.977-8.587-12.472v-6.169l8.587-3.432 8.582 3.432v6.169z" fill="#9DADF2"/><path d="M306.135 17.512a.546.546 0 00-.422 0l-2.176.87a.542.542 0 00-.345.51v2.32a.551.551 0 001.101 0v-1.945l1.826-.73a.558.558 0 00.304-.3.565.565 0 00-.293-.726h.005z" fill="#9DADF2"/><path d="M323.865 11.21c-3.715-3.72-8.66-5.763-13.918-5.763a19.565 19.565 0 00-13.917 5.762c-7.672 7.672-7.672 20.159 0 27.835 3.838 3.839 8.875 5.753 13.917 5.753s10.079-1.92 13.918-5.753c7.671-7.671 7.671-20.158 0-27.835zm-2.722 12.497a15.854 15.854 0 01-11.098 15.203.318.318 0 01-.196 0 15.856 15.856 0 01-11.098-15.203v-7.723c0-.129.078-.247.201-.299l10.877-4.347a.301.301 0 01.118-.02c.041 0 .082.005.118.02l10.877 4.353a.313.313 0 01.201.298v7.723-.005z" fill="#9DADF2"/><path d="M247.37 49.538c-13.506 0-24.49-10.99-24.49-24.491 0-13.5 10.99-24.49 24.49-24.49 13.501 0 24.491 10.99 24.491 24.49 0 13.5-10.99 24.49-24.491 24.49zm0-47.35c-12.605 0-22.859 10.253-22.859 22.859 0 12.605 10.254 22.86 22.859 22.86 12.606 0 22.86-10.255 22.86-22.86 0-12.606-10.254-22.86-22.86-22.86z" fill="#fff"/><path d="M255.314 9.75a.8.8 0 01-.36-.082 16.964 16.964 0 00-7.584-1.77c-2.66 0-5.212.597-7.584 1.77a.815.815 0 01-.937-.154l-4.208-4.21a.812.812 0 01-.232-.678.814.814 0 01.391-.602A24.449 24.449 0 01247.375.55c4.435 0 8.783 1.204 12.574 3.473.217.128.361.35.391.602a.827.827 0 01-.231.679l-4.209 4.21a.829.829 0 01-.581.236h-.005zm-7.944-3.483c2.711 0 5.325.566 7.774 1.682l3.046-3.045a22.817 22.817 0 00-10.82-2.722c-3.787 0-7.507.936-10.82 2.722l3.045 3.045a18.611 18.611 0 017.775-1.682zm-.001 43.27a24.498 24.498 0 01-12.575-3.473.814.814 0 01-.391-.602.827.827 0 01.232-.679l4.209-4.209a.815.815 0 01.936-.154 16.964 16.964 0 007.584 1.77c2.66 0 5.212-.597 7.584-1.77a.814.814 0 01.936.154l4.209 4.21c.18.18.262.426.231.678a.814.814 0 01-.391.602 24.445 24.445 0 01-12.574 3.473h.01zm-10.82-4.352a22.812 22.812 0 0010.82 2.721c3.787 0 7.507-.936 10.82-2.721l-3.046-3.046a18.606 18.606 0 01-7.774 1.682c-2.711 0-5.325-.566-7.774-1.682l-3.046 3.045zm31.14-7.173a.808.808 0 01-.576-.237l-4.209-4.208a.814.814 0 01-.154-.937 16.964 16.964 0 001.77-7.584c0-2.66-.597-5.212-1.77-7.583a.812.812 0 01.154-.937l4.209-4.208a.812.812 0 01.679-.232c.252.03.473.175.602.391a24.448 24.448 0 013.473 12.575c0 4.435-1.199 8.782-3.473 12.574a.814.814 0 01-.602.391h-.103v-.005zm-3.226-5.196l3.046 3.045a22.818 22.818 0 002.722-10.82c0-3.787-.937-7.506-2.722-10.82l-3.046 3.046a18.613 18.613 0 011.682 7.774c0 2.712-.566 5.325-1.682 7.775zm-37.411 5.196c-.036 0-.067 0-.098-.005a.814.814 0 01-.602-.39 24.448 24.448 0 01-3.473-12.575c0-4.436 1.199-8.783 3.473-12.575a.814.814 0 01.602-.391.828.828 0 01.679.231l4.209 4.21a.816.816 0 01.155.936 16.951 16.951 0 00-1.77 7.583c0 2.66.596 5.212 1.77 7.584a.813.813 0 01-.155.937l-4.209 4.208a.813.813 0 01-.576.242l-.005.005zm.18-23.79a22.818 22.818 0 00-2.722 10.82c0 3.786.937 7.506 2.722 10.82l3.046-3.046a18.613 18.613 0 01-1.682-7.774c0-2.712.566-5.326 1.682-7.775l-3.046-3.046z" fill="#fff"/><path d="M247.371 6.267c-10.352 0-18.78 8.423-18.78 18.78 0 10.357 8.423 18.78 18.78 18.78 10.357 0 18.779-8.423 18.779-18.78 0-10.357-8.422-18.78-18.779-18.78zm10.568 12.61a12.1 12.1 0 011.605 4.95.183.183 0 01-.087.175 15.747 15.747 0 00-3.587 3.01.168.168 0 01-.19.052l-2.32-.757a.178.178 0 01-.124-.149 16.14 16.14 0 00-1.775-5.464.182.182 0 01.015-.19l1.436-1.976a.196.196 0 01.149-.077h.041c1.534.34 3.108.453 4.672.324a.186.186 0 01.175.092l-.01.01zm-5.969 7.605a.183.183 0 01-.041.14 12.282 12.282 0 01-4.486 3.25.164.164 0 01-.139 0 12.404 12.404 0 01-4.487-3.25.187.187 0 01-.041-.14 14.897 14.897 0 011.719-5.289.168.168 0 01.118-.087 13.429 13.429 0 015.526 0c.051.01.092.04.118.087a15.017 15.017 0 011.719 5.29h-.006zm-.277-12.77s.061-.051.123-.051a.13.13 0 01.072.015 12.335 12.335 0 014.903 3.566.17.17 0 01.026.19.177.177 0 01-.165.108 14.166 14.166 0 01-3.457-.386.181.181 0 01-.113-.082 14.59 14.59 0 01-1.436-3.175.17.17 0 01.052-.185h-.005zm-6.921-.617a12.48 12.48 0 015.202 0 .183.183 0 01.139.133c.365 1.529.957 2.99 1.755 4.343a.19.19 0 01-.011.2l-1.425 1.966a.178.178 0 01-.18.072 14.652 14.652 0 00-5.757 0 .18.18 0 01-.181-.072l-1.425-1.965a.189.189 0 01-.01-.201 15.775 15.775 0 001.754-4.343.186.186 0 01.139-.133zm-6.817 4.147a12.237 12.237 0 014.903-3.566.173.173 0 01.196.036.174.174 0 01.051.185 14.429 14.429 0 01-1.435 3.175.184.184 0 01-.113.082c-1.127.268-2.29.401-3.458.386a.175.175 0 01-.164-.108.169.169 0 01.025-.19h-.005zm-1.147 1.636a.18.18 0 01.159-.093h.016c1.569.124 3.143.016 4.671-.324a.175.175 0 01.186.072l1.435 1.976a.185.185 0 01.016.19 16.14 16.14 0 00-1.775 5.464.194.194 0 01-.124.15l-2.32.756a.189.189 0 01-.191-.052 15.721 15.721 0 00-3.586-3.01.193.193 0 01-.087-.175 12.074 12.074 0 011.605-4.95l-.005-.004zm.561 12.677a.181.181 0 01-.155.124c-.036 0-.118 0-.175-.083a12.21 12.21 0 01-1.873-5.767.176.176 0 01.093-.17c.031-.015.113-.051.196.01a14.305 14.305 0 012.572 2.346.175.175 0 01.041.134 14.07 14.07 0 01-.705 3.411l.006-.005zm5.083 4.698a12.159 12.159 0 01-4.204-3.067.188.188 0 01-.036-.19c.602-1.451.983-2.98 1.132-4.543a.177.177 0 01.124-.155l2.295-.746s.036-.01.056-.01a.17.17 0 01.134.062 13.691 13.691 0 004.661 3.39.18.18 0 01.108.165v2.413a.174.174 0 01-.108.165 15.75 15.75 0 00-3.977 2.485.172.172 0 01-.19.026l.005.005zm8.093.51a.172.172 0 01-.134.143 12.372 12.372 0 01-6.071 0 .181.181 0 01-.134-.144.182.182 0 01.072-.185 14.377 14.377 0 013.031-1.724.164.164 0 01.139 0 14.598 14.598 0 013.03 1.724c.083.062.078.15.072.185h-.005zm5.963-3.572a12.13 12.13 0 01-4.203 3.062.182.182 0 01-.191-.026 15.631 15.631 0 00-3.977-2.485.18.18 0 01-.108-.165v-2.413c0-.072.041-.139.108-.164a13.639 13.639 0 004.662-3.391.173.173 0 01.134-.062c.02 0 .036 0 .056.01l2.295.747c.067.02.118.082.123.154a15.81 15.81 0 001.132 4.543.174.174 0 01-.036.19h.005zm1.204-1.59a.176.176 0 01-.175.083c-.036 0-.118-.026-.154-.124a14.664 14.664 0 01-.705-3.41.21.21 0 01.041-.135 14.502 14.502 0 012.573-2.346.178.178 0 01.103-.036c.041 0 .072.016.092.026a.168.168 0 01.093.17 12.21 12.21 0 01-1.873 5.767l.005.006z" fill="#fff"/><path d="M186.342 49.617c-6.277 0-12.549-2.387-17.329-7.167-9.554-9.554-9.554-25.098 0-34.652 4.631-4.63 10.784-7.177 17.329-7.177 6.544 0 12.698 2.546 17.328 7.177 9.555 9.554 9.555 25.098 0 34.652-4.774 4.775-11.051 7.167-17.328 7.167zm-16.043-8.453c8.845 8.844 23.236 8.844 32.08 0 8.844-8.844 8.844-23.235 0-32.08-4.286-4.286-9.982-6.642-16.042-6.642-6.061 0-11.757 2.362-16.043 6.642-8.844 8.845-8.844 23.236 0 32.08h.005z" fill="#9DADF2"/><path d="M186.018 34.295a.547.547 0 00.509.335.643.643 0 00.216-.041 12.699 12.699 0 004.548-3.247.552.552 0 00-.046-.777.552.552 0 00-.777.046 11.503 11.503 0 01-4.152 2.964.551.551 0 00-.293.72h-.005z" fill="#9DADF2"/><path d="M195.679 16.653L186.542 13a.57.57 0 00-.412 0l-9.138 3.653a.542.542 0 00-.344.51v6.544c.01 6.04 3.828 11.5 9.498 13.578a.584.584 0 00.38 0c5.67-2.084 9.488-7.538 9.498-13.578v-6.545a.542.542 0 00-.345-.509zm-.756 7.054c-.01 5.495-3.457 10.501-8.582 12.472-5.124-1.97-8.577-6.977-8.587-12.472v-6.169l8.587-3.432 8.582 3.432v6.169z" fill="#9DADF2"/><path d="M182.524 17.512a.546.546 0 00-.422 0l-2.177.87a.54.54 0 00-.344.51v2.32a.551.551 0 001.101 0v-1.945l1.826-.731a.55.55 0 00.304-.72.566.566 0 00-.294-.304h.006z" fill="#9DADF2"/><path d="M200.253 11.21c-3.714-3.72-8.659-5.763-13.917-5.763a19.567 19.567 0 00-13.918 5.762c-7.671 7.672-7.671 20.159 0 27.835 3.839 3.839 8.876 5.753 13.918 5.753s10.079-1.92 13.917-5.753c7.672-7.671 7.672-20.158 0-27.835zm-2.721 12.497a15.856 15.856 0 01-11.098 15.203.318.318 0 01-.196 0 15.854 15.854 0 01-11.098-15.203v-7.723c0-.129.077-.247.201-.299l10.876-4.347a.306.306 0 01.119-.02c.041 0 .082.005.118.02l10.877 4.353a.314.314 0 01.201.298v7.723-.005z" fill="#9DADF2"/><path d="M125.889 49.405c-13.506 0-24.49-10.99-24.49-24.491 0-13.5 10.99-24.49 24.49-24.49 13.501 0 24.491 10.99 24.491 24.49 0 13.5-10.99 24.49-24.491 24.49zm0-47.35c-12.605 0-22.859 10.254-22.859 22.859 0 12.605 10.254 22.86 22.859 22.86 12.606 0 22.86-10.255 22.86-22.86 0-12.606-10.254-22.86-22.86-22.86z" fill="#478BF9"/><path d="M141.866 7.442l-7.582 7.581 1.492 1.492 7.582-7.582-1.492-1.491zM115.77 33.537l-7.582 7.582 1.492 1.492 7.581-7.582-1.491-1.492zm20.236.007l-1.492 1.492 7.582 7.582 1.491-1.492-7.581-7.581zM109.678 7.213l-1.492 1.492 7.578 7.578 1.492-1.491-7.578-7.579zm22.185 18.36a1.254 1.254 0 000-1.78l-1.05-1.045a1.254 1.254 0 00-1.78 0l-.566.566-.653-.654a1.256 1.256 0 00-1.781 0l-.566.572-.653-.659a1.254 1.254 0 00-1.78 0l-3.473 3.473c-.026.026-.026.067 0 .098a1.198 1.198 0 001.687 0l2.239-2.238a.617.617 0 01.874 0l.165.164a.074.074 0 010 .108l-1.868 1.868c-.026.026-.026.067 0 .098a1.2 1.2 0 001.688 0l2.145-2.146a.618.618 0 01.875 0l.165.165c.025.026.025.067 0 .098l-1.801 1.8c-.026.026-.026.067 0 .098a1.198 1.198 0 001.687 0l2.074-2.073a.618.618 0 01.875 0l.355.355a.365.365 0 010 .51l-.057.056a.363.363 0 01-.509 0l-.458-.458c-.026-.026-.067-.026-.098 0l-.792.792c-.026.026-.026.067 0 .098l.715.715a1.254 1.254 0 001.78 0l.566-.566-.005-.015z" fill="#478BF9"/><path d="M125.89 6.134c-10.373 0-18.78 8.407-18.78 18.78 0 10.372 8.407 18.78 18.78 18.78 10.373 0 18.78-8.408 18.78-18.78 0-10.373-8.407-18.78-18.78-18.78zm.767 5.799a12.96 12.96 0 017.872 3.262l-2.712 2.711a9.153 9.153 0 00-5.16-2.14v-3.833zm-1.529 0v3.833a9.117 9.117 0 00-5.16 2.14l-2.712-2.711a12.96 12.96 0 017.872-3.262zm-8.952 4.342l2.711 2.712a9.16 9.16 0 00-2.14 5.16h-3.833a12.96 12.96 0 013.262-7.872zm-3.262 9.4h3.833a9.126 9.126 0 002.14 5.16l-2.711 2.712a12.96 12.96 0 01-3.262-7.872zm12.214 12.215a12.96 12.96 0 01-7.872-3.262l2.712-2.712a9.153 9.153 0 005.16 2.14v3.834zm-7.131-12.981a7.894 7.894 0 0115.786 0 7.894 7.894 0 01-15.786 0zm8.66 12.98v-3.832a9.117 9.117 0 005.16-2.14l2.712 2.71a12.96 12.96 0 01-7.872 3.263zm8.952-4.342l-2.711-2.711a9.16 9.16 0 002.14-5.16h3.833a12.96 12.96 0 01-3.262 7.871zm-.571-9.4a9.126 9.126 0 00-2.14-5.16l2.711-2.712a12.96 12.96 0 013.262 7.872h-3.833z" fill="#478BF9"/><path d="M44.079 42.17c-9.634-9.634-9.634-25.308 0-34.942s25.308-9.634 34.942 0 9.634 25.308 0 34.942-25.308 9.634-34.942 0zM77.856 8.392c-8.991-8.992-23.62-8.992-32.61 0-8.992 8.992-8.992 23.621 0 32.611 8.992 8.992 23.62 8.992 32.61 0 8.993-8.992 8.993-23.621 0-32.61z" fill="#fff"/><path d="M78.125 19.458a.813.813 0 01-.197-.319 17.095 17.095 0 00-4.149-6.67 17.134 17.134 0 00-6.67-4.15.824.824 0 01-.56-.78V1.536a.822.822 0 011.022-.799 24.653 24.653 0 0111.447 6.492 24.68 24.68 0 016.49 11.447.833.833 0 01-.15.708.82.82 0 01-.65.316h-6.004a.822.822 0 01-.583-.243l.004.002zm-3.181-8.153a18.773 18.773 0 014.346 6.747h4.343a23.04 23.04 0 00-5.777-9.66 23.017 23.017 0 00-9.657-5.775v4.344a18.711 18.711 0 016.747 4.346l-.002-.002zM44.078 42.17a24.673 24.673 0 01-6.492-11.447.82.82 0 01.799-1.021h6.005a.82.82 0 01.78.56 17.097 17.097 0 004.15 6.67 17.134 17.134 0 006.67 4.149c.335.112.56.426.56.78v6.005a.826.826 0 01-1.024.799 24.681 24.681 0 01-11.447-6.49v-.005zm-4.613-10.824a23.038 23.038 0 005.778 9.66 23.039 23.039 0 009.66 5.777V42.44a18.738 18.738 0 01-6.748-4.344 18.775 18.775 0 01-4.346-6.748h-4.344v-.002zM66.79 48.444a.822.822 0 01-.24-.583v-6.005a.82.82 0 01.559-.78 17.096 17.096 0 006.67-4.15 17.124 17.124 0 004.15-6.67.822.822 0 01.78-.56h6.004a.82.82 0 01.799 1.021 24.705 24.705 0 01-6.492 11.448 24.653 24.653 0 01-11.447 6.492.827.827 0 01-.705-.15c-.026-.023-.052-.044-.075-.068l-.003.005zm1.406-6.007v4.344a23.039 23.039 0 009.66-5.778 23.065 23.065 0 005.778-9.66H79.29a18.732 18.732 0 01-4.346 6.748 18.744 18.744 0 01-6.748 4.346zM37.802 19.458a.824.824 0 01-.216-.783A24.652 24.652 0 0144.08 7.229 24.684 24.684 0 0155.526.736a.827.827 0 01.705.15c.2.157.317.396.317.649V7.54a.822.822 0 01-.56.78 17.097 17.097 0 00-6.67 4.15 17.135 17.135 0 00-4.15 6.67.822.822 0 01-.78.56h-6.005a.826.826 0 01-.583-.24l.002-.002zm17.099-16.84a23.038 23.038 0 00-9.66 5.777 23.062 23.062 0 00-5.778 9.66h4.344a18.73 18.73 0 014.346-6.748 18.773 18.773 0 016.748-4.346V2.617z" fill="#fff"/><path d="M74.946 11.305c-7.385-7.385-19.404-7.388-26.79 0-7.386 7.387-7.384 19.404 0 26.788 7.386 7.385 19.402 7.387 26.79 0 7.387-7.387 7.384-19.404 0-26.788z" fill="#fff"/><path d="M68.38 31.46l-13.607.09a1.038 1.038 0 00-1.03 1.045l.002.485a1.038 1.038 0 001.045 1.031l13.607-.09a1.038 1.038 0 001.031-1.045l-.003-.485a1.038 1.038 0 00-1.044-1.031zm-11.753-8.214a.993.993 0 01-.433-.098l-1.062-.513a.98.98 0 01-.48-1.247l.487-1.213a.977.977 0 011.392-.485l1.265.721a.977.977 0 01.321 1.406l-.693 1.005a.973.973 0 01-.8.422l.003.002zm9.797-.066a.982.982 0 01-.804-.412l-.686-.967a.977.977 0 01.302-1.41l1.305-.767a.98.98 0 011.399.466l.492 1.179a.984.984 0 01-.464 1.253l-1.11.556a.989.989 0 01-.432.103h-.002z" fill="#110A1D"/><path d="M55.558 30.64a1.414 1.414 0 01-1.338-.932l-2.27-6.248a2.411 2.411 0 01-1.342.215 2.398 2.398 0 01-2.088-2.36 2.396 2.396 0 114.416 1.268l4.318 2.09 3.304-4.786a2.418 2.418 0 01-1.014-.818 2.382 2.382 0 01-.443-1.37 2.4 2.4 0 012.38-2.414 2.401 2.401 0 012.404 2.216 2.39 2.39 0 01-1.434 2.376l3.362 4.738 4.248-2.125a2.48 2.48 0 01-.19-.478 2.332 2.332 0 01-.087-.626 2.395 2.395 0 114.789-.03c.01 1.26-.97 2.32-2.228 2.406l-.15.004a2.43 2.43 0 01-.715-.103 2.323 2.323 0 01-.43-.18l-2.133 6.127a1.414 1.414 0 01-1.326.948l-12.033.08v.002z" fill="#110A1D"/><path d="M1.8.192h59.117a.88.88 0 110 1.76H1.8a.88.88 0 110-1.76zM1.671 47.42h59.117a.88.88 0 110 1.76H1.672a.88.88 0 110-1.76z" fill="#fff"/></g></svg>