<svg width="100" height="1335" fill="none" xmlns="http://www.w3.org/2000/svg"><g opacity=".2"><path d="M49.733 1334.22c-12.699 0-25.387-4.83-35.057-14.5-19.329-19.33-19.329-50.77 0-70.1 9.368-9.37 21.817-14.52 35.057-14.52 13.24 0 25.688 5.15 35.056 14.52 19.329 19.33 19.329 50.77 0 70.1-9.66 9.66-22.358 14.5-35.056 14.5zm-32.454-17.1c17.892 17.89 47.005 17.89 64.897 0 17.893-17.89 17.893-47.01 0-64.9-8.67-8.67-20.192-13.44-32.454-13.44-12.261 0-23.784 4.78-32.454 13.44-17.892 17.89-17.892 47.01 0 64.9h.01z" fill="#9DADF2"/><path d="M49.077 1303.21c.177.43.593.68 1.03.68.146 0 .292-.03.438-.08a25.747 25.747 0 009.2-6.57 1.114 1.114 0 00-1.665-1.48 23.39 23.39 0 01-8.4 6c-.561.23-.832.89-.593 1.45h-.01z" fill="#9DADF2"/><path d="M68.623 1267.53l-18.486-7.39c-.27-.1-.562-.1-.833 0l-18.486 7.39c-.426.17-.697.57-.697 1.03v13.24c.02 12.22 7.744 23.27 19.215 27.47a1.24 1.24 0 00.77 0c11.47-4.22 19.193-15.25 19.214-27.47v-13.24c0-.46-.27-.86-.697-1.03zm-1.53 14.27c-.021 11.12-6.995 21.25-17.362 25.23-10.367-3.98-17.351-14.11-17.372-25.23v-12.48l17.372-6.94 17.362 6.94v12.48z" fill="#9DADF2"/><path d="M42.008 1269.27c-.27-.11-.572-.11-.853 0l-4.403 1.76c-.427.17-.697.57-.697 1.03v4.69c0 .62.5 1.12 1.113 1.12.614 0 1.114-.5 1.114-1.12v-3.93l3.695-1.48c.281-.11.49-.32.614-.6a1.12 1.12 0 000-.86 1.122 1.122 0 00-.593-.61h.01z" fill="#9DADF2"/><path d="M77.888 1256.52c-7.515-7.53-17.518-11.66-28.156-11.66-10.637 0-20.63 4.14-28.155 11.66-15.52 15.52-15.52 40.78 0 56.31 7.765 7.77 17.955 11.64 28.155 11.64 10.2 0 20.39-3.89 28.156-11.64 15.519-15.52 15.519-40.78 0-56.31zm-5.507 25.28c.032 14.13-8.993 26.48-22.45 30.76a.667.667 0 01-.396 0c-13.459-4.28-22.483-16.63-22.452-30.76v-15.62c0-.26.156-.5.406-.6l22.004-8.8a.633.633 0 01.24-.04c.083 0 .166.01.239.04l22.004 8.81c.25.09.406.33.406.6v15.62-.01z" fill="#9DADF2"/><path d="M49.733 1207.61c-27.323 0-49.545-22.23-49.545-49.55 0-27.31 22.232-49.54 49.545-49.54 27.312 0 49.545 22.23 49.545 49.54 0 27.32-22.233 49.55-49.545 49.55zm0-95.79c-25.502 0-46.246 20.74-46.246 46.24 0 25.51 20.744 46.25 46.246 46.25 25.5 0 46.245-20.74 46.245-46.25 0-25.5-20.744-46.24-46.245-46.24z" fill="#7DDACF"/><path d="M82.065 1122.71l-15.338 15.34 3.017 3.02 15.338-15.34-3.017-3.02zm-52.801 52.8l-15.338 15.34 3.017 3.02 15.338-15.34-3.017-3.02zm40.929.01l-3.017 3.02 15.338 15.33 3.018-3.01-15.339-15.34zm-53.253-53.26l-3.018 3.01 15.33 15.34 3.018-3.02-15.33-15.33zm44.877 37.14c.999-1 .999-2.62 0-3.6l-2.124-2.12c-.999-1-2.612-1-3.601 0l-1.145 1.15-1.322-1.32c-1-1-2.612-1-3.601 0l-1.145 1.15-1.322-1.33c-1-1-2.613-1-3.602 0l-7.025 7.02a.147.147 0 000 .2 2.42 2.42 0 003.414 0l4.527-4.53c.49-.48 1.28-.48 1.77 0l.333.34c.063.06.063.15 0 .22l-3.778 3.77a.147.147 0 000 .2 2.42 2.42 0 003.414 0l4.34-4.34a1.25 1.25 0 011.77 0l.333.34c.052.05.052.13 0 .19l-3.643 3.65c-.052.05-.052.13 0 .19a2.42 2.42 0 003.414 0l4.194-4.19a1.25 1.25 0 011.77 0l.718.72c.281.28.281.75 0 1.03l-.114.11a.737.737 0 01-1.03 0l-.927-.92c-.052-.06-.136-.06-.198 0l-1.603 1.6c-.052.05-.052.13 0 .2l1.447 1.44c.999 1 2.612 1 3.601 0l1.145-1.14-.01-.03z" fill="#7DDACF"/><path d="M49.734 1120.07c-20.984 0-37.992 17.01-37.992 37.99 0 20.99 17.008 38 37.992 38 20.983 0 37.991-17.01 37.991-38 0-20.98-17.007-37.99-37.991-37.99zm1.55 11.73c6.1.36 11.638 2.79 15.926 6.6l-5.485 5.49c-2.863-2.43-6.475-4-10.44-4.33v-7.76zm-3.09 0v7.76c-3.966.32-7.578 1.9-10.44 4.33l-5.486-5.49a26.249 26.249 0 0115.925-6.6zm-18.112 8.79l5.486 5.48a18.556 18.556 0 00-4.33 10.44h-7.755c.354-6.1 2.79-11.63 6.6-15.92zm-6.599 19.02h7.755a18.485 18.485 0 004.33 10.44l-5.486 5.48a26.225 26.225 0 01-6.599-15.92zm24.71 24.71a26.249 26.249 0 01-15.925-6.6l5.485-5.49c2.863 2.43 6.475 4 10.44 4.33v7.76zm-14.426-26.27c0-8.81 7.15-15.96 15.967-15.96 8.816 0 15.967 7.15 15.967 15.96 0 8.82-7.151 15.97-15.967 15.97s-15.967-7.15-15.967-15.97zm17.518 26.27v-7.76c3.965-.32 7.577-1.9 10.44-4.33l5.485 5.49a26.248 26.248 0 01-15.925 6.6zm18.11-8.79l-5.485-5.48a18.556 18.556 0 004.33-10.44h7.755c-.354 6.09-2.79 11.63-6.6 15.92zm-1.155-19.02a18.485 18.485 0 00-4.33-10.44l5.486-5.48c3.81 4.29 6.245 9.82 6.599 15.92H68.24z" fill="#7DDACF"/><path d="M49.877 1084.15c-27.323 0-49.545-22.23-49.545-49.54s22.233-49.548 49.545-49.548 49.545 22.238 49.545 49.548c0 27.31-22.233 49.54-49.545 49.54zm0-95.788c-25.501 0-46.246 20.748-46.246 46.248 0 25.5 20.745 46.24 46.246 46.24s46.246-20.74 46.246-46.24c0-25.5-20.745-46.248-46.246-46.248z" fill="#9DADF2"/><path d="M65.951 1003.67c-.25 0-.5-.05-.728-.16-4.799-2.38-9.961-3.584-15.343-3.584-5.38 0-10.544 1.204-15.342 3.584-.635.31-1.395.18-1.894-.32l-8.515-8.51a1.642 1.642 0 01-.468-1.374 1.65 1.65 0 01.791-1.218 49.463 49.463 0 0125.439-7.026 49.558 49.558 0 0125.438 7.026c.438.261.73.708.792 1.218.062.51-.115 1.01-.469 1.374l-8.514 8.51c-.323.32-.74.48-1.176.48h-.01zm-16.07-7.044a37.636 37.636 0 0115.727 3.404l6.162-6.162a46.15 46.15 0 00-21.89-5.506 46.15 46.15 0 00-21.889 5.506l6.162 6.162a37.636 37.636 0 0115.727-3.404zm-.002 87.524a49.553 49.553 0 01-25.44-7.02 1.65 1.65 0 01-.79-1.22c-.063-.51.114-1.01.468-1.38l8.515-8.51c.5-.5 1.27-.62 1.894-.31a34.359 34.359 0 0015.342 3.58 34.36 34.36 0 0015.343-3.58 1.65 1.65 0 011.894.31l8.514 8.51c.365.37.531.87.469 1.38a1.65 1.65 0 01-.791 1.22 49.457 49.457 0 01-25.44 7.02h.022zm-21.89-8.8a46.167 46.167 0 0021.89 5.5c7.66 0 15.186-1.89 21.889-5.5l-6.162-6.17a37.627 37.627 0 01-15.727 3.41 37.626 37.626 0 01-15.728-3.41l-6.162 6.17zm62.994-14.5c-.438 0-.854-.17-1.166-.48l-8.514-8.52c-.5-.49-.625-1.27-.313-1.89 2.374-4.8 3.58-9.96 3.58-15.34 0-5.38-1.206-10.55-3.58-15.34a1.652 1.652 0 01.313-1.9l8.514-8.51c.364-.37.864-.53 1.374-.47.51.06.957.35 1.218.79a49.464 49.464 0 017.025 25.44c0 8.97-2.425 17.77-7.025 25.44-.26.43-.708.73-1.218.79h-.208v-.01zm-6.527-10.52l6.162 6.17a46.177 46.177 0 005.506-21.89c0-7.66-1.894-15.19-5.506-21.89l-6.162 6.16c2.26 4.95 3.404 10.24 3.404 15.73a37.61 37.61 0 01-3.404 15.72zm-75.683 10.52c-.073 0-.135 0-.198-.01-.51-.07-.957-.36-1.218-.79a49.49 49.49 0 01-7.025-25.44c0-8.97 2.425-17.77 7.025-25.44.26-.44.708-.73 1.218-.79.51-.06 1.01.11 1.374.47l8.514 8.51c.5.5.625 1.27.313 1.89a34.36 34.36 0 00-3.58 15.35c0 5.38 1.207 10.54 3.58 15.34.312.63.187 1.4-.313 1.89l-8.514 8.52c-.312.31-.728.49-1.166.49l-.01.01zm.364-48.13a46.148 46.148 0 00-5.506 21.89c0 7.66 1.895 15.18 5.506 21.89l6.162-6.17a37.61 37.61 0 01-3.403-15.72c0-5.49 1.145-10.78 3.403-15.73l-6.162-6.16z" fill="#9DADF2"/><path d="M49.878 996.616c-20.942 0-37.991 17.044-37.991 37.994s17.038 37.99 37.991 37.99 37.992-17.04 37.992-37.99c0-20.95-17.04-37.994-37.992-37.994zm21.38 25.514c1.8 3.08 2.893 6.44 3.247 10.01.01.15-.052.28-.177.35a32.036 32.036 0 00-7.255 6.09.338.338 0 01-.385.11l-4.694-1.53a.363.363 0 01-.25-.3c-.53-3.89-1.738-7.6-3.591-11.06a.36.36 0 01.031-.38l2.904-4a.412.412 0 01.302-.16h.083c3.102.69 6.287.92 9.451.66a.37.37 0 01.354.19l-.02.02zm-12.075 15.38c.01.11-.02.21-.083.28a24.908 24.908 0 01-9.076 6.58.344.344 0 01-.281 0 25.14 25.14 0 01-9.077-6.58.365.365 0 01-.083-.28 30.126 30.126 0 013.477-10.7.392.392 0 01.24-.18 27.53 27.53 0 015.589-.58c1.883 0 3.757.2 5.589.58.104.03.187.09.24.18a30.333 30.333 0 013.476 10.7h-.01zm-.562-25.83s.125-.11.25-.11c.042 0 .094 0 .146.03 3.83 1.52 7.255 4.02 9.92 7.22.135.15.083.32.051.38a.347.347 0 01-.333.22c-2.362.03-4.715-.24-6.994-.78a.35.35 0 01-.23-.17c-1.217-2-2.195-4.17-2.903-6.42a.334.334 0 01.104-.37h-.01zm-14-1.25c3.446-.74 7.079-.74 10.524 0 .135.03.25.13.28.27a31.793 31.793 0 003.55 8.78c.073.13.063.29-.02.41l-2.884 3.98a.368.368 0 01-.364.14 29.65 29.65 0 00-11.647 0 .368.368 0 01-.365-.14l-2.883-3.98a.387.387 0 01-.02-.41 31.796 31.796 0 003.549-8.78.363.363 0 01.28-.27zm-13.79 8.39c2.664-3.21 6.088-5.71 9.919-7.22a.422.422 0 01.145-.03c.136 0 .219.08.25.11a.34.34 0 01.104.37 29.05 29.05 0 01-2.904 6.42.35.35 0 01-.229.17c-2.28.54-4.631.81-6.994.78a.347.347 0 01-.333-.22.337.337 0 01.052-.38h-.01zm-2.322 3.31a.36.36 0 01.323-.19h.031c3.175.25 6.36.03 9.451-.66.146-.03.292.03.375.15l2.904 4a.36.36 0 01.031.38 32.683 32.683 0 00-3.59 11.06.39.39 0 01-.25.3l-4.695 1.53a.373.373 0 01-.385-.11 31.741 31.741 0 00-7.255-6.08.402.402 0 01-.177-.36 24.407 24.407 0 013.248-10.01l-.01-.01zm1.135 25.64c-.063.2-.24.24-.313.25-.072 0-.239 0-.353-.16a24.723 24.723 0 01-3.79-11.67.346.346 0 01.188-.34c.063-.03.23-.11.396.02a28.744 28.744 0 015.204 4.74c.063.08.094.17.083.27a28.581 28.581 0 01-1.426 6.91l.01-.02zm10.284 9.51a24.586 24.586 0 01-8.504-6.21.367.367 0 01-.073-.38 31.92 31.92 0 002.29-9.19c.01-.15.114-.27.25-.31l4.642-1.51s.073-.02.114-.02c.104 0 .198.04.27.12a27.599 27.599 0 009.431 6.86c.135.06.219.19.219.33v4.88c0 .15-.084.29-.219.34a31.618 31.618 0 00-8.046 5.03.36.36 0 01-.385.05l.01.01zm16.372 1.03a.347.347 0 01-.27.29 25.032 25.032 0 01-12.283 0 .363.363 0 01-.27-.29.378.378 0 01.146-.38 28.99 28.99 0 016.13-3.48.282.282 0 01.281 0c2.165.9 4.226 2.08 6.131 3.48.166.13.156.31.146.38h-.01zm12.064-7.23a24.558 24.558 0 01-8.504 6.2.378.378 0 01-.385-.05 31.438 31.438 0 00-8.046-5.03.362.362 0 01-.218-.33v-4.89c0-.14.083-.28.218-.33a27.5 27.5 0 009.43-6.86.357.357 0 01.27-.12.23.23 0 01.115.02l4.643 1.51a.35.35 0 01.25.31 31.998 31.998 0 002.29 9.19.35.35 0 01-.074.38h.01zm2.435-3.21c-.114.18-.291.18-.353.16a.357.357 0 01-.313-.24 29.603 29.603 0 01-1.426-6.91c0-.09.021-.19.084-.27a29.114 29.114 0 015.204-4.74.391.391 0 01.208-.08c.083 0 .146.04.187.06a.33.33 0 01.188.34 24.724 24.724 0 01-3.789 11.67l.01.01z" fill="#9DADF2"/><path d="M99.111 912.285c0 27.323-22.233 49.556-49.556 49.556C22.234 961.841 0 939.608 0 912.285c0-27.322 22.233-49.555 49.556-49.555 27.322 0 49.555 22.233 49.555 49.555zm-95.54 0c0 25.356 20.63 45.986 45.985 45.986s45.985-20.63 45.985-45.986c0-25.355-20.63-45.985-45.985-45.985-25.356 0-45.986 20.63-45.986 45.985zM99.114 791.15a1.779 1.779 0 11-3.56 0c0-25.356-20.63-45.986-45.986-45.986-25.355 0-45.985 20.63-45.985 45.986a1.78 1.78 0 11-3.56 0c0-27.323 22.233-49.556 49.556-49.556 27.323 0 49.555 22.233 49.555 49.556h-.02z" fill="#478BF9"/><path d="M40.012 903.532a3.952 3.952 0 003.008 3.841l3.362.843v-8.65h-2.394a3.971 3.971 0 00-3.966 3.966h-.01zm12.718 21.473h2.393a3.971 3.971 0 003.966-3.966 3.952 3.952 0 00-3.008-3.84l-3.362-.844v8.65h.01z" fill="#478BF9"/><path d="M49.556 871.962c-22.232 0-40.333 18.091-40.333 40.334 0 22.243 18.09 40.333 40.333 40.333 22.244 0 40.334-18.09 40.334-40.333s-18.09-40.334-40.334-40.334zm15.905 33.964H59.1v-3.185a3.191 3.191 0 00-3.185-3.185H52.73v10.242l4.902 1.228a10.31 10.31 0 017.817 10.013c0 5.694-4.632 10.325-10.325 10.325H52.73v8.057h-6.36v-8.057h-3.185c-5.267 0-9.544-4.277-9.544-9.544v-3.185h6.36v3.185a3.192 3.192 0 003.184 3.185h3.185v-10.242l-4.902-1.229a10.31 10.31 0 01-7.817-10.013c0-5.693 4.632-10.325 10.325-10.325h2.394v-8.056h6.36v8.056h3.185c5.267 0 9.545 4.278 9.545 9.545v3.185zM99.173 790.39v119.595a1.779 1.779 0 11-3.56 0V790.39a1.78 1.78 0 113.56 0zm-95.535-.26v119.595a1.78 1.78 0 11-3.56 0V790.13a1.779 1.779 0 113.56 0z" fill="#478BF9"/><path d="M49.733 711c-12.699 0-25.387-4.83-35.057-14.499-19.329-19.329-19.329-50.774 0-70.103 9.368-9.367 21.817-14.52 35.057-14.52 13.24 0 25.688 5.153 35.056 14.52 19.329 19.329 19.329 50.774 0 70.103C75.129 706.16 62.43 711 49.733 711zm-32.454-17.101c17.892 17.892 47.005 17.892 64.897 0 17.893-17.893 17.893-47.006 0-64.898-8.67-8.671-20.192-13.438-32.454-13.438-12.261 0-23.784 4.778-32.454 13.438-17.892 17.892-17.892 47.005 0 64.898h.01z" fill="#9DADF2"/><path d="M49.077 679.992c.177.427.593.677 1.03.677a1.3 1.3 0 00.438-.083 25.705 25.705 0 009.2-6.568 1.117 1.117 0 00-.093-1.572 1.117 1.117 0 00-1.572.094 23.257 23.257 0 01-8.4 5.995c-.561.24-.832.895-.593 1.457h-.01z" fill="#9DADF2"/><path d="M68.623 644.311l-18.486-7.39a1.15 1.15 0 00-.833 0l-18.486 7.39a1.097 1.097 0 00-.697 1.031v13.24c.02 12.219 7.744 23.263 19.215 27.468a1.185 1.185 0 00.77 0c11.47-4.215 19.193-15.249 19.214-27.468v-13.24c0-.458-.27-.864-.697-1.031zm-1.53 14.271c-.021 11.116-6.995 21.244-17.362 25.23-10.367-3.986-17.351-14.114-17.372-25.23v-12.48l17.372-6.943 17.362 6.943v12.48z" fill="#9DADF2"/><path d="M42.008 646.05a1.099 1.099 0 00-.853 0l-4.403 1.759a1.094 1.094 0 00-.697 1.03v4.695a1.114 1.114 0 002.227 0v-3.935l3.695-1.478c.281-.114.49-.323.614-.604a1.143 1.143 0 00-.593-1.467h.01z" fill="#9DADF2"/><path d="M77.888 633.299c-7.515-7.525-17.518-11.657-28.156-11.657-10.637 0-20.63 4.142-28.155 11.657-15.52 15.52-15.52 40.781 0 56.311 7.765 7.765 17.955 11.637 28.155 11.637 10.2 0 20.39-3.883 28.156-11.637 15.519-15.519 15.519-40.781 0-56.311zm-5.507 25.283c.032 14.124-8.993 26.479-22.45 30.757a.637.637 0 01-.396 0c-13.459-4.278-22.483-16.633-22.452-30.757v-15.624c0-.26.156-.499.406-.603l22.004-8.795a.597.597 0 01.24-.042c.083 0 .166.01.239.042l22.004 8.805c.25.094.406.333.406.604v15.623-.01z" fill="#9DADF2"/><path d="M49.733 584.39C22.41 584.39.188 562.157.188 534.844c0-27.312 22.232-49.545 49.545-49.545 27.312 0 49.545 22.233 49.545 49.545 0 27.313-22.233 49.546-49.545 49.546zm0-95.791c-25.502 0-46.246 20.744-46.246 46.245 0 25.502 20.744 46.246 46.246 46.246 25.5 0 46.245-20.744 46.245-46.246 0-25.501-20.744-46.245-46.245-46.245z" fill="#7DDACF"/><path d="M82.065 499.491L66.727 514.83l3.017 3.017 15.338-15.338-3.017-3.018zM29.264 552.29l-15.338 15.338 3.017 3.018 15.338-15.339-3.017-3.017zm40.929.008l-3.017 3.017 15.338 15.339 3.018-3.018-15.339-15.338zM16.94 499.037l-3.018 3.017 15.33 15.331 3.018-3.017-15.33-15.331zm44.877 37.14a2.538 2.538 0 000-3.601l-2.124-2.113c-.999-1-2.612-1-3.601 0l-1.145 1.145-1.322-1.322c-1-1-2.612-1-3.601 0l-1.145 1.155-1.322-1.332a2.538 2.538 0 00-3.602 0l-7.025 7.026c-.052.052-.052.135 0 .197a2.425 2.425 0 003.414 0l4.527-4.527a1.25 1.25 0 011.77 0l.333.333a.15.15 0 010 .218l-3.778 3.779c-.052.052-.052.135 0 .197a2.425 2.425 0 003.414 0l4.34-4.34a1.25 1.25 0 011.77 0l.333.333c.052.052.052.135 0 .198l-3.643 3.643c-.052.052-.052.135 0 .198a2.427 2.427 0 003.414 0l4.194-4.195a1.25 1.25 0 011.77 0l.718.718a.736.736 0 010 1.031l-.114.114a.735.735 0 01-1.03 0l-.927-.926c-.052-.052-.136-.052-.198 0l-1.603 1.603c-.052.052-.052.135 0 .197l1.447 1.447a2.538 2.538 0 003.601 0l1.145-1.145-.01-.031z" fill="#7DDACF"/><path d="M49.734 496.853c-20.984 0-37.992 17.008-37.992 37.992 0 20.983 17.008 37.991 37.992 37.991 20.983 0 37.991-17.008 37.991-37.991 0-20.984-17.007-37.992-37.991-37.992zm1.55 11.731a26.206 26.206 0 0115.926 6.599l-5.485 5.485a18.518 18.518 0 00-10.44-4.33v-7.754zm-3.09 0v7.754a18.45 18.45 0 00-10.44 4.33l-5.486-5.485a26.207 26.207 0 0115.925-6.599zm-18.112 8.784l5.486 5.486a18.516 18.516 0 00-4.33 10.44h-7.755a26.217 26.217 0 016.6-15.926zm-6.599 19.017h7.755a18.444 18.444 0 004.33 10.44l-5.486 5.485a26.211 26.211 0 01-6.599-15.925zm24.71 24.71a26.213 26.213 0 01-15.925-6.599l5.485-5.485a18.518 18.518 0 0010.44 4.33v7.754zm-14.426-26.261c0-8.816 7.15-15.967 15.967-15.967 8.816 0 15.967 7.151 15.967 15.967s-7.151 15.967-15.967 15.967-15.967-7.151-15.967-15.967zm17.518 26.261v-7.754a18.45 18.45 0 0010.44-4.33l5.485 5.485a26.212 26.212 0 01-15.925 6.599zm18.11-8.785l-5.485-5.485a18.516 18.516 0 004.33-10.44h7.755a26.211 26.211 0 01-6.6 15.925zm-1.155-19.016a18.444 18.444 0 00-4.33-10.44l5.486-5.486a26.217 26.217 0 016.599 15.926H68.24z" fill="#7DDACF"/><path d="M49.877 460.932C22.554 460.932.332 438.7.332 411.387c0-27.312 22.233-49.545 49.545-49.545s49.545 22.233 49.545 49.545c0 27.313-22.233 49.545-49.545 49.545zm0-95.79c-25.501 0-46.246 20.744-46.246 46.245 0 25.502 20.745 46.246 46.246 46.246s46.246-20.744 46.246-46.246c0-25.501-20.745-46.245-46.246-46.245z" fill="#9DADF2"/><path d="M65.951 380.453c-.25 0-.5-.052-.728-.167a34.319 34.319 0 00-15.343-3.58 34.319 34.319 0 00-15.342 3.58 1.645 1.645 0 01-1.894-.312l-8.515-8.514a1.642 1.642 0 01-.468-1.374c.063-.51.354-.958.791-1.218a49.453 49.453 0 0125.439-7.026 49.558 49.558 0 0125.438 7.026c.438.26.73.708.792 1.218.062.51-.115 1.01-.469 1.374l-8.514 8.514a1.68 1.68 0 01-1.176.479h-.01zm-16.07-7.047a37.636 37.636 0 0115.727 3.404l6.162-6.162a46.15 46.15 0 00-21.89-5.506 46.15 46.15 0 00-21.889 5.506l6.162 6.162a37.636 37.636 0 0115.727-3.404zm-.002 87.527a49.559 49.559 0 01-25.44-7.026 1.646 1.646 0 01-.79-1.218c-.063-.51.114-1.01.468-1.374l8.515-8.514c.5-.5 1.27-.625 1.894-.312a34.319 34.319 0 0015.342 3.58 34.32 34.32 0 0015.343-3.58 1.645 1.645 0 011.894.312l8.514 8.514c.365.364.531.864.469 1.374-.063.51-.354.958-.791 1.218a49.462 49.462 0 01-25.44 7.026h.022zm-21.89-8.806a46.15 46.15 0 0021.89 5.506 46.15 46.15 0 0021.889-5.506l-6.162-6.162a37.637 37.637 0 01-15.727 3.404 37.636 37.636 0 01-15.728-3.404l-6.162 6.162zm62.994-14.499c-.438 0-.854-.167-1.166-.479l-8.514-8.515a1.649 1.649 0 01-.313-1.894 34.315 34.315 0 003.58-15.342 34.32 34.32 0 00-3.58-15.343 1.644 1.644 0 01.313-1.894l8.514-8.514a1.642 1.642 0 011.374-.469c.51.063.957.354 1.218.791a49.46 49.46 0 017.025 25.439 49.458 49.458 0 01-7.025 25.439c-.26.437-.708.728-1.218.791h-.208v-.01zm-6.527-10.513l6.162 6.162a46.153 46.153 0 005.506-21.89 46.15 46.15 0 00-5.506-21.889l-6.162 6.162a37.638 37.638 0 013.404 15.727 37.642 37.642 0 01-3.404 15.728zM8.773 437.627c-.073 0-.135 0-.198-.01a1.647 1.647 0 01-1.218-.791 49.458 49.458 0 01-7.025-25.439 49.46 49.46 0 017.025-25.439c.26-.437.708-.728 1.218-.791.51-.062 1.01.115 1.374.469l8.514 8.514c.5.5.625 1.27.313 1.894a34.32 34.32 0 00-3.58 15.343 34.316 34.316 0 003.58 15.342 1.644 1.644 0 01-.313 1.894l-8.514 8.515a1.648 1.648 0 01-1.166.489l-.01.01zm.364-48.129a46.15 46.15 0 00-5.506 21.889 46.156 46.156 0 005.506 21.89l6.162-6.162a37.642 37.642 0 01-3.403-15.728 37.638 37.638 0 013.403-15.727l-6.162-6.162z" fill="#9DADF2"/><path d="M49.878 373.396c-20.942 0-37.991 17.039-37.991 37.992 0 20.952 17.038 37.991 37.991 37.991S87.87 432.34 87.87 411.388c0-20.953-17.04-37.992-37.992-37.992zm21.38 25.512a24.473 24.473 0 013.247 10.013.37.37 0 01-.177.354 31.8 31.8 0 00-7.255 6.089.342.342 0 01-.385.104l-4.694-1.53a.36.36 0 01-.25-.302 32.67 32.67 0 00-3.591-11.054.368.368 0 01.031-.385l2.904-3.997a.394.394 0 01.302-.156h.083c3.102.687 6.287.916 9.451.655a.378.378 0 01.354.188l-.02.021zm-12.075 15.384a.379.379 0 01-.083.281 24.857 24.857 0 01-9.076 6.578.337.337 0 01-.281 0 25.099 25.099 0 01-9.077-6.578.378.378 0 01-.083-.281 30.15 30.15 0 013.477-10.701.345.345 0 01.24-.176 27.113 27.113 0 0111.178 0c.104.02.187.083.24.176a30.357 30.357 0 013.476 10.701h-.01zm-.562-25.835s.125-.104.25-.104c.042 0 .094 0 .146.031 3.83 1.52 7.255 4.018 9.92 7.214a.345.345 0 01.051.385.357.357 0 01-.333.218 28.64 28.64 0 01-6.994-.78.373.373 0 01-.23-.167 29.508 29.508 0 01-2.903-6.422.346.346 0 01.104-.375h-.01zm-14-1.249a25.251 25.251 0 0110.524 0c.135.032.25.136.28.271a31.912 31.912 0 003.55 8.785.383.383 0 01-.02.406l-2.884 3.976a.362.362 0 01-.364.146 29.615 29.615 0 00-11.647 0 .362.362 0 01-.365-.146l-2.883-3.976a.382.382 0 01-.02-.406 31.914 31.914 0 003.549-8.785.375.375 0 01.28-.271zm-13.79 8.39c2.664-3.206 6.088-5.704 9.919-7.214a.35.35 0 01.395.073c.052.052.167.177.104.375a29.274 29.274 0 01-2.904 6.422.373.373 0 01-.229.167 28.64 28.64 0 01-6.994.78.357.357 0 01-.333-.218.345.345 0 01.052-.385h-.01zm-2.322 3.31a.367.367 0 01.323-.188h.031c3.175.25 6.36.031 9.451-.656a.352.352 0 01.375.146l2.904 3.997a.37.37 0 01.031.385 32.68 32.68 0 00-3.59 11.054.39.39 0 01-.25.302l-4.695 1.53a.378.378 0 01-.385-.104 31.805 31.805 0 00-7.255-6.089.389.389 0 01-.177-.354 24.425 24.425 0 013.248-10.013l-.01-.01zm1.135 25.646a.364.364 0 01-.313.25c-.072 0-.239 0-.353-.166a24.697 24.697 0 01-3.79-11.668.355.355 0 01.188-.344c.063-.031.23-.104.396.021a28.923 28.923 0 015.204 4.746.355.355 0 01.083.271 28.569 28.569 0 01-1.426 6.901l.01-.011zm10.284 9.504c-3.248-1.426-6.11-3.519-8.504-6.204a.375.375 0 01-.073-.385 31.854 31.854 0 002.29-9.191.357.357 0 01.25-.312l4.642-1.509s.073-.021.114-.021c.104 0 .198.041.27.125a27.701 27.701 0 009.431 6.859.362.362 0 01.219.333v4.882a.353.353 0 01-.219.333 31.83 31.83 0 00-8.046 5.027.348.348 0 01-.385.052l.01.011zm16.372 1.03a.347.347 0 01-.27.291 25.032 25.032 0 01-12.283 0 .363.363 0 01-.27-.291.367.367 0 01.146-.375 29.062 29.062 0 016.13-3.487.337.337 0 01.281 0 29.59 29.59 0 016.131 3.487.383.383 0 01.146.375h-.01zm12.064-7.224a24.542 24.542 0 01-8.504 6.194.366.366 0 01-.385-.053 31.677 31.677 0 00-8.046-5.027.362.362 0 01-.218-.333v-4.882c0-.145.083-.281.218-.333a27.588 27.588 0 009.43-6.859.352.352 0 01.27-.125.22.22 0 01.115.021l4.643 1.509a.36.36 0 01.25.312 31.923 31.923 0 002.29 9.191.355.355 0 01-.074.385h.01zm2.435-3.216a.358.358 0 01-.353.167.359.359 0 01-.313-.25 29.593 29.593 0 01-1.426-6.901c0-.094.021-.198.084-.271a29.297 29.297 0 015.204-4.746.361.361 0 01.208-.073.4.4 0 01.187.052.34.34 0 01.188.344 24.699 24.699 0 01-3.789 11.668l.01.01z" fill="#9DADF2"/><path d="M99.111 289.065c0 27.323-22.233 49.556-49.556 49.556C22.234 338.621 0 316.388 0 289.065c0-27.322 22.233-49.555 49.556-49.555 27.322 0 49.555 22.233 49.555 49.555zm-95.54 0c0 25.356 20.63 45.986 45.985 45.986s45.985-20.63 45.985-45.986c0-25.355-20.63-45.985-45.985-45.985-25.356 0-45.986 20.63-45.986 45.985zM99.114 167.93a1.779 1.779 0 11-3.56 0c0-25.356-20.63-45.986-45.986-45.986-25.355 0-45.985 20.63-45.985 45.986a1.779 1.779 0 11-3.56 0c0-27.323 22.233-49.556 49.556-49.556 27.323 0 49.555 22.233 49.555 49.556h-.02z" fill="#478BF9"/><path d="M40.012 280.311a3.952 3.952 0 003.008 3.841l3.362.843v-8.649h-2.394a3.971 3.971 0 00-3.966 3.965h-.01zm12.718 21.474h2.393a3.971 3.971 0 003.966-3.966 3.954 3.954 0 00-3.008-3.841l-3.362-.843v8.65h.01z" fill="#478BF9"/><path d="M49.556 248.742c-22.232 0-40.333 18.09-40.333 40.334 0 22.243 18.09 40.333 40.333 40.333 22.244 0 40.334-18.09 40.334-40.333 0-22.244-18.09-40.334-40.334-40.334zm15.905 33.964H59.1v-3.185a3.192 3.192 0 00-3.185-3.186H52.73v10.243l4.902 1.228a10.31 10.31 0 017.817 10.013c0 5.693-4.632 10.325-10.325 10.325H52.73v8.057h-6.36v-8.057h-3.185c-5.267 0-9.544-4.278-9.544-9.544v-3.185h6.36v3.185a3.192 3.192 0 003.184 3.185h3.185v-10.243l-4.902-1.228a10.31 10.31 0 01-7.817-10.013c0-5.693 4.632-10.325 10.325-10.325h2.394v-8.056h6.36v8.056h3.185c5.267 0 9.545 4.278 9.545 9.545v3.185zm33.712-115.537v119.596a1.779 1.779 0 11-3.56 0V167.169a1.779 1.779 0 113.56 0zm-95.535-.259v119.595a1.78 1.78 0 11-3.56 0V166.91a1.779 1.779 0 113.56 0z" fill="#478BF9"/><path d="M49.733 99.121c-12.699 0-25.387-4.83-35.057-14.499-19.329-19.329-19.329-50.773 0-70.102C24.044 5.152 36.493 0 49.733 0c13.24 0 25.688 5.152 35.056 14.52 19.329 19.329 19.329 50.773 0 70.102-9.66 9.66-22.358 14.5-35.056 14.5zm-32.454-17.1c17.892 17.892 47.005 17.892 64.897 0 17.893-17.893 17.893-47.006 0-64.899-8.67-8.67-20.192-13.437-32.454-13.437-12.261 0-23.784 4.777-32.454 13.437-17.892 17.893-17.892 47.006 0 64.898h.01z" fill="#9DADF2"/><path d="M49.077 68.114c.177.427.593.676 1.03.676.146 0 .292-.03.438-.083a25.699 25.699 0 009.2-6.568 1.117 1.117 0 00-.093-1.571 1.117 1.117 0 00-1.572.093 23.264 23.264 0 01-8.4 5.996c-.561.24-.832.895-.593 1.457h-.01z" fill="#9DADF2"/><path d="M68.623 32.433l-18.486-7.39a1.15 1.15 0 00-.833 0l-18.486 7.39a1.095 1.095 0 00-.697 1.03v13.24c.02 12.22 7.744 23.264 19.215 27.469a1.195 1.195 0 00.77 0c11.47-4.216 19.193-15.249 19.214-27.469v-13.24c0-.458-.27-.863-.697-1.03zm-1.53 14.27c-.021 11.117-6.995 21.244-17.362 25.23-10.367-3.986-17.351-14.113-17.372-25.23v-12.48l17.372-6.942 17.362 6.942v12.48z" fill="#9DADF2"/><path d="M42.008 34.171a1.103 1.103 0 00-.853 0l-4.403 1.76a1.096 1.096 0 00-.697 1.03v4.694c0 .614.5 1.114 1.113 1.114.614 0 1.114-.5 1.114-1.114v-3.934l3.695-1.478c.281-.115.49-.323.614-.604a1.1 1.1 0 000-.854 1.143 1.143 0 00-.593-.614h.01z" fill="#9DADF2"/><path d="M77.888 21.42C70.373 13.896 60.37 9.764 49.732 9.764c-10.637 0-20.63 4.143-28.155 11.658-15.52 15.52-15.52 40.78 0 56.31 7.765 7.766 17.955 11.637 28.155 11.637 10.2 0 20.39-3.882 28.156-11.636 15.519-15.52 15.519-40.781 0-56.311zM72.38 46.704c.032 14.125-8.993 26.48-22.45 30.758a.642.642 0 01-.396 0c-13.459-4.278-22.483-16.633-22.452-30.758V31.08c0-.26.156-.5.406-.604l22.004-8.795a.611.611 0 01.24-.041.61.61 0 01.239.041l22.004 8.806c.25.094.406.333.406.604v15.623-.01z" fill="#9DADF2"/></g></svg>