<svg width="600" height="52" fill="none" xmlns="http://www.w3.org/2000/svg"><g opacity=".6"><path d="M514.649 50.39c-13.506 0-24.496-10.99-24.496-24.496 0-13.506 10.99-24.496 24.496-24.496 13.506 0 24.496 10.99 24.496 24.496 0 13.506-10.99 24.496-24.496 24.496zm0-47.227c-12.534 0-22.731 10.198-22.731 22.731 0 12.534 10.197 22.731 22.731 22.731 12.533 0 22.731-10.197 22.731-22.73 0-12.534-10.198-22.732-22.731-22.732zm59.884 47.228a.88.88 0 110-1.76c12.533 0 22.731-10.197 22.731-22.73 0-12.534-10.198-22.732-22.731-22.732a.88.88 0 110-1.76c13.506 0 24.495 10.99 24.495 24.497 0 13.505-10.989 24.495-24.495 24.495v-.01z" fill="#478BF9"/><path d="M538.947 24.922h-10.728v2.114h10.728v-2.114zm-36.936 0h-10.728v2.114h10.728v-2.114zm14.329 14.324h-2.114v10.727h2.114V39.246zm0-37.261h-2.114v10.727h2.114V1.985z" fill="#478BF9"/><path d="M527.895 12.558c-7.337-7.337-19.238-7.337-26.58 0-7.336 7.337-7.336 19.237 0 26.58 7.337 7.336 19.238 7.336 26.58 0 7.337-7.337 7.337-19.238 0-26.58zm-9.657 1.59a12.252 12.252 0 015.551 3.591l.288.324-.422.098c-1.116.262-2.31.478-3.544.638l-.222.03-.061-.215a16.246 16.246 0 00-.726-2.012 11.122 11.122 0 00-1.152-2.058l-.464-.633.752.232v.005zm-8.587 11.113l.01-.267c.051-1.626.231-3.18.54-4.61l.046-.227.232.02c2.706.237 5.598.227 8.289-.025l.231-.02.052.226c.313 1.446.494 3.005.54 4.636v.267h-9.94zm9.94 1.194v.267c-.057 1.631-.237 3.19-.551 4.636l-.051.226-.232-.02a47.424 47.424 0 00-8.288-.026l-.232.02-.046-.226a25.717 25.717 0 01-.54-4.61l-.011-.267h9.951zm-4.97-12.755c1.497 0 3.02 1.899 3.972 4.96l.097.309-.324.025a45.858 45.858 0 01-7.501.021l-.324-.026.097-.314c.952-3.071 2.48-4.98 3.983-4.98v.005zm-9.22 4.096a12.261 12.261 0 015.603-3.643l.756-.232-.468.638a10.764 10.764 0 00-1.153 2.053 16.713 16.713 0 00-.735 2.048l-.062.21-.221-.025a34.932 34.932 0 01-3.581-.622l-.427-.098.288-.33zm-3.005 7.187a12.287 12.287 0 011.862-5.665l.103-.159.186.046a35.52 35.52 0 004.229.793l.278.036-.057.277a27.002 27.002 0 00-.53 4.698v.252h-6.087l.021-.278h-.005zm1.965 7.574l-.103-.16a12.268 12.268 0 01-1.862-5.664l-.021-.278h6.082v.252a27.94 27.94 0 00.535 4.697l.057.278-.278.036c-1.487.19-2.912.458-4.23.793l-.185.046h.005zm6.643 5.011a12.262 12.262 0 01-5.603-3.642l-.288-.33.427-.098a36.38 36.38 0 013.581-.622l.221-.026.062.211c.216.741.463 1.43.735 2.048a11.06 11.06 0 001.153 2.058l.468.638-.756-.232v-.005zm3.617.448c-1.503 0-3.031-1.909-3.983-4.98l-.097-.315.324-.025a46.208 46.208 0 017.501.02l.324.026-.097.309c-.957 3.056-2.48 4.96-3.972 4.96v.005zm9.168-4.04a12.279 12.279 0 01-5.551 3.592l-.752.232.464-.633c.421-.576.807-1.27 1.152-2.058.273-.633.52-1.307.726-2.012l.061-.216.222.03c1.234.16 2.428.377 3.544.639l.422.103-.288.324zm3.051-7.243a12.254 12.254 0 01-1.898 5.726l-.103.16-.185-.047a34.716 34.716 0 00-4.199-.818l-.278-.036.057-.273c.309-1.492.489-3.081.535-4.733v-.252h6.087l-.021.278.005-.005zm-6.061-1.472v-.252a27.552 27.552 0 00-.54-4.733l-.056-.273.277-.036c1.482-.2 2.892-.473 4.199-.818l.185-.047.103.16a12.168 12.168 0 011.898 5.726l.021.278h-6.081l-.006-.005zm54.124 25.159h-59.117a.88.88 0 110-1.76h59.117a.88.88 0 110 1.76zm.134-47.231H515.92a.88.88 0 110-1.76h59.117a.88.88 0 110 1.76z" fill="#478BF9"/><path d="M436.697 42.94c-9.634-9.634-9.634-25.308 0-34.942s25.308-9.634 34.942 0 9.634 25.308 0 34.942-25.308 9.634-34.942 0zm33.778-33.778c-8.992-8.992-23.621-8.992-32.611 0-8.992 8.992-8.992 23.621 0 32.611 8.992 8.992 23.621 8.992 32.611 0 8.992-8.992 8.992-23.62 0-32.61z" fill="#fff"/><path d="M470.741 20.228a.823.823 0 01-.197-.319 17.092 17.092 0 00-4.149-6.67 17.133 17.133 0 00-6.67-4.15.824.824 0 01-.56-.78V2.306a.824.824 0 011.022-.799 24.652 24.652 0 0111.447 6.492 24.685 24.685 0 016.49 11.447.82.82 0 01-.799 1.024h-6.005a.82.82 0 01-.583-.243l.004.002zm-3.181-8.153a18.787 18.787 0 014.346 6.747h4.343a23.033 23.033 0 00-5.777-9.66 23.021 23.021 0 00-9.658-5.775v4.344a18.707 18.707 0 016.748 4.346l-.002-.002zM436.696 42.94a24.685 24.685 0 01-6.492-11.447.82.82 0 01.799-1.021h6.005a.82.82 0 01.78.56 17.103 17.103 0 004.149 6.67 17.137 17.137 0 006.671 4.149c.335.112.56.426.56.78v6.005a.825.825 0 01-1.024.799 24.686 24.686 0 01-11.448-6.49v-.005zm-4.613-10.824a23.036 23.036 0 005.778 9.66 23.032 23.032 0 009.66 5.777V43.21a18.732 18.732 0 01-6.748-4.344 18.774 18.774 0 01-4.346-6.748h-4.344v-.002zm27.327 17.098a.825.825 0 01-.241-.583v-6.005c0-.354.225-.668.56-.78a17.1 17.1 0 006.67-4.15 17.115 17.115 0 004.149-6.67.823.823 0 01.781-.56h6.004c.253 0 .492.117.649.317a.82.82 0 01.15.705 24.697 24.697 0 01-6.492 11.447 24.653 24.653 0 01-11.447 6.492.827.827 0 01-.705-.15c-.026-.023-.052-.044-.075-.068l-.003.005zm1.406-6.007v4.344a23.045 23.045 0 009.66-5.778 23.064 23.064 0 005.777-9.66h-4.343a18.741 18.741 0 01-4.346 6.748 18.755 18.755 0 01-6.748 4.346zM430.42 20.228a.824.824 0 01-.215-.783 24.65 24.65 0 016.492-11.447 24.682 24.682 0 0111.447-6.492.83.83 0 01.706.15.827.827 0 01.316.649V8.31a.822.822 0 01-.56.78 17.094 17.094 0 00-6.67 4.15 17.135 17.135 0 00-4.15 6.67.821.821 0 01-.78.56h-6.005a.825.825 0 01-.583-.24l.002-.002zm17.099-16.84a23.039 23.039 0 00-9.66 5.777 23.064 23.064 0 00-5.777 9.66h4.343a18.74 18.74 0 014.346-6.748 18.785 18.785 0 016.748-4.346V3.387z" fill="#fff"/><path d="M467.562 12.075c-7.385-7.385-19.404-7.388-26.789 0-7.387 7.387-7.385 19.404 0 26.788 7.385 7.385 19.402 7.387 26.789 0 7.387-7.387 7.385-19.404 0-26.788z" fill="#fff"/><path d="M461.001 32.23l-13.608.09a1.039 1.039 0 00-1.031 1.045l.004.485a1.037 1.037 0 001.044 1.031l13.608-.09a1.039 1.039 0 001.031-1.045l-.004-.485a1.037 1.037 0 00-1.044-1.031zm-11.754-8.214a.996.996 0 01-.433-.098l-1.061-.513a.98.98 0 01-.481-1.247l.488-1.213a.976.976 0 011.391-.485l1.265.721a.977.977 0 01.321 1.406l-.693 1.005a.972.972 0 01-.799.422l.002.002zm9.795-.066a.98.98 0 01-.803-.412l-.687-.967a.982.982 0 01.302-1.41l1.305-.767a.98.98 0 011.399.466l.492 1.179a.984.984 0 01-.464 1.253l-1.11.556a.992.992 0 01-.431.103h-.003z" fill="#110A1D"/><path d="M448.178 31.41a1.413 1.413 0 01-1.337-.932l-2.271-6.248a2.395 2.395 0 11.987-.877l4.318 2.09 3.303-4.786a2.404 2.404 0 01-1.014-.818 2.38 2.38 0 01-.443-1.37 2.4 2.4 0 012.38-2.414 2.401 2.401 0 012.404 2.216 2.391 2.391 0 01-1.434 2.376l3.362 4.738 4.248-2.125a2.339 2.339 0 01-.276-1.104 2.394 2.394 0 114.788-.03c.01 1.26-.97 2.32-2.228 2.406l-.15.004a2.336 2.336 0 01-1.145-.283l-2.132 6.127a1.415 1.415 0 01-1.326.948l-12.034.08v.002z" fill="#110A1D"/><path d="M391.262 50.17c-6.277 0-12.549-2.388-17.329-7.168-9.555-9.554-9.555-25.098 0-34.652 4.631-4.63 10.784-7.178 17.329-7.178 6.544 0 12.698 2.547 17.328 7.178 9.555 9.554 9.555 25.098 0 34.652-4.774 4.775-11.051 7.167-17.328 7.167zm-16.043-8.454c8.845 8.844 23.235 8.844 32.08 0 8.844-8.845 8.844-23.236 0-32.08-4.286-4.286-9.982-6.642-16.043-6.642-6.06 0-11.756 2.361-16.042 6.642-8.844 8.845-8.844 23.235 0 32.08h.005z" fill="#7DDACF"/><path d="M392.169 20.518l-4.538 6.36h2.721v4.537l4.538-6.354h-2.721v-4.543z" fill="#7DDACF"/><path d="M391.257 16.983c-4.97 0-9.004 4.034-9.004 9.004s4.034 8.994 9.004 8.994 9.004-4.034 9.004-8.994-4.034-9.004-9.004-9.004zm0 16.887a7.905 7.905 0 01-7.903-7.903 7.905 7.905 0 017.903-7.903 7.905 7.905 0 017.903 7.903 7.905 7.905 0 01-7.903 7.903z" fill="#7DDACF"/><path d="M405.175 11.761C401.46 8.041 396.516 6 391.258 6a19.565 19.565 0 00-13.918 5.762c-7.671 7.671-7.671 20.159 0 27.835a19.616 19.616 0 0013.918 5.757 19.616 19.616 0 0013.917-5.757c7.672-7.671 7.672-20.158 0-27.835zm-13.917 26.44c-6.73 0-12.21-5.479-12.21-12.209 0-2.974 1.065-5.7 2.835-7.83l-1.492-1.492a1.098 1.098 0 111.554-1.554l1.492 1.492a12.089 12.089 0 016.725-2.784v-1.008h-1.009c-.89 0-1.626-.736-1.626-1.626v-.849c0-.9.736-1.626 1.626-1.626h4.219c.89 0 1.626.726 1.626 1.626v.849c0 .89-.736 1.626-1.626 1.626h-1.008v1.008a12.15 12.15 0 016.725 2.784l1.492-1.492a1.101 1.101 0 011.553 0 1.102 1.102 0 010 1.553l-1.492 1.493a12.199 12.199 0 012.835 7.83c0 6.73-5.479 12.21-12.209 12.21h-.01z" fill="#7DDACF"/><path d="M332.801 50.66c-13.506 0-24.491-10.99-24.491-24.491 0-13.5 10.99-24.49 24.491-24.49 13.5 0 24.49 10.99 24.49 24.49 0 13.5-10.99 24.49-24.49 24.49zm0-47.35c-12.606 0-22.86 10.253-22.86 22.859 0 12.605 10.254 22.86 22.86 22.86 12.605 0 22.859-10.255 22.859-22.86 0-12.606-10.254-22.86-22.859-22.86z" fill="#fff"/><path d="M348.781 8.693l-7.582 7.582 1.492 1.492 7.581-7.582-1.491-1.492zm-26.098 26.099l-7.582 7.582 1.491 1.492 7.582-7.582-1.491-1.492zm20.237-.002l-1.491 1.492 7.582 7.582 1.491-1.491-7.582-7.582zM316.598 8.463l-1.491 1.492 7.578 7.578 1.492-1.492-7.579-7.578zm22.182 18.365a1.254 1.254 0 000-1.78l-1.05-1.045a1.254 1.254 0 00-1.78 0l-.566.566-.653-.654a1.256 1.256 0 00-1.781 0l-.566.572-.653-.659a1.254 1.254 0 00-1.78 0l-3.473 3.473c-.026.026-.026.067 0 .098a1.198 1.198 0 001.687 0l2.239-2.239a.617.617 0 01.874 0l.165.165a.074.074 0 010 .108l-1.868 1.868c-.026.026-.026.067 0 .098a1.2 1.2 0 001.688 0l2.145-2.146a.618.618 0 01.875 0l.165.165c.025.026.025.067 0 .098l-1.801 1.8c-.026.026-.026.067 0 .098a1.198 1.198 0 001.687 0l2.074-2.073a.618.618 0 01.875 0l.355.355a.365.365 0 010 .509l-.057.057a.363.363 0 01-.509 0l-.458-.458c-.026-.026-.067-.026-.098 0l-.792.792c-.026.026-.026.067 0 .098l.715.715a1.254 1.254 0 001.78 0l.566-.566-.005-.015z" fill="#fff"/><path d="M332.801 7.384c-10.372 0-18.78 8.407-18.78 18.78 0 10.372 8.408 18.78 18.78 18.78 10.373 0 18.78-8.408 18.78-18.78 0-10.373-8.407-18.78-18.78-18.78zm.767 5.799a12.959 12.959 0 017.872 3.262l-2.712 2.711a9.153 9.153 0 00-5.16-2.14v-3.833zm-1.528 0v3.833a9.118 9.118 0 00-5.161 2.14l-2.711-2.711a12.956 12.956 0 017.872-3.262zm-8.953 4.342l2.712 2.712a9.155 9.155 0 00-2.141 5.16h-3.833a12.959 12.959 0 013.262-7.872zm-3.262 9.4h3.833a9.12 9.12 0 002.141 5.16l-2.712 2.712a12.96 12.96 0 01-3.262-7.872zM332.04 39.14a12.956 12.956 0 01-7.872-3.262l2.711-2.712a9.152 9.152 0 005.161 2.14v3.834zm-7.131-12.981a7.893 7.893 0 0115.785 0 7.893 7.893 0 01-15.785 0zm8.659 12.98v-3.832a9.117 9.117 0 005.16-2.14l2.712 2.71a12.959 12.959 0 01-7.872 3.263zm8.952-4.342l-2.711-2.711a9.154 9.154 0 002.14-5.16h3.833a12.96 12.96 0 01-3.262 7.871zm-.571-9.4a9.113 9.113 0 00-2.14-5.16l2.711-2.712a12.959 12.959 0 013.262 7.872h-3.833z" fill="#fff"/><path d="M206.584 50.39c-13.505 0-24.495-10.99-24.495-24.496 0-13.506 10.99-24.496 24.495-24.496 13.506 0 24.496 10.99 24.496 24.496 0 13.506-10.99 24.496-24.496 24.496zm0-47.227c-12.533 0-22.731 10.198-22.731 22.731 0 12.534 10.198 22.731 22.731 22.731 12.534 0 22.732-10.197 22.732-22.73 0-12.534-10.198-22.732-22.732-22.732zm59.884 47.228a.88.88 0 110-1.76c12.534 0 22.731-10.197 22.731-22.73 0-12.534-10.197-22.732-22.731-22.732a.88.88 0 110-1.76c13.506 0 24.496 10.99 24.496 24.497 0 13.505-10.99 24.495-24.496 24.495v-.01z" fill="#478BF9"/><path d="M230.882 24.922h-10.728v2.114h10.728v-2.114zm-36.936 0h-10.728v2.114h10.728v-2.114zm14.33 14.324h-2.115v10.727h2.115V39.246zm0-37.261h-2.115v10.727h2.115V1.985z" fill="#478BF9"/><path d="M219.83 12.558c-7.337-7.337-19.237-7.337-26.579 0-7.337 7.337-7.337 19.237 0 26.58 7.337 7.336 19.237 7.336 26.579 0 7.337-7.337 7.337-19.238 0-26.58zm-9.657 1.59a12.26 12.26 0 015.552 3.591l.288.324-.422.098c-1.117.262-2.31.478-3.545.638l-.221.03-.062-.215a16.246 16.246 0 00-.726-2.012 11.008 11.008 0 00-1.152-2.058l-.463-.633.751.232v.005zm-8.587 11.113l.01-.267c.052-1.626.232-3.18.54-4.61l.047-.227.231.02c2.706.237 5.598.227 8.289-.025l.231-.02.052.226a25.28 25.28 0 01.54 4.636v.267h-9.94zm9.94 1.194v.267c-.056 1.631-.237 3.19-.55 4.636l-.052.226-.231-.02a47.435 47.435 0 00-8.289-.026l-.232.02-.046-.226a25.717 25.717 0 01-.54-4.61l-.01-.267h9.95zm-4.97-12.755c1.497 0 3.02 1.899 3.972 4.96l.098.309-.324.025a45.9 45.9 0 01-7.502.021l-.324-.026.098-.314c.951-3.071 2.48-4.98 3.982-4.98v.005zm-9.22 4.096a12.261 12.261 0 015.603-3.643l.756-.232-.468.638a10.708 10.708 0 00-1.152 2.053c-.273.618-.52 1.307-.736 2.048l-.062.21-.221-.025a35.028 35.028 0 01-3.581-.622l-.427-.098.288-.33zm-3.005 7.187a12.277 12.277 0 011.863-5.665l.103-.159.185.046a35.52 35.52 0 004.229.793l.278.036-.057.277a27.197 27.197 0 00-.53 4.698v.252h-6.086l.02-.278h-.005zm1.966 7.574l-.103-.16a12.257 12.257 0 01-1.863-5.664l-.02-.278h6.081v.252a28.14 28.14 0 00.535 4.697l.057.278-.278.036c-1.487.19-2.912.458-4.229.793l-.185.046h.005zm6.642 5.011a12.262 12.262 0 01-5.603-3.642l-.288-.33.427-.098a36.484 36.484 0 013.581-.622l.221-.026.062.211c.216.741.463 1.43.736 2.048.344.787.73 1.477 1.152 2.058l.468.638-.756-.232v-.005zm3.617.448c-1.502 0-3.031-1.909-3.982-4.98l-.098-.315.324-.025a46.22 46.22 0 017.502.02l.324.026-.098.309c-.957 3.056-2.48 4.96-3.972 4.96v.005zm9.169-4.04a12.287 12.287 0 01-5.552 3.592l-.751.232.463-.633c.422-.576.808-1.27 1.152-2.058.273-.633.52-1.307.726-2.012l.062-.216.221.03a35.66 35.66 0 013.545.639l.422.103-.288.324zm3.051-7.243a12.255 12.255 0 01-1.899 5.726l-.103.16-.185-.047a34.737 34.737 0 00-4.198-.818l-.278-.036.056-.273c.309-1.492.489-3.081.535-4.733v-.252h6.087l-.021.278.006-.005zm-6.061-1.472v-.252a27.65 27.65 0 00-.541-4.733l-.056-.273.278-.036a34.89 34.89 0 004.198-.818l.185-.047.103.16a12.18 12.18 0 011.899 5.726l.02.278h-6.081l-.005-.005zm54.124 25.159h-59.118a.88.88 0 010-1.76h59.118a.88.88 0 010 1.76zm.134-47.231h-59.118a.88.88 0 010-1.76h59.118a.88.88 0 010 1.76z" fill="#478BF9"/><path d="M128.633 43.824c-9.634-9.634-9.634-25.308 0-34.942s25.308-9.634 34.942 0 9.634 25.308 0 34.942-25.308 9.634-34.942 0zm33.777-33.777c-8.992-8.992-23.621-8.992-32.611 0-8.992 8.992-8.992 23.62 0 32.61 8.993 8.992 23.622 8.992 32.611 0 8.992-8.992 8.992-23.62 0-32.61z" fill="#fff"/><path d="M162.677 21.112a.81.81 0 01-.197-.319 17.092 17.092 0 00-4.149-6.67 17.14 17.14 0 00-6.67-4.15.824.824 0 01-.56-.78V3.19a.821.821 0 011.021-.799 24.647 24.647 0 0111.447 6.492 24.676 24.676 0 016.49 11.447.82.82 0 01-.799 1.024h-6.004a.823.823 0 01-.584-.244l.005.003zm-3.182-8.153a18.774 18.774 0 014.346 6.747h4.344a23.035 23.035 0 00-5.778-9.66 23.011 23.011 0 00-9.657-5.775v4.344a18.724 18.724 0 016.748 4.346l-.003-.002zm-30.863 30.865a24.668 24.668 0 01-6.492-11.447.825.825 0 01.799-1.022h6.005c.354 0 .668.225.78.56a17.103 17.103 0 004.149 6.67 17.137 17.137 0 006.671 4.15.821.821 0 01.559.78v6.005a.824.824 0 01-1.023.799 24.68 24.68 0 01-11.448-6.49v-.005zM124.019 33a23.035 23.035 0 005.778 9.66 23.035 23.035 0 009.659 5.777v-4.344a18.737 18.737 0 01-6.747-4.343 18.775 18.775 0 01-4.346-6.748h-4.344V33zm27.327 17.098a.821.821 0 01-.242-.583V43.51c0-.354.225-.668.56-.78a17.096 17.096 0 006.671-4.15 17.138 17.138 0 004.149-6.67.821.821 0 01.78-.56h6.005a.82.82 0 01.799 1.021 24.706 24.706 0 01-6.492 11.448 24.655 24.655 0 01-11.448 6.492.826.826 0 01-.705-.15c-.026-.023-.051-.044-.075-.068l-.002.005zm1.406-6.007v4.343a23.035 23.035 0 009.659-5.777 23.056 23.056 0 005.778-9.66h-4.344a18.728 18.728 0 01-4.346 6.748 18.743 18.743 0 01-6.747 4.346zm-30.396-22.979a.827.827 0 01-.216-.782 24.653 24.653 0 016.493-11.448A24.682 24.682 0 01140.08 2.39a.826.826 0 01.705.15.827.827 0 01.316.649v6.005a.821.821 0 01-.559.78 17.097 17.097 0 00-6.671 4.149 17.144 17.144 0 00-4.149 6.67.821.821 0 01-.78.56h-6.005a.825.825 0 01-.583-.239l.002-.002zm17.098-16.84a23.036 23.036 0 00-9.659 5.777 23.056 23.056 0 00-5.778 9.66h4.344a18.726 18.726 0 014.346-6.748 18.772 18.772 0 016.747-4.346V4.27z" fill="#fff"/><path d="M159.497 12.959c-7.385-7.385-19.404-7.387-26.789 0-7.387 7.387-7.384 19.404 0 26.789 7.385 7.384 19.402 7.387 26.789 0 7.387-7.388 7.385-19.404 0-26.79z" fill="#fff"/><path d="M152.936 33.114l-13.607.09a1.038 1.038 0 00-1.031 1.045l.003.485a1.038 1.038 0 001.045 1.03l13.607-.09a1.038 1.038 0 001.031-1.044l-.003-.485a1.038 1.038 0 00-1.045-1.031zM141.183 24.9a.996.996 0 01-.433-.098l-1.062-.513a.981.981 0 01-.48-1.247l.487-1.213a.978.978 0 011.392-.485l1.265.721a.977.977 0 01.321 1.406l-.693 1.005a.974.974 0 01-.799.422l.002.002zm9.795-.065a.982.982 0 01-.804-.412l-.687-.968c-.159-.222-.215-.504-.159-.77a.976.976 0 01.462-.64l1.305-.767a.98.98 0 011.398.466l.492 1.18a.984.984 0 01-.464 1.253l-1.11.555a.992.992 0 01-.431.103h-.002z" fill="#110A1D"/><path d="M140.114 32.295a1.414 1.414 0 01-1.338-.933l-2.27-6.248a2.43 2.43 0 01-1.343.215 2.397 2.397 0 01.293-4.772 2.397 2.397 0 012.252 3.252c-.059.15-.132.293-.216.429l4.318 2.09 3.304-4.787a2.422 2.422 0 01-1.015-.818 2.387 2.387 0 01-.443-1.37 2.4 2.4 0 012.559-2.409 2.4 2.4 0 012.225 2.212 2.386 2.386 0 01-1.037 2.158 2.282 2.282 0 01-.396.218l3.362 4.737 4.247-2.125a2.464 2.464 0 01-.189-.478 2.3 2.3 0 01-.087-.626 2.395 2.395 0 114.789-.03 2.4 2.4 0 01-2.228 2.406l-.15.005c-.244 0-.483-.033-.715-.103a2.322 2.322 0 01-.431-.18l-2.132 6.126a1.414 1.414 0 01-1.326.949l-12.033.08v.002z" fill="#110A1D"/><path d="M83.197 50.633c-6.277 0-12.549-2.387-17.329-7.167-9.554-9.555-9.554-25.098 0-34.652a24.345 24.345 0 0117.329-7.178 24.345 24.345 0 0117.329 7.178c9.554 9.554 9.554 25.097 0 34.652-4.775 4.775-11.052 7.167-17.33 7.167zM67.154 42.18c8.845 8.844 23.236 8.844 32.08 0 8.845-8.845 8.845-23.236 0-32.08-4.286-4.286-9.981-6.642-16.042-6.642A22.554 22.554 0 0067.149 10.1c-8.844 8.844-8.844 23.235 0 32.08h.005z" fill="#7DDACF"/><path d="M84.104 20.981l-4.538 6.36h2.722v4.538l4.538-6.355h-2.722v-4.543z" fill="#7DDACF"/><path d="M83.192 17.447c-4.97 0-9.004 4.034-9.004 9.004s4.034 8.993 9.004 8.993 9.004-4.033 9.004-8.993-4.034-9.004-9.004-9.004zm0 16.886a7.905 7.905 0 01-7.903-7.903 7.905 7.905 0 017.903-7.903 7.905 7.905 0 017.903 7.903 7.905 7.905 0 01-7.903 7.903z" fill="#7DDACF"/><path d="M97.11 12.224c-3.714-3.72-8.659-5.762-13.917-5.762a19.565 19.565 0 00-13.918 5.762c-7.67 7.672-7.67 20.159 0 27.835a19.616 19.616 0 0013.918 5.758 19.62 19.62 0 0013.918-5.758c7.671-7.67 7.671-20.158 0-27.835zM83.194 38.665c-6.73 0-12.21-5.48-12.21-12.21 0-2.973 1.066-5.7 2.836-7.83l-1.493-1.492a1.098 1.098 0 111.554-1.554l1.492 1.492a12.09 12.09 0 016.725-2.783v-1.009H81.09c-.89 0-1.626-.736-1.626-1.626v-.849c0-.9.736-1.625 1.626-1.625h4.219c.89 0 1.625.725 1.625 1.625v.85c0 .89-.735 1.625-1.625 1.625H84.3v1.009a12.148 12.148 0 016.725 2.783l1.492-1.492a1.102 1.102 0 011.554 0 1.102 1.102 0 010 1.554l-1.492 1.492a12.2 12.2 0 012.835 7.83c0 6.73-5.48 12.21-12.21 12.21h-.01z" fill="#7DDACF"/><path d="M24.736 50.166c-13.506 0-24.49-10.99-24.49-24.491s10.99-24.49 24.49-24.49c13.5 0 24.49 10.989 24.49 24.49 0 13.5-10.99 24.49-24.49 24.49zm0-47.35c-12.606 0-22.86 10.253-22.86 22.859 0 12.605 10.254 22.86 22.86 22.86 12.605 0 22.86-10.255 22.86-22.86 0-12.606-10.255-22.86-22.86-22.86z" fill="#fff"/><path d="M40.716 8.199l-7.582 7.582 1.492 1.491 7.582-7.581-1.492-1.492zM14.618 34.298L7.036 41.88l1.492 1.491 7.582-7.581-1.492-1.492zm20.238-.001l-1.492 1.492 7.582 7.581 1.492-1.491-7.582-7.582zM8.533 7.97L7.042 9.46l7.578 7.58 1.492-1.492-7.579-7.579zm22.182 18.364a1.255 1.255 0 000-1.78l-1.05-1.045a1.255 1.255 0 00-1.78 0l-.566.566-.653-.653a1.255 1.255 0 00-1.78 0l-.567.57-.653-.658a1.255 1.255 0 00-1.78 0l-3.473 3.473c-.026.026-.026.067 0 .098a1.2 1.2 0 001.688 0l2.238-2.238a.618.618 0 01.874 0l.165.164c.03.031.03.078 0 .109l-1.868 1.867c-.026.026-.026.067 0 .098a1.2 1.2 0 001.688 0l2.145-2.146a.618.618 0 01.875 0l.165.165c.025.026.025.067 0 .098l-1.801 1.8c-.026.026-.026.068 0 .099.463.463 1.22.463 1.687 0l2.074-2.074a.618.618 0 01.875 0l.355.355a.363.363 0 010 .51l-.057.056a.363.363 0 01-.51 0l-.457-.458c-.026-.026-.067-.026-.098 0l-.792.792c-.026.026-.026.067 0 .098l.715.715a1.255 1.255 0 001.78 0l.566-.566-.005-.015z" fill="#fff"/><path d="M24.736 6.89c-10.372 0-18.78 8.407-18.78 18.78 0 10.372 8.408 18.78 18.78 18.78 10.373 0 18.78-8.408 18.78-18.78 0-10.373-8.407-18.78-18.78-18.78zm.767 5.799a12.957 12.957 0 017.872 3.262l-2.712 2.711a9.153 9.153 0 00-5.16-2.14v-3.833zm-1.528 0v3.833a9.118 9.118 0 00-5.16 2.14l-2.712-2.711a12.957 12.957 0 017.872-3.262zm-8.953 4.342l2.712 2.712a9.153 9.153 0 00-2.14 5.16H11.76a12.958 12.958 0 013.263-7.872zm-3.262 9.4h3.834a9.118 9.118 0 002.14 5.16l-2.712 2.712a12.958 12.958 0 01-3.262-7.872zm12.215 12.215a12.958 12.958 0 01-7.872-3.262l2.711-2.712a9.153 9.153 0 005.16 2.14v3.834zm-7.131-12.981a7.894 7.894 0 017.892-7.893 7.894 7.894 0 017.893 7.893 7.894 7.894 0 01-7.893 7.892 7.894 7.894 0 01-7.892-7.892zm8.659 12.98v-3.832a9.118 9.118 0 005.16-2.14l2.712 2.71a12.958 12.958 0 01-7.872 3.263zm8.953-4.342l-2.712-2.711a9.154 9.154 0 002.14-5.16h3.834a12.958 12.958 0 01-3.263 7.871zm-.572-9.4a9.118 9.118 0 00-2.14-5.16l2.712-2.712a12.958 12.958 0 013.261 7.872h-3.833z" fill="#fff"/></g></svg>