<svg width="102" height="1212" fill="none" xmlns="http://www.w3.org/2000/svg"><g opacity=".6"><path d="M1.547 1040.68c0-27.32 22.233-49.554 49.555-49.554 27.323 0 49.556 22.234 49.556 49.554s-22.233 49.56-49.556 49.56c-27.322 0-49.555-22.24-49.555-49.56zm95.54 0c0-25.35-20.63-45.984-45.985-45.984S5.117 1015.33 5.117 1040.68c0 25.36 20.63 45.99 45.985 45.99 25.356 0 45.986-20.63 45.986-45.99zM1.544 1161.83a1.779 1.779 0 113.56 0c0 25.35 20.63 45.98 45.985 45.98 25.356 0 45.986-20.63 45.986-45.98a1.778 1.778 0 113.559 0c0 27.32-22.232 49.55-49.555 49.55s-49.556-22.23-49.556-49.55h.021z" fill="#478BF9"/><path d="M99.143 1039.48H77.441v4.28h21.702v-4.28zm-74.723 0H2.72v4.28h21.7v-4.28zm28.99 28.98h-4.277v21.7h4.278v-21.7zm0-75.377h-4.277v21.697h4.278v-21.697z" fill="#478BF9"/><path d="M76.786 1014.47c-14.843-14.84-38.918-14.84-53.771 0-14.843 14.85-14.843 38.92 0 53.77 14.843 14.85 38.918 14.85 53.77 0 14.844-14.84 14.844-38.91 0-53.77zm-19.537 3.22a24.788 24.788 0 0111.23 7.26l.584.66-.854.2c-2.258.53-4.673.97-7.171 1.29l-.448.06-.125-.44c-.416-1.42-.905-2.8-1.468-4.07-.697-1.59-1.477-2.98-2.331-4.16l-.937-1.28 1.52.47v.01zm-17.372 22.48l.02-.54c.105-3.29.47-6.43 1.094-9.33l.093-.45.469.04c5.475.48 11.324.46 16.768-.05l.468-.05.104.46c.635 2.93 1 6.08 1.093 9.38v.54H39.877zm20.11 2.42v.54c-.115 3.3-.48 6.45-1.114 9.38l-.104.45-.469-.04c-5.444-.51-11.293-.52-16.768-.05l-.469.04-.093-.46c-.625-2.89-.99-6.02-1.093-9.32l-.021-.54h20.13zm-10.055-25.81c3.029 0 6.11 3.84 8.035 10.04l.198.62-.656.05c-2.56.22-5.204.34-7.858.34-2.467 0-4.924-.1-7.318-.29l-.655-.06.197-.63c1.926-6.22 5.017-10.08 8.057-10.08v.01zm-18.653 8.29a24.754 24.754 0 0111.335-7.37l1.53-.47-.947 1.29c-.853 1.17-1.644 2.57-2.331 4.15a33.697 33.697 0 00-1.489 4.15l-.125.42-.447-.05a70.428 70.428 0 01-7.245-1.26l-.864-.19.583-.67zm-6.078 14.54a24.868 24.868 0 013.768-11.46l.208-.32.375.09c2.664.68 5.537 1.22 8.555 1.6l.563.08-.115.56c-.625 3.02-.978 6.21-1.072 9.5v.51H25.169l.042-.56h-.01zm3.976 15.32l-.208-.32a24.83 24.83 0 01-3.768-11.46l-.042-.56h12.303v.51c.104 3.29.468 6.49 1.083 9.5l.114.56-.562.07c-3.008.39-5.891.93-8.556 1.61l-.375.09h.01zm13.437 10.14a24.754 24.754 0 01-11.335-7.37l-.583-.67.864-.19c2.29-.52 4.726-.95 7.245-1.26l.447-.06.125.43c.437 1.5.937 2.89 1.489 4.14.697 1.6 1.478 2.99 2.331 4.17l.947 1.29-1.53-.47v-.01zm7.318.9c-3.04 0-6.131-3.86-8.057-10.07l-.197-.64.655-.05a94.915 94.915 0 0115.176.04l.656.06-.198.62c-1.936 6.18-5.017 10.03-8.035 10.03v.01zm18.548-8.17a24.781 24.781 0 01-11.231 7.27l-1.52.47.937-1.28c.854-1.17 1.634-2.57 2.332-4.17a35.046 35.046 0 001.467-4.07l.125-.43.448.06c2.498.32 4.913.76 7.171 1.29l.854.21-.583.65zm6.172-14.65a24.751 24.751 0 01-3.84 11.58l-.209.33-.374-.1a70.48 70.48 0 00-8.494-1.65l-.562-.08.114-.55c.625-3.02.99-6.23 1.083-9.57v-.51h12.313l-.041.56.01-.01zm-12.261-2.98v-.51c-.104-3.34-.469-6.57-1.093-9.57l-.115-.56.562-.07c2.998-.4 5.85-.96 8.494-1.65l.375-.1.208.33a24.6 24.6 0 013.84 11.58l.042.56H62.401l-.01-.01zM1.484 1162.58v-119.6a1.779 1.779 0 113.56 0v119.6c0 .99-.801 1.78-1.78 1.78-.978 0-1.78-.8-1.78-1.78zm95.551.27v-119.6a1.779 1.779 0 113.56 0v119.6a1.779 1.779 0 11-3.56 0z" fill="#478BF9"/><path d="M16.617 953.672c-19.49-19.49-19.49-51.199 0-70.688 19.49-19.49 51.199-19.49 70.688 0 19.49 19.489 19.49 51.198 0 70.688-19.49 19.489-51.198 19.489-70.688 0zm68.333-68.333c-18.191-18.191-47.786-18.191-65.972 0-18.191 18.191-18.191 47.786 0 65.972 18.19 18.191 47.785 18.191 65.972 0 18.191-18.191 18.191-47.786 0-65.972z" fill="#fff"/><path d="M85.49 907.725a1.637 1.637 0 01-.399-.645c-1.73-5.119-4.555-9.655-8.394-13.494a34.672 34.672 0 00-13.494-8.394 1.666 1.666 0 01-1.133-1.578v-12.148a1.666 1.666 0 012.066-1.616 49.87 49.87 0 0123.16 13.134 49.922 49.922 0 0113.128 23.158c.123.497.01 1.024-.303 1.431-.318.408-.801.64-1.313.64H86.66c-.455 0-.872-.185-1.18-.493l.01.005zm-6.437-16.494a37.98 37.98 0 018.792 13.65h8.787a46.61 46.61 0 00-11.688-19.542 46.56 46.56 0 00-19.537-11.683v8.787a37.869 37.869 0 0113.65 8.792l-.004-.004zm-62.437 62.441a49.916 49.916 0 01-13.134-23.159 1.672 1.672 0 01.304-1.426c.317-.408.8-.64 1.313-.64h12.148c.715 0 1.35.455 1.578 1.133 1.73 5.118 4.555 9.654 8.394 13.494a34.672 34.672 0 0013.494 8.394 1.662 1.662 0 011.133 1.578v12.148c0 .512-.237.995-.64 1.313a1.673 1.673 0 01-1.432.303 49.927 49.927 0 01-23.158-13.129v-.009zm-9.332-21.898a46.61 46.61 0 0011.688 19.542 46.61 46.61 0 0019.542 11.688v-8.787a37.912 37.912 0 01-13.65-8.788 37.982 37.982 0 01-8.793-13.65H7.284v-.005zm55.282 34.591a1.665 1.665 0 01-.488-1.18v-12.148c0-.716.455-1.351 1.133-1.579 5.119-1.73 9.655-4.555 13.494-8.394a34.64 34.64 0 008.394-13.494 1.662 1.662 0 011.578-1.132h12.148c.512 0 .995.236 1.313.639.318.403.427.934.303 1.427a49.968 49.968 0 01-13.133 23.158 49.87 49.87 0 01-23.159 13.134 1.673 1.673 0 01-1.426-.303c-.052-.048-.105-.09-.152-.138l-.005.01zm2.844-12.153V963a46.612 46.612 0 0019.542-11.689A46.656 46.656 0 0096.64 931.77h-8.787c-1.92 5.147-4.873 9.73-8.792 13.65-3.916 3.915-8.504 6.873-13.65 8.792zM3.92 907.725a1.666 1.666 0 01-.436-1.583 49.87 49.87 0 0113.133-23.158 49.936 49.936 0 0123.158-13.134 1.676 1.676 0 011.427.303c.403.318.64.801.64 1.313v12.148c0 .716-.455 1.351-1.133 1.578-5.119 1.73-9.655 4.555-13.494 8.395a34.66 34.66 0 00-8.394 13.494 1.663 1.663 0 01-1.579 1.132H5.095c-.446 0-.873-.175-1.18-.483l.004-.005zm34.59-34.069a46.61 46.61 0 00-19.542 11.688A46.658 46.658 0 007.28 904.886h8.787c1.92-5.147 4.872-9.731 8.792-13.65a37.991 37.991 0 0113.65-8.793v-8.787z" fill="#fff"/><path d="M79.057 891.23c-14.94-14.939-39.255-14.944-54.194 0-14.945 14.945-14.94 39.255 0 54.194 14.94 14.94 39.25 14.945 54.194 0 14.944-14.944 14.94-39.254 0-54.194z" fill="#fff"/><path d="M65.784 932.005l-27.528.183a2.1 2.1 0 00-2.086 2.113l.007.981a2.1 2.1 0 002.113 2.086l27.528-.182a2.1 2.1 0 002.086-2.114l-.007-.981a2.1 2.1 0 00-2.114-2.086zm-23.778-16.616a2.04 2.04 0 01-.877-.199l-2.147-1.038a1.985 1.985 0 01-.971-2.522l.985-2.455a1.978 1.978 0 012.816-.981l2.56 1.46a1.985 1.985 0 01.65 2.843l-1.404 2.034a1.968 1.968 0 01-1.617.853l.005.005zm19.815-.133a1.986 1.986 0 01-1.626-.834l-1.388-1.958a1.98 1.98 0 01.611-2.853l2.64-1.55c.299-.175.64-.27.986-.275a1.983 1.983 0 011.844 1.218l.995 2.384a1.991 1.991 0 01-.938 2.536l-2.247 1.123c-.27.133-.574.209-.872.209h-.005z" fill="#110A1D"/><path d="M39.844 930.347a2.86 2.86 0 01-2.707-1.886l-4.593-12.641a4.926 4.926 0 01-.924.332 4.609 4.609 0 01-1.137.142 4.85 4.85 0 01-.654-.038 4.85 4.85 0 01-4.223-4.773 4.855 4.855 0 014.815-4.882 4.848 4.848 0 014.877 4.816c0 .616-.104 1.209-.322 1.763a5.28 5.28 0 01-.436.867l8.735 4.228 6.683-9.683a4.526 4.526 0 01-.805-.441 4.885 4.885 0 01-1.247-1.213 4.823 4.823 0 01-.896-2.773 4.855 4.855 0 015.176-4.872 4.857 4.857 0 014.503 4.474 4.83 4.83 0 01-.863 3.142 4.881 4.881 0 01-1.237 1.223 4.33 4.33 0 01-.801.441l6.801 9.584 8.594-4.299a5.021 5.021 0 01-.384-.967 4.715 4.715 0 01-.176-1.266 4.844 4.844 0 119.688-.061 4.852 4.852 0 01-4.507 4.867l-.304.01c-.493 0-.976-.066-1.445-.209a4.633 4.633 0 01-.872-.365l-4.313 12.395a2.86 2.86 0 01-2.683 1.919l-24.343.162v.004z" fill="#110A1D"/><path d="M51.553 840.627c-12.699 0-25.387-4.829-35.056-14.499-19.33-19.329-19.33-50.773 0-70.102 9.367-9.368 21.816-14.52 35.056-14.52 13.24 0 25.688 5.152 35.056 14.52 19.329 19.329 19.329 50.773 0 70.102-9.659 9.659-22.358 14.499-35.056 14.499zm-32.454-17.101c17.892 17.892 47.005 17.892 64.898 0 17.892-17.893 17.892-47.005 0-64.898-8.67-8.67-20.193-13.438-32.455-13.438-12.26 0-23.783 4.778-32.454 13.438-17.892 17.893-17.892 47.005 0 64.898h.01z" fill="#7DDACF"/><path d="M53.388 780.642l-9.181 12.865h5.506v9.181l9.18-12.855h-5.505v-9.191z" fill="#7DDACF"/><path d="M51.543 773.491c-10.054 0-18.215 8.161-18.215 18.215 0 10.055 8.16 18.195 18.215 18.195s18.215-8.161 18.215-18.195-8.16-18.215-18.215-18.215zm0 34.161c-8.826 0-15.987-7.161-15.987-15.987 0-8.827 7.16-15.988 15.987-15.988s15.988 7.161 15.988 15.988c0 8.826-7.161 15.987-15.988 15.987z" fill="#7DDACF"/><path d="M79.7 762.927c-7.515-7.526-17.518-11.658-28.155-11.658-10.638 0-20.63 4.143-28.155 11.658-15.52 15.519-15.52 40.781 0 56.31 7.764 7.765 17.954 11.648 28.155 11.648 10.2 0 20.39-3.883 28.155-11.648 15.52-15.519 15.52-40.781 0-56.31zm-28.155 53.49c-13.615 0-24.7-11.086-24.7-24.7 0-6.016 2.155-11.533 5.735-15.842l-3.018-3.018a2.231 2.231 0 010-3.144c.864-.874 2.269-.864 3.143 0l3.019 3.019c3.747-3.133 8.462-5.194 13.604-5.631v-2.041h-2.04a3.31 3.31 0 01-3.29-3.289v-1.717a3.296 3.296 0 013.29-3.289h8.535c1.8 0 3.289 1.467 3.289 3.289v1.717a3.31 3.31 0 01-3.29 3.289h-2.04v2.041c5.153.447 9.858 2.508 13.605 5.631l3.018-3.019a2.23 2.23 0 013.144 0 2.231 2.231 0 010 3.144l-3.019 3.018c3.58 4.309 5.735 9.815 5.735 15.842 0 13.614-11.085 24.7-24.7 24.7h-.02z" fill="#7DDACF"/><path d="M50.545 722.344C23.222 722.344 1 700.111 1 672.799c0-27.313 22.233-49.546 49.545-49.546s49.545 22.233 49.545 49.546c0 27.312-22.233 49.545-49.545 49.545zm0-95.791c-25.501 0-46.245 20.744-46.245 46.246 0 25.501 20.744 46.245 46.245 46.245 25.501 0 46.246-20.744 46.246-46.245 0-25.502-20.745-46.246-46.246-46.246z" fill="#fff"/><path d="M82.873 637.444l-15.338 15.339 3.018 3.017 15.338-15.338-3.018-3.018zm-52.797 52.799l-15.338 15.339 3.018 3.017 15.338-15.338-3.018-3.018zm40.941-.003L68 693.258l15.338 15.338 3.018-3.018-15.338-15.338zm-53.25-53.261l-3.017 3.018 15.33 15.331 3.018-3.018-15.33-15.331zm44.874 37.152c1-1 1-2.613 0-3.602l-2.123-2.113a2.538 2.538 0 00-3.602 0l-1.145 1.145-1.322-1.322a2.538 2.538 0 00-3.601 0l-1.145 1.156-1.322-1.333a2.538 2.538 0 00-3.601 0l-7.026 7.026c-.052.052-.052.136 0 .198a2.425 2.425 0 003.414 0l4.528-4.528a1.25 1.25 0 011.77 0l.332.333a.151.151 0 010 .219l-3.778 3.778c-.052.052-.052.136 0 .198a2.425 2.425 0 003.414 0l4.34-4.34a1.25 1.25 0 011.77 0l.333.333c.052.052.052.135 0 .197l-3.643 3.643c-.052.053-.052.136 0 .198a2.425 2.425 0 003.414 0l4.194-4.194a1.25 1.25 0 011.77 0l.718.718a.735.735 0 010 1.03l-.114.115a.735.735 0 01-1.03 0l-.927-.927c-.052-.052-.135-.052-.198 0l-1.603 1.603c-.052.052-.052.136 0 .198l1.447 1.447c1 .999 2.613.999 3.601 0l1.145-1.145-.01-.031z" fill="#fff"/><path d="M50.546 634.796c-20.984 0-37.991 17.008-37.991 37.992 0 20.984 17.007 37.991 37.991 37.991 20.984 0 37.992-17.007 37.992-37.991 0-20.984-17.008-37.992-37.992-37.992zm1.551 11.731a26.213 26.213 0 0115.925 6.599l-5.485 5.485a18.518 18.518 0 00-10.44-4.33v-7.754zm-3.091 0v7.754a18.449 18.449 0 00-10.44 4.33l-5.486-5.485a26.212 26.212 0 0115.926-6.599zm-18.111 8.785l5.485 5.485a18.519 18.519 0 00-4.33 10.44h-7.754a26.214 26.214 0 016.599-15.925zm-6.6 19.016h7.755a18.444 18.444 0 004.33 10.44l-5.485 5.486a26.217 26.217 0 01-6.6-15.926zm24.71 24.71a26.206 26.206 0 01-15.925-6.599l5.486-5.485a18.518 18.518 0 0010.44 4.33v7.754zM34.58 672.777c0-8.816 7.151-15.966 15.967-15.966s15.967 7.15 15.967 15.966c0 8.817-7.15 15.967-15.967 15.967-8.816 0-15.967-7.15-15.967-15.967zm17.518 26.261v-7.754a18.45 18.45 0 0010.44-4.33l5.485 5.485a26.207 26.207 0 01-15.925 6.599zm18.111-8.784l-5.485-5.486a18.516 18.516 0 004.33-10.44h7.754a26.217 26.217 0 01-6.599 15.926zm-1.155-19.017a18.446 18.446 0 00-4.33-10.44l5.485-5.485a26.215 26.215 0 016.6 15.925h-7.755z" fill="#fff"/><path d="M1.547 417.461c0-27.322 22.233-49.555 49.555-49.555 27.323 0 49.556 22.233 49.556 49.555 0 27.323-22.233 49.556-49.556 49.556-27.322 0-49.555-22.233-49.555-49.556zm95.54 0c0-25.355-20.63-45.985-45.985-45.985s-45.985 20.63-45.985 45.985c0 25.356 20.63 45.986 45.985 45.986 25.356 0 45.986-20.63 45.986-45.986zM1.544 538.608a1.78 1.78 0 113.56 0c0 25.355 20.63 45.985 45.985 45.985 25.356 0 45.986-20.63 45.986-45.985a1.78 1.78 0 113.559 0c0 27.322-22.232 49.555-49.555 49.555S1.523 565.93 1.523 538.608h.021z" fill="#478BF9"/><path d="M99.143 416.265H77.441v4.278h21.702v-4.278zm-74.723 0H2.72v4.278h21.7v-4.278zm28.99 28.977h-4.277v21.702h4.278v-21.702zm0-75.379h-4.277v21.702h4.278v-21.702z" fill="#478BF9"/><path d="M76.786 391.253c-14.843-14.843-38.918-14.843-53.771 0-14.843 14.842-14.843 38.918 0 53.771 14.843 14.842 38.918 14.842 53.77 0 14.844-14.843 14.844-38.918 0-53.771zm-19.537 3.216a24.79 24.79 0 0111.23 7.265l.584.656-.854.198a71.6 71.6 0 01-7.171 1.29l-.448.063-.125-.437a32.87 32.87 0 00-1.468-4.07c-.697-1.593-1.477-2.987-2.331-4.164l-.937-1.28 1.52.469v.01zm-17.372 22.483l.02-.542c.105-3.289.47-6.432 1.094-9.326l.093-.458.469.042a94.946 94.946 0 0016.768-.052l.468-.042.104.458c.635 2.925 1 6.079 1.093 9.378v.542H39.877zm20.11 2.414v.542c-.115 3.299-.48 6.453-1.114 9.378l-.104.458-.469-.042c-5.444-.51-11.293-.52-16.768-.052l-.469.042-.093-.458c-.625-2.894-.99-6.027-1.093-9.326l-.021-.542h20.13zm-10.055-25.803c3.029 0 6.11 3.841 8.035 10.034l.198.625-.656.052c-2.56.218-5.204.333-7.858.333a89.08 89.08 0 01-7.318-.292l-.655-.052.197-.634c1.926-6.214 5.017-10.076 8.057-10.076v.01zm-18.653 8.286a24.81 24.81 0 0111.335-7.37l1.53-.468-.947 1.291c-.853 1.165-1.644 2.571-2.331 4.153a33.561 33.561 0 00-1.489 4.142l-.125.427-.447-.052a70.977 70.977 0 01-7.245-1.259l-.864-.198.583-.666zm-6.078 14.541a24.849 24.849 0 013.768-11.46l.208-.323.375.094a72.14 72.14 0 008.555 1.603l.563.072-.115.562c-.625 3.019-.978 6.214-1.072 9.504v.51H25.169l.042-.562h-.01zm3.976 15.321l-.208-.323a24.81 24.81 0 01-3.768-11.46l-.042-.562h12.303v.51c.104 3.29.468 6.495 1.083 9.503l.114.563-.562.072a72.542 72.542 0 00-8.556 1.603l-.375.094h.01zm13.437 10.138a24.808 24.808 0 01-11.335-7.369l-.583-.666.864-.198a73.833 73.833 0 017.245-1.26l.447-.052.125.427a33.578 33.578 0 001.489 4.143c.697 1.592 1.478 2.987 2.331 4.163l.947 1.291-1.53-.469v-.01zm7.318.906c-3.04 0-6.131-3.862-8.057-10.076l-.197-.635.655-.052a93.534 93.534 0 0115.176.042l.656.052-.198.624c-1.936 6.183-5.017 10.034-8.035 10.034v.011zm18.548-8.171a24.845 24.845 0 01-11.231 7.265l-1.52.468.937-1.28c.854-1.166 1.634-2.571 2.332-4.163a35.384 35.384 0 001.467-4.07l.125-.437.448.062c2.498.323 4.913.76 7.171 1.291l.854.208-.583.656zm6.172-14.656a24.789 24.789 0 01-3.84 11.585l-.209.323-.374-.094c-2.634-.697-5.496-1.249-8.494-1.655l-.562-.073.114-.551c.625-3.019.99-6.235 1.083-9.576v-.51h12.313l-.041.562.01-.011zm-12.261-2.976v-.51c-.104-3.342-.469-6.568-1.093-9.576l-.115-.552.562-.073c2.998-.406 5.85-.958 8.494-1.655l.375-.094.208.323a24.64 24.64 0 013.84 11.585l.042.562H62.401l-.01-.01zM1.484 539.357V419.761a1.78 1.78 0 113.56 0v119.596a1.779 1.779 0 11-3.56 0zm95.551.271V420.032a1.78 1.78 0 113.56 0v119.596a1.779 1.779 0 11-3.56 0z" fill="#478BF9"/><path d="M14.828 330.452c-19.49-19.49-19.49-51.198 0-70.688 19.49-19.49 51.199-19.49 70.688 0 19.49 19.49 19.49 51.198 0 70.688-19.49 19.49-51.198 19.49-70.688 0zm68.333-68.333c-18.191-18.191-47.786-18.191-65.972 0-18.191 18.191-18.191 47.786 0 65.973 18.19 18.191 47.785 18.191 65.972 0 18.191-18.191 18.191-47.786 0-65.973z" fill="#fff"/><path d="M83.7 284.505a1.642 1.642 0 01-.398-.644c-1.73-5.119-4.555-9.655-8.394-13.494a34.648 34.648 0 00-13.494-8.394 1.669 1.669 0 01-1.133-1.579v-12.148a1.666 1.666 0 012.067-1.616 49.87 49.87 0 0123.158 13.134 49.929 49.929 0 0113.13 23.158 1.692 1.692 0 01-.304 1.431c-.318.408-.801.64-1.313.64H84.87c-.455 0-.872-.185-1.18-.493l.01.005zm-6.436-16.494a37.98 37.98 0 018.792 13.65h8.787a46.61 46.61 0 00-11.688-19.542 46.571 46.571 0 00-19.537-11.683v8.787a37.857 37.857 0 0113.65 8.793l-.004-.005zm-62.437 62.441a49.917 49.917 0 01-13.134-23.158 1.673 1.673 0 01.304-1.427c.317-.408.8-.64 1.313-.64h12.147c.716 0 1.351.455 1.579 1.133 1.73 5.119 4.555 9.655 8.394 13.494a34.671 34.671 0 0013.494 8.394 1.662 1.662 0 011.133 1.578v12.148a1.667 1.667 0 01-2.071 1.616 49.918 49.918 0 01-23.159-13.129v-.009zm-9.332-21.898a46.61 46.61 0 0011.688 19.542 46.6 46.6 0 0019.542 11.688v-8.787a37.912 37.912 0 01-13.65-8.788 37.98 37.98 0 01-8.793-13.65H5.495v-.005zm55.282 34.591a1.664 1.664 0 01-.488-1.18v-12.148c0-.716.455-1.351 1.133-1.578 5.119-1.73 9.655-4.555 13.494-8.394a34.654 34.654 0 008.394-13.494 1.663 1.663 0 011.578-1.133h12.148c.512 0 .995.237 1.313.64.318.402.427.933.303 1.426a49.982 49.982 0 01-13.133 23.159 49.868 49.868 0 01-23.159 13.133 1.67 1.67 0 01-1.426-.303c-.052-.047-.105-.09-.152-.137l-.005.009zm2.844-12.153v8.788a46.61 46.61 0 0019.542-11.688A46.658 46.658 0 0094.85 308.55h-8.787c-1.92 5.147-4.873 9.73-8.792 13.65-3.916 3.915-8.504 6.873-13.65 8.792zM2.13 284.505a1.668 1.668 0 01-.436-1.583 49.876 49.876 0 0113.134-23.158 49.936 49.936 0 0123.158-13.134 1.673 1.673 0 011.427.304c.403.317.64.801.64 1.313v12.147c0 .716-.455 1.351-1.133 1.579-5.12 1.73-9.655 4.555-13.494 8.394a34.66 34.66 0 00-8.394 13.494 1.663 1.663 0 01-1.579 1.133H3.306c-.446 0-.873-.176-1.18-.484l.004-.005zm34.59-34.069a46.62 46.62 0 00-19.541 11.688A46.659 46.659 0 005.49 281.666h8.787c1.92-5.147 4.872-9.73 8.792-13.65a37.976 37.976 0 0113.65-8.792v-8.788z" fill="#fff"/><path d="M77.268 268.011c-14.94-14.94-39.255-14.945-54.194 0-14.945 14.944-14.94 39.254 0 54.194 14.94 14.939 39.25 14.944 54.194 0 14.944-14.945 14.94-39.255 0-54.194z" fill="#fff"/><path d="M63.994 308.785l-27.527.183a2.1 2.1 0 00-2.086 2.114l.007.981a2.1 2.1 0 002.113 2.085l27.528-.182a2.1 2.1 0 002.086-2.114l-.007-.981a2.1 2.1 0 00-2.114-2.086zm-23.777-16.616c-.298 0-.602-.066-.877-.199l-2.147-1.038a1.984 1.984 0 01-.971-2.522l.986-2.455a1.977 1.977 0 012.815-.981l2.56 1.46a1.985 1.985 0 01.65 2.844l-1.404 2.033a1.968 1.968 0 01-1.617.853l.005.005zm19.815-.133a1.986 1.986 0 01-1.626-.834l-1.388-1.957a1.978 1.978 0 01.611-2.854l2.64-1.55c.299-.175.64-.27.986-.275a1.984 1.984 0 011.844 1.219l.995 2.384a1.99 1.99 0 01-.938 2.535l-2.247 1.124a2.01 2.01 0 01-.872.208h-.005z" fill="#110A1D"/><path d="M38.055 307.128a2.86 2.86 0 01-2.707-1.887L30.756 292.6a4.79 4.79 0 01-.925.332 4.607 4.607 0 01-1.137.142 4.85 4.85 0 01-.654-.038 4.85 4.85 0 01-4.223-4.772 4.854 4.854 0 014.815-4.882 4.847 4.847 0 014.877 4.815c0 .616-.104 1.209-.322 1.763a5.29 5.29 0 01-.436.868l8.735 4.228 6.683-9.684a4.533 4.533 0 01-.806-.441 4.885 4.885 0 01-1.246-1.213 4.819 4.819 0 01-.896-2.773 4.855 4.855 0 015.176-4.872 4.858 4.858 0 014.503 4.474 4.835 4.835 0 01-2.1 4.366 4.387 4.387 0 01-.801.44l6.801 9.584 8.594-4.299a4.996 4.996 0 01-.384-.967 4.708 4.708 0 01-.176-1.265 4.844 4.844 0 014.81-4.877 4.847 4.847 0 01.37 9.683l-.303.009c-.493 0-.976-.066-1.445-.208a4.767 4.767 0 01-.872-.365l-4.314 12.394a2.862 2.862 0 01-2.682 1.92l-24.343.161v.005z" fill="#110A1D"/><path d="M50.615 217.407c-12.698 0-25.386-4.83-35.056-14.499-19.329-19.329-19.329-50.773 0-70.102 9.368-9.368 21.817-14.52 35.056-14.52 13.24 0 25.689 5.152 35.057 14.52 19.329 19.329 19.329 50.773 0 70.102-9.66 9.659-22.358 14.499-35.057 14.499zm-32.454-17.101c17.893 17.892 47.006 17.892 64.898 0 17.893-17.893 17.893-47.006 0-64.898-8.67-8.671-20.193-13.438-32.454-13.438s-23.784 4.778-32.454 13.438C.258 153.3.258 182.413 18.15 200.306h.01z" fill="#7DDACF"/><path d="M52.45 157.422l-9.18 12.865h5.506v9.18l9.18-12.854H52.45v-9.191z" fill="#7DDACF"/><path d="M50.606 150.271c-10.055 0-18.215 8.161-18.215 18.216 0 10.054 8.16 18.194 18.215 18.194 10.054 0 18.215-8.16 18.215-18.194 0-10.034-8.16-18.216-18.215-18.216zm0 34.162c-8.827 0-15.988-7.161-15.988-15.988s7.161-15.988 15.988-15.988c8.826 0 15.988 7.161 15.988 15.988s-7.162 15.988-15.988 15.988z" fill="#7DDACF"/><path d="M78.763 139.707c-7.515-7.526-17.518-11.658-28.156-11.658-10.637 0-20.63 4.142-28.155 11.658-15.52 15.519-15.52 40.781 0 56.31 7.765 7.765 17.955 11.647 28.155 11.647 10.2 0 20.39-3.882 28.156-11.647 15.519-15.519 15.519-40.781 0-56.31zm-28.156 53.49c-13.614 0-24.7-11.086-24.7-24.7 0-6.016 2.155-11.533 5.736-15.842l-3.019-3.019a2.23 2.23 0 010-3.143c.864-.874 2.27-.864 3.144 0l3.018 3.018c3.747-3.133 8.462-5.193 13.604-5.631v-2.04h-2.04a3.31 3.31 0 01-3.289-3.289v-1.717a3.296 3.296 0 013.29-3.289h8.534a3.296 3.296 0 013.29 3.289v1.717a3.31 3.31 0 01-3.29 3.289h-2.04v2.04c5.153.448 9.857 2.509 13.604 5.631l3.019-3.018a2.23 2.23 0 013.143 0 2.23 2.23 0 010 3.143l-3.018 3.019c3.58 4.309 5.735 9.815 5.735 15.842 0 13.614-11.085 24.7-24.7 24.7h-.02z" fill="#7DDACF"/><path d="M51.545 99.123C24.222 99.123 2 76.891 2 49.578 2 22.266 24.233.033 51.545.033s49.545 22.233 49.545 49.545c0 27.313-22.233 49.545-49.545 49.545zm0-95.79C26.044 3.333 5.3 24.077 5.3 49.578c0 25.501 20.744 46.246 46.245 46.246 25.501 0 46.246-20.745 46.246-46.246 0-25.5-20.745-46.245-46.246-46.245z" fill="#fff"/><path d="M83.873 14.224L68.535 29.562l3.018 3.018L86.89 17.242l-3.018-3.018zM31.076 67.023L15.738 82.361l3.018 3.018L34.094 70.04l-3.018-3.018zm40.941-.003L69 70.038l15.338 15.338 3.018-3.017L72.018 67.02zm-53.25-53.26l-3.017 3.017 15.33 15.33 3.018-3.017-15.33-15.33zm44.874 37.15c1-.999 1-2.612 0-3.601l-2.123-2.113c-1-1-2.613-1-3.602 0l-1.145 1.145-1.322-1.322c-.999-1-2.612-1-3.601 0l-1.145 1.156-1.322-1.333a2.538 2.538 0 00-3.601 0l-7.026 7.026c-.052.052-.052.135 0 .198a2.425 2.425 0 003.414 0l4.528-4.528a1.25 1.25 0 011.77 0l.332.333a.15.15 0 010 .219l-3.778 3.778c-.052.052-.052.135 0 .198a2.425 2.425 0 003.414 0l4.34-4.34a1.25 1.25 0 011.77 0l.333.333c.052.052.052.135 0 .197L51.234 51.9c-.052.052-.052.136 0 .198a2.425 2.425 0 003.414 0l4.194-4.195a1.25 1.25 0 011.77 0l.718.718a.735.735 0 010 1.031l-.114.114a.735.735 0 01-1.03 0l-.927-.926c-.052-.052-.135-.052-.198 0l-1.603 1.603c-.052.052-.052.135 0 .198l1.447 1.447c1 .999 2.613.999 3.601 0l1.145-1.145-.01-.032z" fill="#fff"/><path d="M51.546 11.576c-20.984 0-37.991 17.008-37.991 37.992 0 20.984 17.007 37.991 37.991 37.991 20.984 0 37.992-17.007 37.992-37.991 0-20.984-17.008-37.992-37.992-37.992zm1.551 11.73c6.1.355 11.637 2.79 15.925 6.6l-5.485 5.485a18.517 18.517 0 00-10.44-4.33v-7.754zm-3.091 0v7.755a18.445 18.445 0 00-10.44 4.33l-5.486-5.485a26.214 26.214 0 0115.926-6.6zm-18.111 8.786l5.485 5.485a18.517 18.517 0 00-4.33 10.44h-7.754a26.214 26.214 0 016.599-15.925zm-6.6 19.016h7.755a18.445 18.445 0 004.33 10.44l-5.485 5.485a26.214 26.214 0 01-6.6-15.925zm24.71 24.71A26.215 26.215 0 0134.08 69.22l5.486-5.485a18.517 18.517 0 0010.44 4.33v7.754zM35.58 49.558c0-8.817 7.151-15.968 15.967-15.968s15.967 7.151 15.967 15.967-7.15 15.967-15.967 15.967c-8.816 0-15.967-7.15-15.967-15.967zm17.518 26.26v-7.754a18.445 18.445 0 0010.44-4.33l5.485 5.485a26.215 26.215 0 01-15.925 6.6zm18.111-8.785l-5.485-5.485a18.517 18.517 0 004.33-10.44h7.754a26.215 26.215 0 01-6.599 15.925zm-1.155-19.016a18.445 18.445 0 00-4.33-10.44l5.485-5.485a26.215 26.215 0 016.6 15.925h-7.755z" fill="#fff"/></g></svg>