<svg width="101" height="1299" fill="none" xmlns="http://www.w3.org/2000/svg"><g opacity=".4"><path d="M49.983 1298.22c-12.699 0-25.387-4.83-35.057-14.5-19.329-19.33-19.329-50.77 0-70.1 9.368-9.37 21.817-14.52 35.057-14.52 13.24 0 25.688 5.15 35.056 14.52 19.329 19.33 19.329 50.77 0 70.1-9.66 9.66-22.358 14.5-35.056 14.5zm-32.454-17.1c17.892 17.89 47.005 17.89 64.897 0 17.893-17.89 17.893-47.01 0-64.9-8.67-8.67-20.193-13.44-32.454-13.44s-23.784 4.78-32.454 13.44c-17.892 17.89-17.892 47.01 0 64.9h.01z" fill="#9DADF2"/><path d="M49.327 1267.21c.177.43.593.68 1.03.68.146 0 .292-.03.438-.08a25.747 25.747 0 009.2-6.57 1.115 1.115 0 00-1.665-1.48 23.39 23.39 0 01-8.4 6c-.561.23-.832.89-.593 1.45h-.01z" fill="#9DADF2"/><path d="M68.873 1231.53l-18.486-7.39c-.27-.1-.562-.1-.833 0l-18.485 7.39c-.427.17-.698.57-.698 1.03v13.24c.021 12.22 7.744 23.27 19.215 27.47a1.24 1.24 0 00.77 0c11.47-4.22 19.193-15.25 19.214-27.47v-13.24c0-.46-.27-.86-.697-1.03zm-1.53 14.27c-.021 11.12-6.995 21.25-17.362 25.23-10.367-3.98-17.351-14.11-17.372-25.23v-12.48l17.372-6.94 17.362 6.94v12.48z" fill="#9DADF2"/><path d="M42.258 1233.27c-.27-.11-.572-.11-.853 0l-4.403 1.76c-.427.17-.697.57-.697 1.03v4.69c0 .62.5 1.12 1.113 1.12.614 0 1.114-.5 1.114-1.12v-3.93l3.695-1.48c.281-.11.49-.32.614-.6a1.12 1.12 0 000-.86 1.122 1.122 0 00-.593-.61h.01z" fill="#9DADF2"/><path d="M78.126 1220.52c-7.515-7.53-17.518-11.66-28.155-11.66-10.638 0-20.63 4.14-28.156 11.66-15.519 15.52-15.519 40.78 0 56.31 7.765 7.77 17.955 11.64 28.156 11.64 10.2 0 20.39-3.89 28.155-11.64 15.52-15.52 15.52-40.78 0-56.31zm-5.506 25.28c.031 14.13-8.993 26.48-22.452 30.76a.667.667 0 01-.395 0c-13.459-4.28-22.483-16.63-22.452-30.76v-15.62c0-.26.156-.5.406-.6l22.004-8.8a.633.633 0 01.24-.04c.083 0 .166.01.239.04l22.004 8.81c.25.09.406.33.406.6v15.62-.01z" fill="#9DADF2"/><path d="M50.127 1171.61c-27.322 0-49.545-22.23-49.545-49.55 0-27.31 22.233-49.54 49.545-49.54 27.313 0 49.545 22.23 49.545 49.54 0 27.32-22.232 49.55-49.545 49.55zm0-95.79c-25.5 0-46.245 20.74-46.245 46.24 0 25.51 20.744 46.25 46.245 46.25 25.502 0 46.246-20.74 46.246-46.25 0-25.5-20.745-46.24-46.246-46.24z" fill="#fff"/><path d="M66.198 1091.12c-.25 0-.5-.05-.729-.17a34.359 34.359 0 00-15.342-3.58 34.358 34.358 0 00-15.342 3.58c-.635.32-1.395.19-1.895-.31l-8.514-8.51a1.66 1.66 0 01-.468-1.38c.062-.51.354-.96.79-1.22a49.457 49.457 0 0125.44-7.02 49.55 49.55 0 0125.438 7.02c.437.26.729.71.791 1.22.063.51-.114 1.01-.468 1.38l-8.514 8.51a1.69 1.69 0 01-1.177.48h-.01zm-16.071-7.05c5.485 0 10.773 1.15 15.727 3.41l6.162-6.17a46.167 46.167 0 00-21.889-5.5c-7.66 0-15.186 1.89-21.89 5.5l6.163 6.17a37.626 37.626 0 0115.727-3.41zm-.002 87.54a49.562 49.562 0 01-25.439-7.03c-.437-.26-.728-.7-.79-1.21-.063-.51.114-1.01.468-1.38l8.514-8.51c.5-.5 1.27-.63 1.895-.31a34.358 34.358 0 0015.342 3.58c5.381 0 10.544-1.21 15.342-3.58a1.634 1.634 0 011.895.31l8.514 8.51a1.66 1.66 0 01-.323 2.59 49.467 49.467 0 01-25.439 7.03h.021zm-21.89-8.81a46.061 46.061 0 0021.89 5.51 46.06 46.06 0 0021.89-5.51l-6.162-6.16a37.626 37.626 0 01-15.728 3.41 37.626 37.626 0 01-15.727-3.41l-6.162 6.16zm62.998-14.51a1.64 1.64 0 01-1.166-.47l-8.514-8.52c-.5-.5-.624-1.27-.312-1.89 2.373-4.8 3.58-9.96 3.58-15.35 0-5.38-1.207-10.54-3.58-15.34a1.64 1.64 0 01.312-1.89l8.514-8.52c.365-.36.864-.53 1.374-.47.51.07.958.36 1.218.8a49.428 49.428 0 017.026 25.43c0 8.98-2.425 17.77-7.026 25.44-.26.44-.708.73-1.218.79h-.208v-.01zm-6.526-10.51l6.162 6.16a46.148 46.148 0 005.506-21.89c0-7.66-1.894-15.18-5.506-21.89l-6.162 6.17a37.61 37.61 0 013.404 15.72c0 5.49-1.145 10.78-3.404 15.73zm-75.683 10.51c-.073 0-.135 0-.198-.01a1.63 1.63 0 01-1.218-.79 49.437 49.437 0 01-7.026-25.44 49.49 49.49 0 017.026-25.44c.26-.43.708-.72 1.218-.79.51-.06 1.01.12 1.374.47l8.514 8.52c.5.5.625 1.27.313 1.89a34.317 34.317 0 00-3.581 15.34 34.36 34.36 0 003.58 15.35c.313.63.188 1.4-.312 1.89l-8.514 8.51c-.312.32-.729.49-1.166.49l-.01.01zm.364-48.13a46.177 46.177 0 00-5.506 21.89c0 7.66 1.894 15.19 5.506 21.89l6.162-6.16c-2.259-4.95-3.404-10.24-3.404-15.73a37.61 37.61 0 013.404-15.72l-6.162-6.17z" fill="#fff"/><path d="M50.128 1084.07c-20.942 0-37.991 17.04-37.991 37.99 0 20.96 17.039 38 37.991 38 20.953 0 37.992-17.04 37.992-38 0-20.95-17.04-37.99-37.992-37.99zm21.38 25.51c1.8 3.09 2.893 6.45 3.247 10.02.01.14-.052.28-.177.35a32.038 32.038 0 00-7.255 6.09.334.334 0 01-.385.1l-4.694-1.53a.35.35 0 01-.25-.3c-.53-3.88-1.738-7.6-3.59-11.05a.377.377 0 01.03-.39l2.904-3.99a.38.38 0 01.302-.16h.084c3.101.69 6.286.92 9.45.66a.38.38 0 01.354.18l-.02.02zm-12.074 15.39c.01.1-.021.21-.084.28a24.907 24.907 0 01-9.076 6.58.344.344 0 01-.281 0 25.14 25.14 0 01-9.076-6.58.377.377 0 01-.084-.28 30.126 30.126 0 013.477-10.7c.052-.1.135-.16.24-.18a27.52 27.52 0 015.589-.58c1.884 0 3.757.2 5.59.58.103.02.187.08.239.18a30.334 30.334 0 013.476 10.7h-.01zm-.562-25.84s.124-.1.25-.1c.041 0 .093 0 .145.03 3.83 1.52 7.255 4.02 9.92 7.21.135.16.083.33.052.39a.36.36 0 01-.334.22c-2.362.03-4.715-.24-6.994-.78a.386.386 0 01-.23-.17 29.471 29.471 0 01-2.903-6.42.36.36 0 01.104-.38h-.01zm-14-1.24c3.445-.74 7.078-.74 10.523 0 .135.03.25.13.281.27a31.921 31.921 0 003.55 8.78.39.39 0 01-.021.41l-2.883 3.97a.356.356 0 01-.365.15 29.65 29.65 0 00-11.647 0 .356.356 0 01-.364-.15l-2.884-3.97a.388.388 0 01-.02-.41 31.924 31.924 0 003.549-8.78.363.363 0 01.281-.27zm-13.791 8.38c2.664-3.2 6.089-5.7 9.919-7.21a.423.423 0 01.146-.03.36.36 0 01.25.1c.051.06.166.18.104.38a29.259 29.259 0 01-2.904 6.42.385.385 0 01-.23.17c-2.279.54-4.631.81-6.994.78a.36.36 0 01-.333-.22.353.353 0 01.052-.39h-.01zm-2.322 3.31a.37.37 0 01.323-.18h.031c3.175.25 6.36.03 9.451-.66.146-.03.292.02.375.15l2.904 3.99c.083.12.094.27.031.39a32.635 32.635 0 00-3.59 11.05.376.376 0 01-.25.3l-4.695 1.53a.368.368 0 01-.385-.1 32.038 32.038 0 00-7.255-6.09.385.385 0 01-.177-.35 24.499 24.499 0 013.248-10.02l-.01-.01zm1.135 25.65c-.063.2-.24.24-.312.25-.073 0-.24 0-.354-.17a24.652 24.652 0 01-3.789-11.66.364.364 0 01.187-.35c.063-.03.23-.1.396.02a29.165 29.165 0 015.204 4.75c.063.07.094.17.084.27a28.596 28.596 0 01-1.426 6.9l.01-.01zm10.284 9.5c-3.248-1.42-6.11-3.51-8.504-6.2a.367.367 0 01-.073-.38 31.904 31.904 0 002.29-9.2.36.36 0 01.25-.31l4.642-1.51s.073-.02.114-.02c.105 0 .198.04.271.13a27.865 27.865 0 009.43 6.86c.136.06.219.18.219.33v4.88c0 .15-.083.28-.219.33a31.896 31.896 0 00-8.046 5.03c-.104.1-.26.12-.385.05l.01.01zm16.373 1.03a.356.356 0 01-.271.3 25.031 25.031 0 01-12.282 0 .373.373 0 01-.271-.3.363.363 0 01.146-.37 29.028 29.028 0 016.13-3.49.344.344 0 01.282 0 29.56 29.56 0 016.13 3.49c.167.12.156.3.146.37h-.01zm12.063-7.22a24.404 24.404 0 01-8.504 6.19.34.34 0 01-.385-.05 31.713 31.713 0 00-8.046-5.03.352.352 0 01-.218-.33v-4.88c0-.15.083-.28.218-.33a27.632 27.632 0 009.43-6.86.335.335 0 01.271-.13c.042 0 .073 0 .115.02l4.642 1.51c.135.04.24.17.25.32a31.998 31.998 0 002.29 9.19.35.35 0 01-.073.38h.01zm2.436-3.22a.356.356 0 01-.354.17c-.073 0-.24-.05-.313-.25a29.632 29.632 0 01-1.425-6.9c0-.09.02-.2.083-.27a29.552 29.552 0 015.204-4.75.37.37 0 01.208-.07c.084 0 .146.03.188.05.062.03.208.14.187.35a24.65 24.65 0 01-3.789 11.66l.01.01z" fill="#fff"/><path d="M49.983 1048.15c-12.699 0-25.387-4.83-35.057-14.5-19.329-19.33-19.329-50.77 0-70.099 9.368-9.367 21.817-14.52 35.057-14.52 13.24 0 25.688 5.153 35.056 14.52 19.329 19.329 19.329 50.769 0 70.099-9.66 9.66-22.358 14.5-35.056 14.5zm-32.454-17.1c17.892 17.89 47.005 17.89 64.897 0 17.893-17.89 17.893-47.004 0-64.897-8.67-8.67-20.193-13.437-32.454-13.437s-23.784 4.777-32.454 13.437c-17.892 17.893-17.892 47.007 0 64.897h.01z" fill="#9DADF2"/><path d="M49.327 1017.16c.177.42.593.67 1.03.67.146 0 .292-.03.438-.08a25.747 25.747 0 009.2-6.57 1.115 1.115 0 00-1.665-1.48 23.27 23.27 0 01-8.4 6c-.561.24-.832.89-.593 1.46h-.01z" fill="#9DADF2"/><path d="M68.873 981.464l-18.486-7.39a1.15 1.15 0 00-.833 0l-18.485 7.39a1.097 1.097 0 00-.698 1.031v13.24c.021 12.215 7.744 23.265 19.215 27.465.125.04.25.07.385.07s.26-.03.385-.07c11.47-4.21 19.193-15.25 19.214-27.465v-13.24c0-.458-.27-.864-.697-1.031zm-1.53 14.271c-.021 11.115-6.995 21.245-17.362 25.235-10.367-3.99-17.351-14.12-17.372-25.235v-12.48l17.372-6.943 17.362 6.943v12.48z" fill="#9DADF2"/><path d="M42.258 983.203a1.099 1.099 0 00-.853 0l-4.403 1.759a1.094 1.094 0 00-.697 1.03v4.694c0 .614.5 1.114 1.113 1.114.614 0 1.114-.5 1.114-1.114v-3.934l3.695-1.478c.281-.115.49-.323.614-.604.115-.27.115-.572 0-.853a1.139 1.139 0 00-.593-.614h.01z" fill="#9DADF2"/><path d="M78.126 970.452c-7.515-7.525-17.518-11.658-28.155-11.658-10.638 0-20.63 4.143-28.156 11.658-15.519 15.519-15.519 40.778 0 56.308 7.765 7.77 17.955 11.64 28.156 11.64 10.2 0 20.39-3.88 28.155-11.64 15.52-15.52 15.52-40.778 0-56.308zm-5.506 25.283c.031 14.125-8.993 26.475-22.452 30.755a.667.667 0 01-.395 0c-13.459-4.28-22.483-16.63-22.452-30.755v-15.624c0-.26.156-.499.406-.603l22.004-8.796a.615.615 0 01.24-.041c.083 0 .166.01.239.041l22.004 8.806c.25.094.406.333.406.604v15.623-.01z" fill="#9DADF2"/><path d="M50.397 925.841c-27.323 0-49.545-22.233-49.545-49.545 0-27.313 22.232-49.546 49.545-49.546 27.312 0 49.545 22.233 49.545 49.546 0 27.312-22.233 49.545-49.545 49.545zm0-95.791c-25.501 0-46.246 20.744-46.246 46.246 0 25.501 20.745 46.245 46.246 46.245 25.5 0 46.245-20.744 46.245-46.245 0-25.502-20.744-46.246-46.245-46.246z" fill="#478BF9"/><path d="M82.717 840.949L67.38 856.288l3.018 3.017 15.338-15.338-3.018-3.018zm-52.793 52.792l-15.338 15.338 3.018 3.018 15.338-15.339-3.018-3.017zm40.938.015l-3.018 3.017 15.338 15.339 3.018-3.018-15.338-15.338zM17.6 840.487l-3.018 3.018 15.331 15.331 3.018-3.018L17.6 840.487zm44.88 37.141c1-.999 1-2.612 0-3.601l-2.123-2.113a2.538 2.538 0 00-3.6 0l-1.146 1.145-1.322-1.322a2.538 2.538 0 00-3.601 0l-1.145 1.155-1.322-1.332a2.539 2.539 0 00-3.601 0l-7.026 7.026c-.052.052-.052.135 0 .198a2.427 2.427 0 003.414 0l4.527-4.528a1.25 1.25 0 011.77 0l.333.333a.15.15 0 010 .218l-3.778 3.779c-.052.052-.052.135 0 .198a2.427 2.427 0 003.414 0l4.34-4.341a1.25 1.25 0 011.77 0l.333.333c.052.052.052.136 0 .198l-3.643 3.643c-.052.052-.052.135 0 .198a2.425 2.425 0 003.414 0l4.194-4.195a1.25 1.25 0 011.77 0l.718.718a.736.736 0 010 1.031l-.114.114a.735.735 0 01-1.03 0l-.927-.926c-.052-.052-.136-.052-.198 0l-1.603 1.603c-.052.052-.052.135 0 .198l1.447 1.446c1 1 2.612 1 3.601 0l1.145-1.145-.01-.031z" fill="#478BF9"/><path d="M50.398 838.304c-20.984 0-37.992 17.008-37.992 37.992 0 20.984 17.008 37.991 37.992 37.991 20.984 0 37.991-17.007 37.991-37.991 0-20.984-17.007-37.992-37.991-37.992zm1.55 11.731a26.212 26.212 0 0115.926 6.599l-5.485 5.485a18.518 18.518 0 00-10.44-4.33v-7.754zm-3.09 0v7.754a18.45 18.45 0 00-10.44 4.33l-5.486-5.485a26.213 26.213 0 0115.925-6.599zm-18.112 8.785l5.486 5.485a18.516 18.516 0 00-4.33 10.44h-7.755a26.211 26.211 0 016.6-15.925zm-6.599 19.016h7.755a18.444 18.444 0 004.33 10.44l-5.486 5.485a26.211 26.211 0 01-6.599-15.925zm24.71 24.71a26.213 26.213 0 01-15.925-6.599l5.485-5.485a18.518 18.518 0 0010.44 4.33v7.754zm-14.426-26.261c0-8.816 7.15-15.967 15.967-15.967 8.816 0 15.967 7.151 15.967 15.967s-7.151 15.967-15.967 15.967-15.967-7.151-15.967-15.967zm17.518 26.261v-7.754a18.45 18.45 0 0010.44-4.33l5.485 5.485a26.212 26.212 0 01-15.925 6.599zm18.11-8.785l-5.485-5.485a18.516 18.516 0 004.33-10.44h7.755a26.211 26.211 0 01-6.6 15.925zm-1.155-19.016a18.444 18.444 0 00-4.33-10.44l5.486-5.485a26.211 26.211 0 016.599 15.925h-7.755z" fill="#478BF9"/><path d="M15.492 781.48c-19.49-19.49-19.49-51.199 0-70.688 19.49-19.49 51.199-19.49 70.688 0 19.49 19.489 19.49 51.198 0 70.688-19.49 19.49-51.198 19.49-70.688 0zm68.333-68.333c-18.191-18.191-47.786-18.191-65.972 0-18.191 18.191-18.191 47.786 0 65.972 18.19 18.191 47.785 18.191 65.972 0 18.191-18.191 18.191-47.785 0-65.972z" fill="#fff"/><path d="M84.364 735.533a1.638 1.638 0 01-.398-.645c-1.73-5.119-4.555-9.654-8.394-13.494A34.672 34.672 0 0062.078 713a1.666 1.666 0 01-1.133-1.578v-12.148a1.666 1.666 0 012.066-1.616 49.87 49.87 0 0123.159 13.134 49.923 49.923 0 0113.129 23.158c.123.498.01 1.024-.303 1.431-.318.408-.801.64-1.313.64H85.535c-.455 0-.872-.185-1.18-.493l.01.005zm-6.436-16.494a37.98 37.98 0 018.792 13.65h8.787a46.61 46.61 0 00-11.688-19.542 46.56 46.56 0 00-19.537-11.683v8.787a37.869 37.869 0 0113.65 8.792l-.004-.004zM15.491 781.48a49.915 49.915 0 01-13.134-23.159 1.672 1.672 0 01.304-1.426c.317-.408.8-.64 1.312-.64h12.148c.716 0 1.351.455 1.579 1.133 1.73 5.119 4.555 9.655 8.394 13.494a34.671 34.671 0 0013.494 8.394 1.662 1.662 0 011.133 1.578v12.148c0 .512-.237.995-.64 1.313a1.673 1.673 0 01-1.432.303 49.927 49.927 0 01-23.158-13.129v-.009zm-9.333-21.898a46.61 46.61 0 0011.689 19.542 46.61 46.61 0 0019.541 11.688v-8.787a37.912 37.912 0 01-13.65-8.788 37.98 37.98 0 01-8.792-13.65H6.158v-.005zm55.283 34.591a1.665 1.665 0 01-.488-1.18v-12.148c0-.716.455-1.351 1.133-1.579 5.119-1.73 9.655-4.554 13.494-8.394a34.64 34.64 0 008.394-13.494 1.663 1.663 0 011.578-1.132H97.7a1.662 1.662 0 011.616 2.066 49.973 49.973 0 01-13.133 23.158 49.87 49.87 0 01-23.159 13.134 1.673 1.673 0 01-1.426-.303c-.053-.048-.105-.09-.152-.138l-.005.01zm2.844-12.153v8.788a46.612 46.612 0 0019.542-11.689 46.648 46.648 0 0011.688-19.541h-8.787c-1.92 5.147-4.873 9.73-8.793 13.65-3.915 3.915-8.503 6.873-13.65 8.792zM2.794 735.533a1.668 1.668 0 01-.436-1.583 49.876 49.876 0 0113.134-23.158 49.936 49.936 0 0123.158-13.134 1.676 1.676 0 011.427.303c.403.318.64.801.64 1.313v12.148c0 .716-.456 1.351-1.133 1.579-5.12 1.73-9.655 4.554-13.494 8.394a34.66 34.66 0 00-8.394 13.494 1.663 1.663 0 01-1.579 1.132H3.97c-.445 0-.872-.175-1.18-.483l.005-.005zm34.59-34.069a46.61 46.61 0 00-19.541 11.688 46.658 46.658 0 00-11.689 19.542h8.788c1.92-5.147 4.872-9.731 8.792-13.65a37.975 37.975 0 0113.65-8.792v-8.788z" fill="#fff"/><path d="M77.932 719.039c-14.94-14.94-39.255-14.945-54.194 0-14.945 14.944-14.94 39.254 0 54.193 14.94 14.94 39.25 14.945 54.194 0 14.944-14.944 14.94-39.254 0-54.193z" fill="#fff"/><path d="M64.655 759.813l-27.528.183a2.1 2.1 0 00-2.086 2.113l.007.982a2.1 2.1 0 002.113 2.085l27.528-.182a2.1 2.1 0 002.086-2.114l-.007-.981a2.1 2.1 0 00-2.113-2.086zm-23.778-16.616a2.04 2.04 0 01-.877-.199l-2.147-1.038a1.985 1.985 0 01-.971-2.522l.986-2.455a1.978 1.978 0 012.815-.981l2.56 1.46a1.987 1.987 0 01.65 2.844l-1.404 2.033a1.968 1.968 0 01-1.616.853l.004.005zm19.815-.133a1.986 1.986 0 01-1.626-.834l-1.388-1.958a1.98 1.98 0 01.611-2.853l2.64-1.55c.299-.175.64-.27.986-.275a1.985 1.985 0 011.844 1.218l.995 2.384a1.991 1.991 0 01-.938 2.536l-2.247 1.124a2.01 2.01 0 01-.872.208h-.005z" fill="#110A1D"/><path d="M38.715 758.155a2.858 2.858 0 01-2.707-1.886l-4.592-12.641a4.926 4.926 0 01-.925.332 4.609 4.609 0 01-1.137.142 4.85 4.85 0 01-.654-.038 4.85 4.85 0 01-4.223-4.773 4.855 4.855 0 014.815-4.882 4.848 4.848 0 014.877 4.816c0 .616-.104 1.209-.322 1.763a5.283 5.283 0 01-.436.868l8.735 4.227 6.683-9.683a4.526 4.526 0 01-.805-.441 4.885 4.885 0 01-1.247-1.213 4.82 4.82 0 01-.896-2.773 4.855 4.855 0 015.176-4.872 4.858 4.858 0 014.503 4.474 4.835 4.835 0 01-2.1 4.365 4.33 4.33 0 01-.801.441l6.802 9.584 8.593-4.299a5.003 5.003 0 01-.384-.967 4.717 4.717 0 01-.176-1.265 4.845 4.845 0 119.688-.062 4.854 4.854 0 01-4.507 4.868l-.303.009c-.493 0-.977-.066-1.446-.208a4.77 4.77 0 01-.872-.365L65.74 756.07a2.862 2.862 0 01-2.683 1.92l-24.343.161v.004z" fill="#110A1D"/><path d="M49.983 675c-12.699 0-25.387-4.83-35.057-14.499-19.329-19.329-19.329-50.774 0-70.103 9.368-9.367 21.817-14.52 35.057-14.52 13.24 0 25.688 5.153 35.056 14.52 19.329 19.329 19.329 50.774 0 70.103C75.379 670.16 62.68 675 49.983 675zm-32.454-17.101c17.892 17.892 47.005 17.892 64.897 0 17.893-17.893 17.893-47.006 0-64.898-8.67-8.671-20.193-13.438-32.454-13.438s-23.784 4.778-32.454 13.438c-17.892 17.892-17.892 47.005 0 64.898h.01z" fill="#9DADF2"/><path d="M49.327 643.992c.177.427.593.677 1.03.677.146 0 .292-.031.438-.083a25.705 25.705 0 009.2-6.568 1.117 1.117 0 00-.093-1.572 1.117 1.117 0 00-1.572.094 23.257 23.257 0 01-8.4 5.995c-.561.24-.832.895-.593 1.457h-.01z" fill="#9DADF2"/><path d="M68.873 608.311l-18.486-7.39a1.15 1.15 0 00-.833 0l-18.485 7.39a1.097 1.097 0 00-.698 1.031v13.24c.021 12.219 7.744 23.263 19.215 27.468a1.185 1.185 0 00.77 0c11.47-4.215 19.193-15.249 19.214-27.468v-13.24c0-.458-.27-.864-.697-1.031zm-1.53 14.271c-.021 11.116-6.995 21.244-17.362 25.23-10.367-3.986-17.351-14.114-17.372-25.23v-12.48l17.372-6.943 17.362 6.943v12.48z" fill="#9DADF2"/><path d="M42.258 610.05a1.099 1.099 0 00-.853 0l-4.403 1.759a1.094 1.094 0 00-.697 1.03v4.695a1.114 1.114 0 002.227 0v-3.935l3.695-1.478c.281-.114.49-.323.614-.604.115-.27.115-.572 0-.853a1.142 1.142 0 00-.593-.614h.01z" fill="#9DADF2"/><path d="M78.126 597.299c-7.515-7.525-17.518-11.657-28.155-11.657-10.638 0-20.63 4.142-28.156 11.657-15.519 15.52-15.519 40.781 0 56.311 7.765 7.765 17.955 11.637 28.156 11.637 10.2 0 20.39-3.883 28.155-11.637 15.52-15.519 15.52-40.781 0-56.311zm-5.506 25.283c.031 14.124-8.993 26.479-22.452 30.757a.636.636 0 01-.395 0c-13.459-4.278-22.483-16.633-22.452-30.757v-15.624c0-.26.156-.499.406-.603l22.004-8.795a.597.597 0 01.24-.042c.083 0 .166.01.239.042l22.004 8.805c.25.094.406.333.406.604v15.623-.01z" fill="#9DADF2"/><path d="M50.127 548.39c-27.322 0-49.545-22.233-49.545-49.546 0-27.312 22.233-49.545 49.545-49.545 27.313 0 49.545 22.233 49.545 49.545 0 27.313-22.232 49.546-49.545 49.546zm0-95.791c-25.5 0-46.245 20.744-46.245 46.245 0 25.502 20.744 46.246 46.245 46.246 25.502 0 46.246-20.744 46.246-46.246 0-25.501-20.745-46.245-46.246-46.245z" fill="#fff"/><path d="M66.198 467.9c-.25 0-.5-.052-.729-.167a34.319 34.319 0 00-15.342-3.58 34.318 34.318 0 00-15.342 3.58 1.647 1.647 0 01-1.895-.312l-8.514-8.514a1.643 1.643 0 01-.468-1.374c.062-.51.354-.958.79-1.218a49.453 49.453 0 0125.44-7.026 49.559 49.559 0 0125.438 7.026c.437.26.729.708.791 1.218a1.676 1.676 0 01-.468 1.374l-8.514 8.514a1.68 1.68 0 01-1.177.479h-.01zm-16.071-7.047a37.636 37.636 0 0115.727 3.404l6.162-6.162a46.15 46.15 0 00-21.889-5.506 46.15 46.15 0 00-21.89 5.506l6.163 6.162a37.636 37.636 0 0115.727-3.404zm-.002 87.537a49.558 49.558 0 01-25.439-7.026 1.646 1.646 0 01-.79-1.218 1.676 1.676 0 01.468-1.374l8.514-8.514c.5-.5 1.27-.625 1.895-.312a34.318 34.318 0 0015.342 3.58 34.319 34.319 0 0015.342-3.58 1.645 1.645 0 011.895.312l8.514 8.514c.364.365.53.864.468 1.374-.062.51-.354.958-.79 1.218a49.453 49.453 0 01-25.44 7.026h.021zm-21.89-8.806a46.15 46.15 0 0021.89 5.506 46.15 46.15 0 0021.89-5.506l-6.162-6.162a37.636 37.636 0 01-15.728 3.404 37.636 37.636 0 01-15.727-3.404l-6.162 6.162zm62.998-14.51c-.437 0-.853-.166-1.166-.479l-8.514-8.514a1.65 1.65 0 01-.312-1.894 34.318 34.318 0 003.58-15.342 34.32 34.32 0 00-3.58-15.343 1.644 1.644 0 01.312-1.894l8.514-8.514a1.642 1.642 0 011.374-.469c.51.063.958.354 1.218.791a49.457 49.457 0 017.026 25.439 49.46 49.46 0 01-7.026 25.439c-.26.437-.708.728-1.218.791h-.208v-.011zm-6.526-10.512l6.162 6.161a46.15 46.15 0 005.506-21.889 46.15 46.15 0 00-5.506-21.889l-6.162 6.162a37.638 37.638 0 013.404 15.727 37.646 37.646 0 01-3.404 15.728zM9.024 525.074c-.073 0-.135 0-.198-.01a1.647 1.647 0 01-1.218-.791 49.46 49.46 0 01-7.026-25.439 49.458 49.458 0 017.026-25.439c.26-.437.708-.728 1.218-.791.51-.062 1.01.115 1.374.468l8.514 8.515c.5.499.625 1.27.313 1.894a34.32 34.32 0 00-3.581 15.343 34.32 34.32 0 003.58 15.342 1.644 1.644 0 01-.312 1.894l-8.514 8.514c-.312.313-.729.49-1.166.49l-.01.01zm.364-48.129a46.15 46.15 0 00-5.506 21.889 46.15 46.15 0 005.506 21.889l6.162-6.162a37.638 37.638 0 01-3.404-15.727 37.646 37.646 0 013.404-15.728l-6.162-6.161z" fill="#fff"/><path d="M50.128 460.853c-20.942 0-37.991 17.039-37.991 37.992 0 20.952 17.039 37.991 37.991 37.991 20.953 0 37.992-17.039 37.992-37.991 0-20.953-17.04-37.992-37.992-37.992zm21.38 25.512a24.473 24.473 0 013.247 10.013.37.37 0 01-.177.354 31.803 31.803 0 00-7.255 6.089.342.342 0 01-.385.104l-4.694-1.53a.36.36 0 01-.25-.302 32.675 32.675 0 00-3.59-11.054.368.368 0 01.03-.385l2.904-3.997a.394.394 0 01.302-.156h.084a31.66 31.66 0 009.45.655.378.378 0 01.354.188l-.02.021zm-12.074 15.384a.379.379 0 01-.084.281 24.856 24.856 0 01-9.076 6.578.337.337 0 01-.281 0 25.1 25.1 0 01-9.076-6.578.378.378 0 01-.084-.281 30.15 30.15 0 013.477-10.701.345.345 0 01.24-.176 27.114 27.114 0 0111.178 0c.104.02.188.083.24.176a30.36 30.36 0 013.476 10.701h-.01zm-.562-25.835s.124-.104.25-.104c.041 0 .093 0 .145.031 3.83 1.52 7.255 4.018 9.92 7.214a.345.345 0 01.052.385.357.357 0 01-.334.218 28.64 28.64 0 01-6.994-.78.373.373 0 01-.23-.167 29.508 29.508 0 01-2.903-6.422.346.346 0 01.104-.375h-.01zm-14-1.249a25.251 25.251 0 0110.523 0c.135.032.25.136.281.271a31.915 31.915 0 003.55 8.785.383.383 0 01-.021.406l-2.883 3.976a.362.362 0 01-.365.146 29.615 29.615 0 00-11.647 0 .362.362 0 01-.364-.146l-2.884-3.976a.381.381 0 01-.02-.406 31.918 31.918 0 003.549-8.785.374.374 0 01.281-.271zm-13.791 8.39c2.664-3.206 6.089-5.704 9.919-7.214a.35.35 0 01.395.073c.052.052.167.177.105.375a29.274 29.274 0 01-2.904 6.422.373.373 0 01-.23.167 28.64 28.64 0 01-6.994.78.357.357 0 01-.333-.218.345.345 0 01.052-.385h-.01zm-2.322 3.31a.367.367 0 01.323-.188h.031c3.175.25 6.36.031 9.451-.655a.35.35 0 01.375.145l2.904 3.997a.37.37 0 01.031.385 32.684 32.684 0 00-3.59 11.054.388.388 0 01-.25.302l-4.695 1.53a.378.378 0 01-.385-.104 31.803 31.803 0 00-7.255-6.089.389.389 0 01-.177-.354 24.425 24.425 0 013.248-10.013l-.01-.01zm1.135 25.646a.364.364 0 01-.312.25c-.073 0-.24 0-.354-.166a24.7 24.7 0 01-3.789-11.668.356.356 0 01.187-.344c.063-.031.23-.104.396.021a28.92 28.92 0 015.204 4.746.355.355 0 01.084.271 28.564 28.564 0 01-1.426 6.901l.01-.011zm10.284 9.504c-3.248-1.426-6.11-3.519-8.504-6.204a.376.376 0 01-.073-.385 31.854 31.854 0 002.29-9.191.357.357 0 01.25-.312l4.642-1.509s.073-.021.114-.021c.105 0 .198.041.271.125a27.703 27.703 0 009.43 6.859.362.362 0 01.219.333v4.882a.353.353 0 01-.219.333 31.829 31.829 0 00-8.046 5.027.348.348 0 01-.385.052l.01.011zm16.373 1.03a.349.349 0 01-.271.292 25.031 25.031 0 01-12.282 0 .365.365 0 01-.271-.292.367.367 0 01.146-.375 29.06 29.06 0 016.13-3.487.336.336 0 01.282 0 29.592 29.592 0 016.13 3.487.383.383 0 01.146.375h-.01zm12.063-7.224a24.542 24.542 0 01-8.504 6.194.368.368 0 01-.385-.052 31.65 31.65 0 00-8.046-5.028.362.362 0 01-.218-.333v-4.882c0-.145.083-.281.218-.333a27.577 27.577 0 009.43-6.859.351.351 0 01.271-.125c.042 0 .073 0 .115.021l4.642 1.509a.36.36 0 01.25.312 31.924 31.924 0 002.29 9.191.355.355 0 01-.073.385h.01zm2.436-3.216a.358.358 0 01-.354.167.359.359 0 01-.313-.25 29.598 29.598 0 01-1.425-6.901.42.42 0 01.083-.271 29.3 29.3 0 015.204-4.746.362.362 0 01.208-.073c.084 0 .146.031.188.052a.34.34 0 01.187.344 24.699 24.699 0 01-3.789 11.668l.01.01z" fill="#fff"/><path d="M49.983 424.932c-12.699 0-25.387-4.829-35.057-14.499-19.329-19.329-19.329-50.773 0-70.102 9.368-9.368 21.817-14.52 35.057-14.52 13.24 0 25.688 5.152 35.056 14.52 19.329 19.329 19.329 50.773 0 70.102-9.66 9.659-22.358 14.499-35.056 14.499zm-32.454-17.101c17.892 17.893 47.005 17.893 64.897 0 17.893-17.892 17.893-47.005 0-64.898-8.67-8.67-20.193-13.437-32.454-13.437s-23.784 4.777-32.454 13.437c-17.892 17.893-17.892 47.006 0 64.898h.01z" fill="#9DADF2"/><path d="M49.327 393.936c.177.426.593.676 1.03.676.146 0 .292-.031.438-.083a25.705 25.705 0 009.2-6.568 1.117 1.117 0 00-.093-1.572 1.118 1.118 0 00-1.572.094 23.257 23.257 0 01-8.4 5.995 1.12 1.12 0 00-.593 1.458h-.01z" fill="#9DADF2"/><path d="M68.873 358.244l-18.486-7.39a1.15 1.15 0 00-.833 0l-18.485 7.39a1.097 1.097 0 00-.698 1.031v13.239c.021 12.22 7.744 23.264 19.215 27.469a1.212 1.212 0 00.77 0c11.47-4.216 19.193-15.249 19.214-27.469v-13.239c0-.458-.27-.864-.697-1.031zm-1.53 14.27c-.021 11.117-6.995 21.244-17.362 25.231-10.367-3.987-17.351-14.114-17.372-25.231v-12.48l17.372-6.942 17.362 6.942v12.48z" fill="#9DADF2"/><path d="M42.258 359.982a1.108 1.108 0 00-.853 0l-4.403 1.759a1.097 1.097 0 00-.697 1.031v4.694c0 .614.5 1.114 1.113 1.114.614 0 1.114-.5 1.114-1.114v-3.934l3.695-1.478c.281-.115.49-.323.614-.604a1.142 1.142 0 00-.593-1.468h.01z" fill="#9DADF2"/><path d="M78.126 347.232c-7.515-7.526-17.518-11.658-28.155-11.658-10.638 0-20.63 4.143-28.156 11.658-15.519 15.519-15.519 40.781 0 56.311 7.765 7.764 17.955 11.636 28.156 11.636 10.2 0 20.39-3.882 28.155-11.636 15.52-15.52 15.52-40.781 0-56.311zm-5.506 25.282c.031 14.125-8.993 26.48-22.452 30.758a.636.636 0 01-.395 0c-13.459-4.278-22.483-16.633-22.452-30.758v-15.623c0-.26.156-.499.406-.604l22.004-8.795a.615.615 0 01.24-.041c.083 0 .166.01.239.041l22.004 8.806c.25.094.406.333.406.604v15.623-.011z" fill="#9DADF2"/><path d="M50.397 302.621c-27.323 0-49.545-22.233-49.545-49.546 0-27.312 22.232-49.545 49.545-49.545 27.312 0 49.545 22.233 49.545 49.545 0 27.313-22.233 49.546-49.545 49.546zm0-95.791c-25.501 0-46.246 20.744-46.246 46.245 0 25.502 20.745 46.246 46.246 46.246 25.5 0 46.245-20.744 46.245-46.246 0-25.501-20.744-46.245-46.245-46.245z" fill="#478BF9"/><path d="M82.717 217.729L67.38 233.067l3.018 3.018 15.338-15.338-3.018-3.018zm-52.793 52.792l-15.338 15.338 3.018 3.017 15.338-15.338-3.018-3.017zm40.938.015l-3.018 3.017 15.338 15.338 3.018-3.017-15.338-15.338zM17.6 217.267l-3.018 3.018 15.331 15.331 3.018-3.018L17.6 217.267zm44.88 37.141c1-.999 1-2.613 0-3.601l-2.123-2.113c-.999-1-2.612-1-3.6 0l-1.146 1.145-1.322-1.322c-.999-1-2.612-1-3.601 0l-1.145 1.155-1.322-1.332a2.539 2.539 0 00-3.601 0l-7.026 7.026c-.052.052-.052.135 0 .197a2.425 2.425 0 003.414 0l4.527-4.527a1.25 1.25 0 011.77 0l.333.333a.15.15 0 010 .218l-3.778 3.779c-.052.052-.052.135 0 .197a2.425 2.425 0 003.414 0l4.34-4.34a1.25 1.25 0 011.77 0l.333.333c.052.052.052.135 0 .198l-3.643 3.643c-.052.052-.052.135 0 .198a2.426 2.426 0 003.414 0l4.194-4.195a1.25 1.25 0 011.77 0l.718.718a.736.736 0 010 1.031l-.114.114a.735.735 0 01-1.03 0l-.927-.926c-.052-.052-.136-.052-.198 0l-1.603 1.603c-.052.052-.052.135 0 .197l1.447 1.447c1 .999 2.612.999 3.601 0l1.145-1.145-.01-.031z" fill="#478BF9"/><path d="M50.398 215.084c-20.984 0-37.992 17.008-37.992 37.992 0 20.983 17.008 37.991 37.992 37.991 20.984 0 37.991-17.008 37.991-37.991 0-20.984-17.007-37.992-37.991-37.992zm1.55 11.731a26.206 26.206 0 0115.926 6.599l-5.485 5.485a18.518 18.518 0 00-10.44-4.33v-7.754zm-3.09 0v7.754a18.45 18.45 0 00-10.44 4.33l-5.486-5.485a26.207 26.207 0 0115.925-6.599zm-18.112 8.784l5.486 5.486a18.516 18.516 0 00-4.33 10.44h-7.755a26.217 26.217 0 016.6-15.926zm-6.599 19.017h7.755a18.447 18.447 0 004.33 10.44l-5.486 5.485a26.214 26.214 0 01-6.599-15.925zm24.71 24.71a26.213 26.213 0 01-15.925-6.599l5.485-5.485a18.518 18.518 0 0010.44 4.33v7.754zm-14.426-26.261c0-8.816 7.15-15.967 15.967-15.967 8.816 0 15.967 7.151 15.967 15.967s-7.151 15.967-15.967 15.967-15.967-7.151-15.967-15.967zm17.518 26.261v-7.754a18.45 18.45 0 0010.44-4.33l5.485 5.485a26.212 26.212 0 01-15.925 6.599zm18.11-8.785l-5.485-5.485a18.519 18.519 0 004.33-10.44h7.755a26.214 26.214 0 01-6.6 15.925zm-1.155-19.016a18.444 18.444 0 00-4.33-10.44l5.486-5.486a26.217 26.217 0 016.599 15.926h-7.755z" fill="#478BF9"/><path d="M15.488 158.26c-19.49-19.49-19.49-51.199 0-70.689 19.49-19.49 51.199-19.49 70.688 0 19.49 19.49 19.49 51.199 0 70.689-19.49 19.489-51.198 19.489-70.688 0zm68.333-68.333c-18.191-18.191-47.786-18.191-65.972 0-18.192 18.191-18.192 47.786 0 65.972 18.19 18.191 47.785 18.191 65.972 0 18.191-18.191 18.191-47.786 0-65.972z" fill="#fff"/><path d="M84.364 112.313a1.645 1.645 0 01-.398-.645c-1.73-5.119-4.555-9.655-8.394-13.494a34.663 34.663 0 00-13.494-8.394 1.667 1.667 0 01-1.133-1.578V76.054a1.664 1.664 0 012.067-1.616A49.872 49.872 0 0186.17 87.57a49.928 49.928 0 0113.129 23.159c.123.497.01 1.023-.304 1.431-.317.408-.8.64-1.313.64H85.535c-.455 0-.873-.185-1.18-.493l.009.005zm-6.437-16.495a37.983 37.983 0 018.792 13.651h8.788a46.609 46.609 0 00-11.688-19.542 46.562 46.562 0 00-19.537-11.683v8.787a37.853 37.853 0 0113.65 8.792l-.005-.004zm-62.44 62.441a49.908 49.908 0 01-13.134-23.158 1.671 1.671 0 01.303-1.426c.318-.408.801-.64 1.313-.64h12.148c.716 0 1.351.455 1.578 1.132 1.73 5.119 4.555 9.655 8.395 13.494a34.648 34.648 0 0013.494 8.394 1.664 1.664 0 011.132 1.579v12.148c0 .512-.237.995-.64 1.313a1.673 1.673 0 01-1.43.303 49.927 49.927 0 01-23.16-13.129v-.01zm-9.333-21.897a46.61 46.61 0 0011.689 19.542 46.61 46.61 0 0019.541 11.688v-8.787a37.912 37.912 0 01-13.65-8.788 37.98 37.98 0 01-8.792-13.65H6.154v-.005zm55.279 34.591a1.665 1.665 0 01-.488-1.181v-12.147c0-.716.455-1.351 1.133-1.579 5.119-1.73 9.654-4.555 13.494-8.394a34.64 34.64 0 008.394-13.494 1.663 1.663 0 011.578-1.133h12.148c.512 0 .995.237 1.313.64.318.403.427.934.303 1.427a49.978 49.978 0 01-13.134 23.158 49.87 49.87 0 01-23.158 13.134 1.676 1.676 0 01-1.426-.303c-.053-.048-.105-.09-.152-.138l-.005.01zm2.844-12.153v8.787a46.6 46.6 0 0019.542-11.688 46.66 46.66 0 0011.688-19.542h-8.788c-1.92 5.148-4.872 9.731-8.792 13.651-3.915 3.915-8.503 6.872-13.65 8.792zM2.79 112.313a1.666 1.666 0 01-.436-1.583 49.87 49.87 0 0113.134-23.158 49.936 49.936 0 0123.158-13.134 1.673 1.673 0 011.426.303c.403.318.64.801.64 1.313v12.148c0 .716-.455 1.35-1.132 1.578-5.12 1.73-9.655 4.555-13.494 8.394a34.662 34.662 0 00-8.394 13.494 1.663 1.663 0 01-1.579 1.133H3.965c-.445 0-.872-.175-1.18-.483l.005-.005zm34.59-34.07a46.608 46.608 0 00-19.542 11.69 46.657 46.657 0 00-11.688 19.54h8.788c1.92-5.147 4.872-9.73 8.792-13.65a37.981 37.981 0 0113.65-8.793v-8.787z" fill="#fff"/><path d="M77.931 95.819c-14.94-14.94-39.254-14.945-54.194 0-14.944 14.944-14.94 39.254 0 54.194 14.94 14.939 39.25 14.944 54.194 0 14.945-14.945 14.94-39.255 0-54.194z" fill="#fff"/><path d="M64.65 136.593l-27.527.183a2.1 2.1 0 00-2.086 2.113l.007.981a2.1 2.1 0 002.113 2.086l27.528-.183a2.1 2.1 0 002.085-2.113l-.006-.981a2.1 2.1 0 00-2.114-2.086zm-23.777-16.616a2.04 2.04 0 01-.877-.199l-2.147-1.038a1.985 1.985 0 01-.971-2.522l.986-2.455a1.977 1.977 0 012.815-.981l2.56 1.46a1.984 1.984 0 01.65 2.843l-1.404 2.034a1.968 1.968 0 01-1.617.853l.005.005zm19.819-.133a1.986 1.986 0 01-1.626-.834l-1.389-1.958c-.322-.45-.435-1.019-.322-1.559a1.974 1.974 0 01.934-1.294l2.64-1.55c.298-.175.64-.27.986-.275a1.983 1.983 0 011.844 1.218l.995 2.384a1.992 1.992 0 01-.939 2.536l-2.246 1.123c-.27.133-.574.209-.872.209h-.005z" fill="#110A1D"/><path d="M38.71 134.935a2.86 2.86 0 01-2.706-1.886l-4.592-12.641a4.927 4.927 0 01-.925.332 4.607 4.607 0 01-1.137.142c-.223 0-.441-.01-.654-.038a4.85 4.85 0 01-4.224-4.773 4.855 4.855 0 014.816-4.882 4.848 4.848 0 014.877 4.816c0 .616-.104 1.208-.322 1.763a5.32 5.32 0 01-.436.867l8.735 4.228 6.683-9.683a4.901 4.901 0 01-2.052-1.654 4.821 4.821 0 01-.896-2.773 4.855 4.855 0 015.176-4.872 4.857 4.857 0 014.503 4.474 4.83 4.83 0 01-.863 3.142 4.883 4.883 0 01-1.237 1.223 4.392 4.392 0 01-.801.441l6.801 9.584 8.593-4.299a5.022 5.022 0 01-.383-.967 4.715 4.715 0 01-.176-1.266 4.844 4.844 0 119.688-.061 4.852 4.852 0 01-4.507 4.867l-.304.01c-.493 0-.976-.066-1.445-.209a4.632 4.632 0 01-.872-.365l-4.313 12.395a2.86 2.86 0 01-2.683 1.919l-24.343.161v.005z" fill="#110A1D"/><path d="M100.411 2.04v119.595a1.779 1.779 0 11-3.56 0V2.04a1.779 1.779 0 113.56 0zM4.868 1.78v119.595a1.779 1.779 0 11-3.56 0V1.78a1.78 1.78 0 113.56 0z" fill="#fff"/></g></svg>