<svg width="660" height="50" fill="none" xmlns="http://www.w3.org/2000/svg"><g opacity=".2"><path d="M635.017 49.064c-6.277 0-12.549-2.388-17.328-7.167-9.555-9.555-9.555-25.098 0-34.653 4.63-4.63 10.784-7.177 17.328-7.177 6.545 0 12.698 2.547 17.329 7.177 9.554 9.555 9.554 25.098 0 34.653-4.775 4.774-11.052 7.167-17.329 7.167zm-16.042-8.454c8.844 8.845 23.235 8.845 32.08 0 8.844-8.844 8.844-23.235 0-32.08-4.286-4.285-9.982-6.642-16.043-6.642S623.256 4.25 618.97 8.531c-8.845 8.844-8.845 23.235 0 32.08h.005z" fill="#9DADF2"/><path d="M634.693 33.737a.549.549 0 00.51.334.643.643 0 00.216-.04 12.699 12.699 0 004.548-3.247.552.552 0 00-.046-.777.552.552 0 00-.777.046 11.505 11.505 0 01-4.152 2.963.553.553 0 00-.294.72h-.005z" fill="#9DADF2"/><path d="M644.355 16.1l-9.138-3.654a.57.57 0 00-.412 0l-9.137 3.653a.542.542 0 00-.345.51v6.544c.01 6.04 3.828 11.5 9.498 13.578a.588.588 0 00.381 0c5.67-2.084 9.487-7.537 9.497-13.578V16.61a.54.54 0 00-.344-.51zm-.757 7.053c-.01 5.495-3.457 10.501-8.582 12.472-5.124-1.97-8.577-6.977-8.587-12.472v-6.169l8.587-3.432 8.582 3.432v6.17z" fill="#9DADF2"/><path d="M631.199 16.959a.546.546 0 00-.422 0l-2.176.869a.542.542 0 00-.345.51v2.32a.551.551 0 001.101 0v-1.945l1.827-.73a.556.556 0 00.303-.3.561.561 0 00-.293-.725h.005z" fill="#9DADF2"/><path d="M648.935 10.656c-3.715-3.72-8.66-5.763-13.918-5.763a19.565 19.565 0 00-13.917 5.763c-7.672 7.67-7.672 20.158 0 27.835 3.838 3.838 8.875 5.752 13.917 5.752s10.079-1.92 13.918-5.752c7.671-7.672 7.671-20.159 0-27.835zm-2.722 12.497a15.854 15.854 0 01-11.098 15.204.318.318 0 01-.196 0 15.856 15.856 0 01-11.098-15.204V15.43c0-.128.078-.247.201-.298l10.877-4.348a.301.301 0 01.118-.02c.041 0 .083.005.119.02l10.876 4.353a.313.313 0 01.201.298v7.723-.005z" fill="#9DADF2"/><path d="M572.44 49.056c-13.506 0-24.491-10.99-24.491-24.491 0-13.5 10.99-24.49 24.491-24.49s24.491 10.99 24.491 24.49c0 13.5-10.99 24.49-24.491 24.49zm0-47.35c-12.605 0-22.86 10.253-22.86 22.859 0 12.605 10.255 22.86 22.86 22.86 12.606 0 22.86-10.255 22.86-22.86 0-12.606-10.254-22.86-22.86-22.86z" fill="#7DDACF"/><path d="M588.422 7.09l-7.582 7.581 1.492 1.492 7.582-7.582-1.492-1.491zm-26.1 26.099l-7.582 7.581 1.492 1.492 7.582-7.582-1.492-1.491zm20.232.004l-1.492 1.491 7.582 7.582 1.492-1.492-7.582-7.581zM556.23 6.865l-1.491 1.491 7.578 7.579 1.491-1.492-7.578-7.578zm22.184 18.359a1.256 1.256 0 000-1.78l-1.05-1.045a1.254 1.254 0 00-1.78 0l-.566.566-.654-.654a1.254 1.254 0 00-1.78 0l-.566.572-.653-.659a1.254 1.254 0 00-1.78 0l-3.473 3.473c-.026.026-.026.067 0 .098a1.198 1.198 0 001.687 0l2.238-2.238a.618.618 0 01.875 0l.165.164c.03.031.03.077 0 .108l-1.868 1.868c-.026.026-.026.067 0 .098a1.2 1.2 0 001.688 0l2.145-2.146a.618.618 0 01.875 0l.164.165c.026.026.026.067 0 .098l-1.8 1.8c-.026.026-.026.067 0 .098a1.198 1.198 0 001.687 0l2.074-2.073a.617.617 0 01.874 0l.355.355a.363.363 0 010 .509l-.056.057a.364.364 0 01-.51 0l-.458-.458c-.025-.026-.066-.026-.097 0l-.793.792c-.025.026-.025.067 0 .098l.715.715a1.256 1.256 0 001.781 0l.566-.566-.005-.015z" fill="#7DDACF"/><path d="M572.441 5.785c-10.373 0-18.78 8.407-18.78 18.78 0 10.372 8.407 18.78 18.78 18.78 10.372 0 18.779-8.408 18.779-18.78 0-10.373-8.407-18.78-18.779-18.78zm.766 5.799a12.956 12.956 0 017.872 3.262l-2.711 2.711a9.152 9.152 0 00-5.161-2.14v-3.833zm-1.528 0v3.833a9.117 9.117 0 00-5.16 2.14l-2.712-2.711a12.959 12.959 0 017.872-3.262zm-8.952 4.342l2.711 2.712a9.154 9.154 0 00-2.14 5.16h-3.833a12.959 12.959 0 013.262-7.872zm-3.262 9.4h3.833a9.113 9.113 0 002.14 5.16l-2.711 2.712a12.96 12.96 0 01-3.262-7.872zm12.214 12.215a12.959 12.959 0 01-7.872-3.262l2.712-2.712a9.152 9.152 0 005.16 2.14v3.834zm-7.131-12.981a7.893 7.893 0 117.893 7.893 7.894 7.894 0 01-7.893-7.893zm8.659 12.98v-3.832a9.117 9.117 0 005.161-2.14l2.711 2.71a12.956 12.956 0 01-7.872 3.263zm8.953-4.342l-2.712-2.711a9.155 9.155 0 002.141-5.16h3.833a12.96 12.96 0 01-3.262 7.871zm-.571-9.4a9.12 9.12 0 00-2.141-5.16l2.712-2.712a12.959 12.959 0 013.262 7.872h-3.833z" fill="#7DDACF"/><path d="M511.411 48.981c-13.506 0-24.491-10.99-24.491-24.49C486.92 10.99 497.91 0 511.411 0s24.491 10.99 24.491 24.49c0 13.501-10.99 24.491-24.491 24.491zm0-47.35c-12.606 0-22.86 10.254-22.86 22.86 0 12.605 10.254 22.86 22.86 22.86 12.605 0 22.86-10.255 22.86-22.86 0-12.606-10.255-22.86-22.86-22.86z" fill="#9DADF2"/><path d="M519.356 9.2a.803.803 0 01-.36-.083 16.964 16.964 0 00-7.584-1.77c-2.66 0-5.212.597-7.583 1.77a.815.815 0 01-.937-.154l-4.209-4.209a.811.811 0 01-.231-.68.814.814 0 01.391-.601A24.446 24.446 0 01511.418 0c4.435 0 8.782 1.204 12.574 3.473.216.129.36.35.391.602a.827.827 0 01-.231.68l-4.209 4.208a.829.829 0 01-.581.236h-.006zm-7.944-3.484a18.6 18.6 0 017.775 1.683l3.046-3.046a22.818 22.818 0 00-10.821-2.722 22.81 22.81 0 00-10.82 2.722l3.046 3.046a18.606 18.606 0 017.774-1.683zm-.001 43.265a24.494 24.494 0 01-12.574-3.472.814.814 0 01-.391-.602.827.827 0 01.231-.68l4.209-4.208a.815.815 0 01.936-.155 16.964 16.964 0 007.584 1.77c2.66 0 5.212-.596 7.584-1.77a.815.815 0 01.937.155l4.208 4.209a.81.81 0 01.232.679.814.814 0 01-.391.602 24.449 24.449 0 01-12.575 3.472h.01zm-10.82-4.352a22.817 22.817 0 0010.82 2.721c3.787 0 7.507-.936 10.821-2.721l-3.046-3.046a18.607 18.607 0 01-7.775 1.682c-2.711 0-5.325-.566-7.774-1.682l-3.046 3.046zm31.139-7.167a.812.812 0 01-.577-.237l-4.208-4.209a.816.816 0 01-.155-.936 16.951 16.951 0 001.77-7.584c0-2.66-.596-5.212-1.77-7.584a.813.813 0 01.155-.936l4.208-4.209a.814.814 0 01.68-.231c.252.03.473.175.602.39a24.448 24.448 0 013.473 12.575 24.45 24.45 0 01-3.473 12.575.814.814 0 01-.602.391h-.103v-.005zm-3.226-5.197l3.046 3.046a22.817 22.817 0 002.721-10.82c0-3.787-.936-7.507-2.721-10.82l-3.046 3.046a18.613 18.613 0 011.682 7.774 18.61 18.61 0 01-1.682 7.774zm-37.411 5.197c-.036 0-.067 0-.098-.006a.813.813 0 01-.602-.39 24.448 24.448 0 01-3.473-12.575 24.45 24.45 0 013.473-12.575.812.812 0 01.602-.39.828.828 0 01.679.23l4.209 4.21a.816.816 0 01.154.936 16.964 16.964 0 00-1.77 7.584c0 2.66.597 5.212 1.77 7.583a.813.813 0 01-.154.937l-4.209 4.209a.813.813 0 01-.576.241l-.005.006zm.18-23.791a22.806 22.806 0 00-2.722 10.82c0 3.787.936 7.506 2.722 10.82l3.046-3.046a18.6 18.6 0 01-1.683-7.774c0-2.712.566-5.325 1.683-7.774l-3.046-3.046z" fill="#9DADF2"/><path d="M511.411 5.71c-10.352 0-18.779 8.424-18.779 18.78 0 10.358 8.422 18.78 18.779 18.78s18.78-8.422 18.78-18.78c0-10.356-8.423-18.78-18.78-18.78zm10.568 12.612a12.1 12.1 0 011.606 4.95.182.182 0 01-.088.174 15.721 15.721 0 00-3.586 3.01.168.168 0 01-.19.051l-2.321-.756a.177.177 0 01-.123-.15 16.184 16.184 0 00-1.775-5.463.182.182 0 01.015-.19l1.435-1.976a.198.198 0 01.15-.078h.041c1.533.34 3.108.453 4.672.325a.186.186 0 01.175.092l-.011.01zm-5.968 7.604a.187.187 0 01-.041.139 12.286 12.286 0 01-4.487 3.252.165.165 0 01-.139 0 12.403 12.403 0 01-4.486-3.252.183.183 0 01-.041-.139 14.894 14.894 0 011.718-5.29.172.172 0 01.118-.087 13.443 13.443 0 015.526 0c.052.01.093.042.119.088a15.014 15.014 0 011.718 5.289h-.005zm-.278-12.77s.062-.052.124-.052c.02 0 .046 0 .072.016a12.335 12.335 0 014.903 3.565.17.17 0 01.026.19.178.178 0 01-.165.109 14.179 14.179 0 01-3.458-.386.184.184 0 01-.113-.082 14.587 14.587 0 01-1.435-3.175.172.172 0 01.051-.185h-.005zm-6.92-.617a12.483 12.483 0 015.202 0 .185.185 0 01.139.133c.365 1.528.957 2.99 1.754 4.343a.19.19 0 01-.01.2l-1.425 1.966a.18.18 0 01-.181.072 14.649 14.649 0 00-5.757 0 .178.178 0 01-.18-.072l-1.425-1.966a.189.189 0 01-.01-.2 15.773 15.773 0 001.754-4.343.183.183 0 01.139-.133zm-6.817 4.146a12.237 12.237 0 014.903-3.565.17.17 0 01.195.036c.026.026.083.087.052.185a14.481 14.481 0 01-1.436 3.175.18.18 0 01-.113.082 14.17 14.17 0 01-3.457.386.177.177 0 01-.165-.108.171.171 0 01.026-.19h-.005zm-1.148 1.637a.183.183 0 01.16-.093h.015a15.85 15.85 0 004.672-.324.174.174 0 01.185.072l1.436 1.976a.183.183 0 01.015.19 16.14 16.14 0 00-1.775 5.464.193.193 0 01-.123.15l-2.321.756a.186.186 0 01-.19-.052 15.745 15.745 0 00-3.586-3.01.192.192 0 01-.088-.175 12.075 12.075 0 011.605-4.95l-.005-.004zm.561 12.677a.18.18 0 01-.154.124c-.036 0-.119 0-.175-.083a12.21 12.21 0 01-1.873-5.767.176.176 0 01.093-.17c.031-.016.113-.052.195.01a14.311 14.311 0 012.573 2.346.175.175 0 01.041.134 14.12 14.12 0 01-.705 3.411l.005-.005zm5.083 4.698a12.144 12.144 0 01-4.203-3.067.186.186 0 01-.036-.19c.602-1.451.983-2.98 1.132-4.543a.176.176 0 01.123-.155l2.295-.746s.036-.01.057-.01a.17.17 0 01.133.062 13.696 13.696 0 004.662 3.39.18.18 0 01.108.165v2.413a.174.174 0 01-.108.165 15.736 15.736 0 00-3.977 2.485.174.174 0 01-.191.026l.005.005zm8.094.509a.172.172 0 01-.134.144 12.372 12.372 0 01-6.071 0 .18.18 0 01-.134-.144.182.182 0 01.072-.185 14.345 14.345 0 013.03-1.724.164.164 0 01.139 0 14.605 14.605 0 013.031 1.724.19.19 0 01.072.185h-.005zm5.963-3.57a12.125 12.125 0 01-4.204 3.06.18.18 0 01-.19-.025 15.646 15.646 0 00-3.977-2.485.18.18 0 01-.108-.165v-2.413c0-.072.041-.139.108-.165a13.635 13.635 0 004.661-3.39.174.174 0 01.134-.062c.021 0 .036 0 .057.01l2.294.746a.179.179 0 01.124.155c.149 1.564.53 3.087 1.132 4.543a.176.176 0 01-.036.19h.005zm1.204-1.59a.177.177 0 01-.175.082c-.036 0-.118-.026-.154-.124a14.562 14.562 0 01-.705-3.41c0-.047.01-.099.041-.135a14.5 14.5 0 012.572-2.346.178.178 0 01.103-.036c.041 0 .072.015.093.026a.168.168 0 01.093.17 12.21 12.21 0 01-1.873 5.767l.005.005z" fill="#9DADF2"/><path d="M450.949.157c13.506 0 24.496 10.99 24.496 24.496 0 13.505-10.99 24.495-24.496 24.495-13.506 0-24.496-10.99-24.496-24.495 0-13.506 10.99-24.496 24.496-24.496zm0 47.227c12.533 0 22.731-10.198 22.731-22.731 0-12.534-10.198-22.731-22.731-22.731-12.534 0-22.731 10.197-22.731 22.73 0 12.534 10.197 22.732 22.731 22.732zM391.07.155a.88.88 0 110 1.76c-12.533 0-22.731 10.198-22.731 22.731 0 12.533 10.198 22.731 22.731 22.731a.88.88 0 110 1.76c-13.506 0-24.496-10.99-24.496-24.496 0-13.506 10.99-24.496 24.496-24.496v.01z" fill="#478BF9"/><path d="M446.236 20.32c0 .9.612 1.682 1.487 1.898l1.662.417v-4.276h-1.184c-1.08 0-1.96.88-1.96 1.96h-.005zm6.286 10.614h1.184c1.08 0 1.96-.88 1.96-1.96 0-.9-.612-1.683-1.487-1.899l-1.662-.416v4.275h.005z" fill="#478BF9"/><path d="M450.954 4.715c-10.99 0-19.937 8.942-19.937 19.937 0 10.995 8.942 19.937 19.937 19.937 10.995 0 19.937-8.942 19.937-19.937 0-10.995-8.942-19.937-19.937-19.937zm7.862 16.788h-3.144V19.93c0-.864-.705-1.574-1.574-1.574h-1.575v5.062l2.423.607a5.096 5.096 0 013.864 4.95 5.109 5.109 0 01-5.103 5.104h-1.184v3.982h-3.144v-3.982h-1.574a4.721 4.721 0 01-4.718-4.718v-1.575h3.144v1.575c0 .864.705 1.574 1.574 1.574h1.574v-5.063l-2.423-.607a5.097 5.097 0 01-3.864-4.95 5.11 5.11 0 015.104-5.103h1.183V11.23h3.144v3.982h1.575a4.721 4.721 0 014.718 4.718v1.574zM390.694.126h59.118a.88.88 0 110 1.76h-59.118a.88.88 0 010-1.76zm-.128 47.224h59.117a.88.88 0 110 1.76h-59.117a.88.88 0 110-1.76z" fill="#478BF9"/><path d="M326.953 49.064c-6.277 0-12.549-2.388-17.329-7.167-9.554-9.555-9.554-25.098 0-34.653 4.631-4.63 10.784-7.177 17.329-7.177a24.346 24.346 0 0117.329 7.177c9.554 9.555 9.554 25.098 0 34.653-4.775 4.774-11.052 7.167-17.329 7.167zM310.91 40.61c8.845 8.845 23.236 8.845 32.08 0 8.845-8.844 8.845-23.235 0-32.08-4.286-4.285-9.981-6.642-16.042-6.642-6.061 0-11.757 2.362-16.043 6.643-8.844 8.844-8.844 23.235 0 32.08h.005z" fill="#9DADF2"/><path d="M326.629 33.737a.546.546 0 00.509.334.643.643 0 00.216-.04 12.711 12.711 0 004.549-3.247.552.552 0 00-.047-.777.552.552 0 00-.777.046 11.496 11.496 0 01-4.152 2.963.552.552 0 00-.293.72h-.005z" fill="#9DADF2"/><path d="M336.291 16.1l-9.138-3.654a.57.57 0 00-.412 0l-9.137 3.653a.542.542 0 00-.345.51v6.544c.01 6.04 3.828 11.5 9.498 13.578a.584.584 0 00.38 0c5.67-2.084 9.488-7.537 9.498-13.578V16.61a.542.542 0 00-.344-.51zm-.757 7.053c-.01 5.495-3.457 10.501-8.582 12.472-5.124-1.97-8.577-6.977-8.587-12.472v-6.169l8.587-3.432 8.582 3.432v6.17z" fill="#9DADF2"/><path d="M323.135 16.959a.546.546 0 00-.422 0l-2.177.869a.54.54 0 00-.344.51v2.32a.551.551 0 001.101 0v-1.945l1.826-.73a.55.55 0 00.304-.72.567.567 0 00-.294-.304h.006z" fill="#9DADF2"/><path d="M340.87 10.656c-3.714-3.72-8.659-5.763-13.917-5.763a19.565 19.565 0 00-13.918 5.763c-7.671 7.67-7.671 20.158 0 27.835 3.838 3.838 8.876 5.752 13.918 5.752s10.079-1.92 13.917-5.752c7.672-7.672 7.672-20.159 0-27.835zm-2.722 12.497a15.854 15.854 0 01-11.097 15.204.318.318 0 01-.196 0 15.854 15.854 0 01-11.098-15.204V15.43c0-.128.077-.247.201-.298l10.876-4.348a.306.306 0 01.119-.02c.041 0 .082.005.118.02l10.877 4.353c.123.046.2.165.2.298v7.723-.005z" fill="#9DADF2"/><path d="M264.376 49.056c-13.506 0-24.491-10.99-24.491-24.491 0-13.5 10.99-24.49 24.491-24.49 13.5 0 24.49 10.99 24.49 24.49 0 13.5-10.99 24.49-24.49 24.49zm0-47.35c-12.606 0-22.86 10.253-22.86 22.859 0 12.605 10.254 22.86 22.86 22.86 12.605 0 22.859-10.255 22.859-22.86 0-12.606-10.254-22.86-22.859-22.86z" fill="#7DDACF"/><path d="M280.358 7.09l-7.582 7.581 1.492 1.492 7.581-7.582-1.491-1.491zm-26.1 26.099l-7.582 7.581 1.491 1.492 7.582-7.582-1.491-1.491zm20.232.004l-1.492 1.491 7.582 7.582 1.492-1.492-7.582-7.581zM248.166 6.865l-1.492 1.491 7.578 7.579 1.492-1.492-7.578-7.578zm22.183 18.359a1.255 1.255 0 000-1.78l-1.05-1.045a1.254 1.254 0 00-1.78 0l-.566.566-.653-.654a1.254 1.254 0 00-1.78 0l-.566.572-.654-.659a1.254 1.254 0 00-1.78 0l-3.473 3.473c-.026.026-.026.067 0 .098a1.2 1.2 0 001.688 0l2.238-2.238a.618.618 0 01.875 0l.164.164a.074.074 0 010 .108l-1.868 1.868c-.025.026-.025.067 0 .098a1.2 1.2 0 001.688 0l2.146-2.146a.617.617 0 01.874 0l.165.165c.026.026.026.067 0 .098l-1.801 1.8c-.026.026-.026.067 0 .098a1.2 1.2 0 001.688 0l2.073-2.073a.618.618 0 01.875 0l.355.355a.363.363 0 010 .509l-.057.057a.363.363 0 01-.509 0l-.458-.458c-.026-.026-.067-.026-.098 0l-.792.792c-.026.026-.026.067 0 .098l.715.715a1.254 1.254 0 001.78 0l.566-.566-.005-.015z" fill="#7DDACF"/><path d="M264.376 5.785c-10.372 0-18.779 8.407-18.779 18.78 0 10.372 8.407 18.78 18.779 18.78 10.373 0 18.78-8.408 18.78-18.78 0-10.373-8.407-18.78-18.78-18.78zm.767 5.799a12.959 12.959 0 017.872 3.262l-2.712 2.711a9.149 9.149 0 00-5.16-2.14v-3.833zm-1.528 0v3.833a9.12 9.12 0 00-5.161 2.14l-2.711-2.711a12.959 12.959 0 017.872-3.262zm-8.953 4.342l2.712 2.712a9.155 9.155 0 00-2.141 5.16H251.4a12.959 12.959 0 013.262-7.872zm-3.262 9.4h3.833a9.12 9.12 0 002.141 5.16l-2.712 2.712a12.96 12.96 0 01-3.262-7.872zm12.215 12.215a12.959 12.959 0 01-7.872-3.262l2.711-2.712a9.155 9.155 0 005.161 2.14v3.834zm-7.131-12.981a7.893 7.893 0 0115.785 0 7.893 7.893 0 01-15.785 0zm8.659 12.98v-3.832a9.114 9.114 0 005.16-2.14l2.712 2.71a12.959 12.959 0 01-7.872 3.263zm8.952-4.342l-2.711-2.711a9.147 9.147 0 002.14-5.16h3.833a12.953 12.953 0 01-3.262 7.871zm-.571-9.4a9.113 9.113 0 00-2.14-5.16l2.711-2.712a12.953 12.953 0 013.262 7.872h-3.833z" fill="#7DDACF"/><path d="M203.346 48.981c-13.506 0-24.49-10.99-24.49-24.49C178.856 10.99 189.846 0 203.346 0c13.501 0 24.491 10.99 24.491 24.49 0 13.501-10.99 24.491-24.491 24.491zm0-47.35c-12.605 0-22.859 10.254-22.859 22.86 0 12.605 10.254 22.86 22.859 22.86 12.606 0 22.86-10.255 22.86-22.86 0-12.606-10.254-22.86-22.86-22.86z" fill="#9DADF2"/><path d="M211.292 9.2a.803.803 0 01-.36-.083 16.964 16.964 0 00-7.584-1.77c-2.66 0-5.212.597-7.584 1.77a.814.814 0 01-.936-.154l-4.209-4.209a.815.815 0 01-.232-.68.814.814 0 01.391-.601A24.449 24.449 0 01203.353 0c4.435 0 8.783 1.204 12.575 3.473.216.129.36.35.391.602a.828.828 0 01-.232.68l-4.208 4.208a.833.833 0 01-.582.236h-.005zm-7.944-3.484a18.6 18.6 0 017.774 1.683l3.046-3.046a22.811 22.811 0 00-10.82-2.722c-3.787 0-7.507.936-10.82 2.722l3.046 3.046a18.606 18.606 0 017.774-1.683zm-.001 43.265a24.494 24.494 0 01-12.574-3.472.811.811 0 01-.391-.602.827.827 0 01.231-.68l4.209-4.208a.815.815 0 01.936-.155 16.964 16.964 0 007.584 1.77c2.66 0 5.212-.596 7.584-1.77a.814.814 0 01.936.155l4.209 4.209c.18.18.262.426.232.679a.814.814 0 01-.391.602 24.449 24.449 0 01-12.575 3.472h.01zm-10.82-4.352a22.815 22.815 0 0010.82 2.721c3.787 0 7.507-.936 10.82-2.721l-3.045-3.046a18.61 18.61 0 01-7.775 1.682c-2.711 0-5.325-.566-7.774-1.682l-3.046 3.046zm31.138-7.167a.808.808 0 01-.576-.237l-4.209-4.209a.816.816 0 01-.154-.936 16.964 16.964 0 001.77-7.584c0-2.66-.597-5.212-1.77-7.584a.813.813 0 01.154-.936l4.209-4.209a.811.811 0 01.679-.231c.252.03.474.175.602.39a24.448 24.448 0 013.473 12.575 24.45 24.45 0 01-3.473 12.575.813.813 0 01-.602.391h-.103v-.005zm-3.226-5.197l3.046 3.046a22.807 22.807 0 002.722-10.82c0-3.787-.936-7.507-2.722-10.82l-3.046 3.046a18.598 18.598 0 011.683 7.774 18.6 18.6 0 01-1.683 7.774zm-37.411 5.197c-.036 0-.067 0-.097-.006a.813.813 0 01-.602-.39 24.448 24.448 0 01-3.473-12.575 24.45 24.45 0 013.473-12.575.812.812 0 01.602-.39.828.828 0 01.679.23l4.208 4.21a.816.816 0 01.155.936 16.964 16.964 0 00-1.77 7.584c0 2.66.597 5.212 1.77 7.583a.814.814 0 01-.155.937l-4.208 4.209a.815.815 0 01-.576.241l-.006.006zm.18-23.791a22.817 22.817 0 00-2.721 10.82c0 3.787.936 7.506 2.721 10.82l3.046-3.046a18.614 18.614 0 01-1.682-7.774c0-2.712.566-5.325 1.682-7.774l-3.046-3.046z" fill="#9DADF2"/><path d="M203.347 5.71c-10.352 0-18.78 8.424-18.78 18.78 0 10.358 8.423 18.78 18.78 18.78 10.357 0 18.78-8.422 18.78-18.78 0-10.356-8.423-18.78-18.78-18.78zm10.568 12.612a12.099 12.099 0 011.605 4.95.182.182 0 01-.087.174 15.721 15.721 0 00-3.586 3.01.17.17 0 01-.191.051l-2.32-.756a.18.18 0 01-.124-.15 16.14 16.14 0 00-1.775-5.463.182.182 0 01.016-.19l1.435-1.976a.196.196 0 01.149-.078h.042a15.67 15.67 0 004.671.325.186.186 0 01.175.092l-.01.01zm-5.968 7.604a.192.192 0 01-.041.139 12.294 12.294 0 01-4.487 3.252.165.165 0 01-.139 0 12.403 12.403 0 01-4.486-3.252.188.188 0 01-.042-.139 14.916 14.916 0 011.719-5.29.172.172 0 01.118-.087 13.443 13.443 0 015.526 0c.052.01.093.042.118.088a14.996 14.996 0 011.719 5.289h-.005zm-.278-12.77s.062-.052.123-.052a.13.13 0 01.072.016 12.33 12.33 0 014.904 3.565c.067.078.041.16.025.19a.175.175 0 01-.164.109 14.179 14.179 0 01-3.458-.386.184.184 0 01-.113-.082 14.54 14.54 0 01-1.435-3.175.17.17 0 01.051-.185h-.005zm-6.92-.617a12.479 12.479 0 015.201 0 .183.183 0 01.139.133 15.78 15.78 0 001.755 4.343.19.19 0 01-.01.2l-1.426 1.966a.178.178 0 01-.18.072 14.649 14.649 0 00-5.757 0 .178.178 0 01-.18-.072l-1.425-1.966a.187.187 0 01-.011-.2 15.744 15.744 0 001.755-4.343.183.183 0 01.139-.133zm-6.818 4.146a12.24 12.24 0 014.904-3.565.17.17 0 01.195.036c.026.026.083.087.052.185a14.481 14.481 0 01-1.436 3.175.184.184 0 01-.113.082c-1.127.268-2.29.401-3.457.386a.177.177 0 01-.165-.108.17.17 0 01.026-.19h-.006zm-1.147 1.637a.183.183 0 01.16-.093h.015c1.569.123 3.144.015 4.672-.324a.174.174 0 01.185.072l1.436 1.976a.183.183 0 01.015.19 16.14 16.14 0 00-1.775 5.464.192.192 0 01-.124.15l-2.32.756a.186.186 0 01-.19-.052 15.75 15.75 0 00-3.587-3.01.193.193 0 01-.087-.175 12.075 12.075 0 011.605-4.95l-.005-.004zm.561 12.677a.18.18 0 01-.154.124c-.036 0-.119 0-.175-.083a12.2 12.2 0 01-1.873-5.767.177.177 0 01.092-.17c.031-.016.114-.052.196.01a14.311 14.311 0 012.573 2.346.18.18 0 01.041.134 14.167 14.167 0 01-.705 3.411l.005-.005zm5.083 4.698a12.144 12.144 0 01-4.203-3.067.184.184 0 01-.036-.19 15.77 15.77 0 001.132-4.543.176.176 0 01.123-.155l2.295-.746s.036-.01.056-.01a.17.17 0 01.134.062 13.696 13.696 0 004.662 3.39.18.18 0 01.108.165v2.413a.174.174 0 01-.108.165 15.718 15.718 0 00-3.977 2.485.174.174 0 01-.191.026l.005.005zm8.094.509a.173.173 0 01-.134.144 12.372 12.372 0 01-6.071 0 .18.18 0 01-.134-.144.18.18 0 01.072-.185 14.345 14.345 0 013.03-1.724.164.164 0 01.139 0 14.63 14.63 0 013.031 1.724.19.19 0 01.072.185h-.005zm5.963-3.57a12.144 12.144 0 01-4.204 3.06.18.18 0 01-.19-.025 15.663 15.663 0 00-3.977-2.485.18.18 0 01-.108-.165v-2.413c0-.072.041-.139.108-.165a13.645 13.645 0 004.661-3.39.173.173 0 01.134-.062c.02 0 .036 0 .056.01l2.295.746a.179.179 0 01.124.155c.149 1.564.53 3.087 1.132 4.543a.178.178 0 01-.036.19h.005zm1.204-1.59a.177.177 0 01-.175.082.178.178 0 01-.155-.124 14.612 14.612 0 01-.704-3.41c0-.047.01-.099.041-.135a14.45 14.45 0 012.572-2.346.178.178 0 01.103-.036c.041 0 .072.015.093.026a.167.167 0 01.092.17 12.21 12.21 0 01-1.872 5.767l.005.005z" fill="#9DADF2"/><path d="M142.884.157c13.506 0 24.496 10.99 24.496 24.496 0 13.505-10.99 24.495-24.496 24.495-13.506 0-24.496-10.99-24.496-24.495 0-13.506 10.99-24.496 24.496-24.496zm0 47.227c12.533 0 22.731-10.198 22.731-22.731 0-12.534-10.198-22.731-22.731-22.731-12.533 0-22.731 10.197-22.731 22.73 0 12.534 10.198 22.732 22.731 22.732zM83.005.155a.88.88 0 110 1.76c-12.533 0-22.731 10.198-22.731 22.731 0 12.533 10.198 22.731 22.731 22.731a.88.88 0 110 1.76c-13.506 0-24.496-10.99-24.496-24.496C58.51 11.135 69.5.145 83.005.145v.01z" fill="#478BF9"/><path d="M138.171 20.32c0 .9.612 1.682 1.487 1.898l1.662.417v-4.276h-1.183c-1.081 0-1.961.88-1.961 1.96h-.005zm6.287 10.614h1.183c1.08 0 1.96-.88 1.96-1.96 0-.9-.612-1.683-1.487-1.899l-1.662-.416v4.275h.006z" fill="#478BF9"/><path d="M142.889 4.715c-10.99 0-19.937 8.942-19.937 19.937 0 10.995 8.942 19.937 19.937 19.937 10.995 0 19.937-8.942 19.937-19.937 0-10.995-8.942-19.937-19.937-19.937zm7.862 16.788h-3.144V19.93c0-.864-.705-1.574-1.574-1.574h-1.575v5.062l2.424.607a5.097 5.097 0 013.864 4.95 5.11 5.11 0 01-5.104 5.104h-1.184v3.982h-3.143v-3.982h-1.575a4.721 4.721 0 01-4.718-4.718v-1.575h3.144v1.575c0 .864.705 1.574 1.574 1.574h1.575v-5.063l-2.424-.607a5.097 5.097 0 01-3.864-4.95 5.11 5.11 0 015.104-5.103h1.184V11.23h3.143v3.982h1.575a4.721 4.721 0 014.718 4.718v1.574zM82.63.126h59.117a.88.88 0 110 1.76H82.63a.88.88 0 110-1.76zm-.129 47.224h59.117a.88.88 0 110 1.76H82.501a.88.88 0 110-1.76z" fill="#478BF9"/><path d="M24.494 49.064c-6.276 0-12.548-2.388-17.328-7.167-9.555-9.555-9.555-25.098 0-34.653C11.796 2.614 17.95.067 24.494.067c6.545 0 12.699 2.547 17.33 7.177 9.554 9.555 9.554 25.098 0 34.653-4.775 4.774-11.052 7.167-17.33 7.167zM8.452 40.61c8.845 8.845 23.235 8.845 32.08 0 8.844-8.844 8.844-23.235 0-32.08-4.286-4.285-9.982-6.642-16.043-6.642-6.06 0-11.756 2.362-16.042 6.643-8.844 8.844-8.844 23.235 0 32.08h.005z" fill="#9DADF2"/><path d="M24.17 33.737a.547.547 0 00.51.334.643.643 0 00.216-.04 12.703 12.703 0 004.548-3.247.552.552 0 00-.046-.777.552.552 0 00-.777.046 11.502 11.502 0 01-4.152 2.963.552.552 0 00-.294.72h-.005z" fill="#9DADF2"/><path d="M33.832 16.1l-9.138-3.654a.569.569 0 00-.412 0L15.145 16.1a.542.542 0 00-.345.51v6.544c.01 6.04 3.828 11.5 9.498 13.578a.59.59 0 00.38 0c5.67-2.084 9.488-7.537 9.498-13.578V16.61a.542.542 0 00-.344-.51zm-.757 7.053c-.01 5.495-3.457 10.501-8.582 12.472-5.124-1.97-8.576-6.977-8.587-12.472v-6.169l8.587-3.432 8.582 3.432v6.17z" fill="#9DADF2"/><path d="M20.676 16.959a.545.545 0 00-.422 0l-2.176.869a.541.541 0 00-.345.51v2.32a.551.551 0 001.101 0v-1.945l1.827-.73a.545.545 0 00.304-.72.565.565 0 00-.294-.304h.005z" fill="#9DADF2"/><path d="M38.412 10.656c-3.715-3.72-8.66-5.763-13.918-5.763a19.565 19.565 0 00-13.917 5.763c-7.672 7.67-7.672 20.158 0 27.835 3.838 3.838 8.875 5.752 13.917 5.752s10.08-1.92 13.918-5.752c7.671-7.672 7.671-20.159 0-27.835zM35.69 23.153a15.854 15.854 0 01-11.098 15.204.317.317 0 01-.195 0 15.854 15.854 0 01-11.098-15.204V15.43c0-.128.077-.247.2-.298l10.877-4.348a.302.302 0 01.118-.02c.041 0 .083.005.119.02l10.876 4.353a.313.313 0 01.201.298v7.723-.005z" fill="#9DADF2"/></g></svg>